<mxfile host="app.diagrams.net" modified="2022-04-01T10:18:23.372Z" agent="5.0 (X11)" etag="wbpdSoThw7UbmByrv8Wj" version="17.4.0" type="github" pages="3">
  <diagram id="kb3SbCpyAatIOezHr185" name="Origin">
    <mxGraphModel dx="1398" dy="751" grid="1" gridSize="10" guides="1" tooltips="1" connect="1" arrows="1" fold="1" page="1" pageScale="1" pageWidth="850" pageHeight="1100" math="0" shadow="0">
      <root>
        <mxCell id="0" />
        <mxCell id="1" parent="0" />
        <mxCell id="x3dFOXKOdSPqOOI6z2Wr-1" value="Origin" style="text;html=1;strokeColor=none;fillColor=none;align=center;verticalAlign=middle;whiteSpace=wrap;rounded=0;fontFamily=Comfortaa;fontSource=https%3A%2F%2Ffonts.googleapis.com%2Fcss%3Ffamily%3DComfortaa;fontSize=50;fontStyle=1" parent="1" vertex="1">
          <mxGeometry x="340" y="290" width="60" height="30" as="geometry" />
        </mxCell>
        <mxCell id="x3dFOXKOdSPqOOI6z2Wr-2" value="&lt;font color=&quot;#97D077&quot;&gt;https://&lt;/font&gt;www.google.com/maps/" style="rounded=0;whiteSpace=wrap;html=1;fontFamily=Comfortaa;fontSource=https%3A%2F%2Ffonts.googleapis.com%2Fcss%3Ffamily%3DComfortaa;fontSize=30;" parent="1" vertex="1">
          <mxGeometry x="130" y="420" width="570" height="70" as="geometry" />
        </mxCell>
        <mxCell id="x3dFOXKOdSPqOOI6z2Wr-3" value="Protocol" style="text;html=1;strokeColor=none;fillColor=none;align=center;verticalAlign=middle;whiteSpace=wrap;rounded=0;fontFamily=Comfortaa;fontSource=https%3A%2F%2Ffonts.googleapis.com%2Fcss%3Ffamily%3DComfortaa;fontSize=30;fontColor=#000000;labelBackgroundColor=none;fontStyle=1" parent="1" vertex="1">
          <mxGeometry x="160" y="380" width="60" height="30" as="geometry" />
        </mxCell>
        <mxCell id="x3dFOXKOdSPqOOI6z2Wr-4" value="https://&lt;font color=&quot;#97D077&quot;&gt;www.google.com&lt;/font&gt;/maps/" style="rounded=0;whiteSpace=wrap;html=1;fontFamily=Comfortaa;fontSource=https%3A%2F%2Ffonts.googleapis.com%2Fcss%3Ffamily%3DComfortaa;fontSize=30;" parent="1" vertex="1">
          <mxGeometry x="130" y="580" width="570" height="70" as="geometry" />
        </mxCell>
        <mxCell id="x3dFOXKOdSPqOOI6z2Wr-5" value="Host" style="text;html=1;strokeColor=none;fillColor=none;align=center;verticalAlign=middle;whiteSpace=wrap;rounded=0;fontFamily=Comfortaa;fontSource=https%3A%2F%2Ffonts.googleapis.com%2Fcss%3Ffamily%3DComfortaa;fontSize=30;fontColor=#000000;labelBackgroundColor=none;fontStyle=1" parent="1" vertex="1">
          <mxGeometry x="150" y="535" width="60" height="30" as="geometry" />
        </mxCell>
        <mxCell id="x3dFOXKOdSPqOOI6z2Wr-6" value="https://www.google.com&lt;font color=&quot;#97D077&quot;&gt;:443&lt;/font&gt;/maps/" style="rounded=0;whiteSpace=wrap;html=1;fontFamily=Comfortaa;fontSource=https%3A%2F%2Ffonts.googleapis.com%2Fcss%3Ffamily%3DComfortaa;fontSize=30;" parent="1" vertex="1">
          <mxGeometry x="130" y="720" width="570" height="70" as="geometry" />
        </mxCell>
        <mxCell id="x3dFOXKOdSPqOOI6z2Wr-7" value="Port" style="text;html=1;strokeColor=none;fillColor=none;align=center;verticalAlign=middle;whiteSpace=wrap;rounded=0;fontFamily=Comfortaa;fontSource=https%3A%2F%2Ffonts.googleapis.com%2Fcss%3Ffamily%3DComfortaa;fontSize=30;fontColor=#000000;labelBackgroundColor=none;fontStyle=1" parent="1" vertex="1">
          <mxGeometry x="150" y="680" width="60" height="30" as="geometry" />
        </mxCell>
        <mxCell id="x3dFOXKOdSPqOOI6z2Wr-9" value="When anything of these change, it will not be the same &lt;i&gt;&lt;b&gt;origin &lt;/b&gt;&lt;/i&gt;anymore" style="text;html=1;strokeColor=none;fillColor=none;align=center;verticalAlign=middle;whiteSpace=wrap;rounded=0;labelBackgroundColor=none;fontFamily=Comfortaa;fontSource=https%3A%2F%2Ffonts.googleapis.com%2Fcss%3Ffamily%3DComfortaa;fontSize=30;fontColor=#000000;" parent="1" vertex="1">
          <mxGeometry x="120" y="860" width="565" height="30" as="geometry" />
        </mxCell>
      </root>
    </mxGraphModel>
  </diagram>
  <diagram id="qzlOuz4Bu0EI_OO1B7qK" name="Same Origin Policy">
    <mxGraphModel dx="1398" dy="697" grid="1" gridSize="10" guides="1" tooltips="1" connect="1" arrows="1" fold="1" page="1" pageScale="1" pageWidth="850" pageHeight="1100" math="0" shadow="0">
      <root>
        <mxCell id="0" />
        <mxCell id="1" parent="0" />
        <mxCell id="SXNB1z7qJofkc3VJ6PGI-3" style="rounded=0;orthogonalLoop=1;jettySize=auto;html=1;entryX=0;entryY=0.5;entryDx=0;entryDy=0;fontFamily=Comfortaa;fontSource=https%3A%2F%2Ffonts.googleapis.com%2Fcss%3Ffamily%3DComfortaa;fontSize=30;fontColor=#000000;" edge="1" parent="1" source="SXNB1z7qJofkc3VJ6PGI-1" target="SXNB1z7qJofkc3VJ6PGI-2">
          <mxGeometry relative="1" as="geometry" />
        </mxCell>
        <mxCell id="SXNB1z7qJofkc3VJ6PGI-6" style="edgeStyle=none;rounded=0;orthogonalLoop=1;jettySize=auto;html=1;entryX=0;entryY=0.5;entryDx=0;entryDy=0;fontFamily=Comfortaa;fontSource=https%3A%2F%2Ffonts.googleapis.com%2Fcss%3Ffamily%3DComfortaa;fontSize=30;fontColor=#000000;" edge="1" parent="1" source="SXNB1z7qJofkc3VJ6PGI-1" target="SXNB1z7qJofkc3VJ6PGI-5">
          <mxGeometry relative="1" as="geometry" />
        </mxCell>
        <mxCell id="SXNB1z7qJofkc3VJ6PGI-1" value="Your machine" style="rounded=0;whiteSpace=wrap;html=1;labelBackgroundColor=none;fontFamily=Comfortaa;fontSource=https%3A%2F%2Ffonts.googleapis.com%2Fcss%3Ffamily%3DComfortaa;fontSize=30;fontColor=#000000;" vertex="1" parent="1">
          <mxGeometry x="100" y="350" width="220" height="80" as="geometry" />
        </mxCell>
        <mxCell id="SXNB1z7qJofkc3VJ6PGI-2" value="google.com" style="rounded=0;whiteSpace=wrap;html=1;labelBackgroundColor=none;fontFamily=Comfortaa;fontSource=https%3A%2F%2Ffonts.googleapis.com%2Fcss%3Ffamily%3DComfortaa;fontSize=30;fontColor=#000000;" vertex="1" parent="1">
          <mxGeometry x="630" y="270" width="240" height="80" as="geometry" />
        </mxCell>
        <mxCell id="SXNB1z7qJofkc3VJ6PGI-4" value="If inside google.com contain some script that make request to another site that may steal your information" style="text;html=1;strokeColor=none;fillColor=none;align=left;verticalAlign=middle;whiteSpace=wrap;rounded=0;labelBackgroundColor=none;fontFamily=Comfortaa;fontSource=https%3A%2F%2Ffonts.googleapis.com%2Fcss%3Ffamily%3DComfortaa;fontSize=30;fontColor=#000000;" vertex="1" parent="1">
          <mxGeometry x="880" y="310" width="420" height="30" as="geometry" />
        </mxCell>
        <mxCell id="SXNB1z7qJofkc3VJ6PGI-5" value="facebook.com" style="rounded=0;whiteSpace=wrap;html=1;labelBackgroundColor=none;fontFamily=Comfortaa;fontSource=https%3A%2F%2Ffonts.googleapis.com%2Fcss%3Ffamily%3DComfortaa;fontSize=30;fontColor=#000000;" vertex="1" parent="1">
          <mxGeometry x="630" y="460" width="250" height="80" as="geometry" />
        </mxCell>
        <mxCell id="SXNB1z7qJofkc3VJ6PGI-7" value="Same Origin Policy will prevent this happen" style="rounded=0;whiteSpace=wrap;html=1;labelBackgroundColor=none;fontFamily=Comfortaa;fontSource=https%3A%2F%2Ffonts.googleapis.com%2Fcss%3Ffamily%3DComfortaa;fontSize=30;fillColor=#d5e8d4;strokeColor=#82b366;" vertex="1" parent="1">
          <mxGeometry x="360" y="640" width="415" height="120" as="geometry" />
        </mxCell>
        <mxCell id="SXNB1z7qJofkc3VJ6PGI-9" value="Same Origin Policy will ignore thing like HTML &amp;lt;a&amp;gt; tag to another site, or POST request (historical reason, but this may have response to steal to information)" style="rounded=0;whiteSpace=wrap;html=1;labelBackgroundColor=none;fontFamily=Comfortaa;fontSource=https%3A%2F%2Ffonts.googleapis.com%2Fcss%3Ffamily%3DComfortaa;fontSize=30;fillColor=#ffe6cc;strokeColor=#d79b00;" vertex="1" parent="1">
          <mxGeometry x="262.5" y="820" width="610" height="180" as="geometry" />
        </mxCell>
        <mxCell id="SXNB1z7qJofkc3VJ6PGI-10" value="" style="shape=image;verticalLabelPosition=bottom;labelBackgroundColor=default;verticalAlign=top;aspect=fixed;imageAspect=0;image=data:image/png,iVBORw0KGgoAAAANSUhEUgAAAwcAAAFTCAYAAABs2HCHAAAABHNCSVQICAgIfAhkiAAAABl0RVh0U29mdHdhcmUAZ25vbWUtc2NyZWVuc2hvdO8Dvz4AAAAtdEVYdENyZWF0aW9uIFRpbWUARnJpIDAxIEFwciAyMDIyIDEwOjI1OjMxIEFNICswN8VjMG0AACAASURBVHic7N13fFT3ne//18xopFGXKBJFqDdUEEWIIjDYBhsDBmNcMC5xd9bp3ru7d+/dze5mN3dTNv0Xx0ns2I5jx3Yc26HZ9N67BEJdqFcQQr3O74+RxhokgSQQEvj9fDx4PNA533O+33POnJnz+bZjCA4JtyIiIiIiIl96xuEugIiIiIiIjAwKDkREREREBFBwICIiIiIinRQciIiIiIgIoOBAREREREQ6KTgQEREREREAnIa7AINhtfY++6rBYLjJJRERERERuX3cEsFB92DAYDB0CwKsdI8T+goaRERERETk2kZ0cGC1WrsFA7ZAwGg04uTkhMlkwmQyYTQYMRgNajUQEREREblOIzI46B4UWK1WzE5mzC7OmJ2cMBo1TEJEREREZCiMqODgi6AArFawWCy4OJsxmkzDXTQRERERkdveiAgOrmwpcLVYcLFY1FVIREREROQmGvbgoCswsFqtmJ3NuFlc1VIgIiIiIjIMhjU46B4YuLm74+LsPJzFERERERH5UhuW4KD72AKj0YibuxtOpmFvxBARERER+VK76U/kDt2InMy4e7hrbIGIiIiIyAhwU4MDh8DAbMbDw+NmZi8iIiIiIldxU18a0L3FQIGBiIiIiMjIctOCA6vVClgxmUy4e7jfrGxFRERERKSfbkpw8EV3InBzd9MYAxERERGREWjIg4MrpyvVrEQiIiIiIiPTkAcH3V9wpvcYiIiIiIiMXEMaHNjGGYDBAG4W16HMSkRERERErtOQBgddrQYuLhaMJtNQZiUiIiIiItdpyIKDrtmJDAYDFotlqLIREREREZEbZMiCg67ZiVycXTQ7kYiIiIjILWBIgoPuYw1cXDQIWURERETkVjAkwUHXWAMnk1ljDUREREREbhE3PDjoajUAMLuYb/TuRURERERkiAzRmANbgGB2urnBwYwZM3jjD2+ycdMmfvbzn9/UvK/G19eXzzdv5gc//OFwF4UFCxfy+ebNrF27driLIiIiIiIjzA1/XfEXXYpMGI1D/o41OycnJ/7pf/8T7u4efPzxXzmfd/6m5S0iIiIicju44cFBF6PTkO26V6NHj8bLy5tTp07xxutv3NS8RURERERuBze0ar/7eAPTTR6IbHa2zYpUV1d3U/MVEREREbldDEn1vsEATjcxOPje975H0qxZAMybN4/PN28m/3w+L730IgBBQUE8/MgjTJ8+HW9vb1paWsjPP8+nn/6NXTt39tjfzKQkHnzwQSIiIjAYDBQWFvDJJ5+ye9cuh3Rubq48+uhjzE1OZtw4f1pb2ygsKGDr1q1s2rSRjo4Oh/RWq5UJEybwwgsvEh8fh4vFQn5+Pu+//z779u51SGsymXhg1SruvPNOAgICMJlMlJWVc+jQAT54/4MeQVBISCiPrX2M+Ph4PD09aWxoJCMrg48/+isnTpy45jkMDQ3lx//zPzQ2NPLKK69QUVF+1fT9PUfe3t489thaZs1OYsyYsbS1tVFYUMiWrZvZtHGTwzn6/e9/j4enJy++8CIvvfQiiTNn4u7uTn5+Pm/+4Q+cPHmSB1evZsmS+/D396OyspL169bxySefXPP4REREROTaTD6+o/79Ru7QYACrFVwtFgw3acxBaWkZOTnZJCUlce7cOX7z6qscPHiAsrIyAgIm8vNf/IKgoCA2b/6c7du3k5mZTXT0ZJYtW0plVRU52dn2fS1btoz//c//TFNzEzu27+DUyVOEhISwcuVKOqxWUlNTAVtg8JOf/YxZs2Zx8OBBNmzYwJnUVMZPmMCKlSvw9/fnwIEDALi6uvLQQw9Re7mW+1esoLCokD179lBYWMjUhATuXrSInJxsioqKOs+hge9+97usXLmS3NxcNqxfz6FDhzAaDNy/YgUzZyWxdcsW2tvbAYiNjeV/fvITxo4Zy2effcbmLZvJO3+e6TOms3LlSsrKysjLzQUgODiY+fPnc/r0afuxjBs3jh/+6EdYrVb+8Z/+gdLS0que7/6eI09PL375q18xfcZ09u3bx2effcaZM2eYOGEC99+/gjFjxnDo0CH7fu9buhRfX1/iE+JJTz/Hn//8Hunp6SxatIiFCxfi7+fHxEmTePutt9i+fTuxsTEsWXIfBQUF5Ofn34iPkoiIiMiX2g1vOejqWXSzAgOA9PRz1NXbatIvXLhgfygHiIqMorCwkA0bNrBt61b78q1bNvPue+/x8EMPsfnzzwHw8PDgpa9+lYqKcr79zW/R3NwMwCeffMxrv/0djz/+OJ9t2kh19SXWPPYYIcEhfP/732fvnj32/a5fv57vfe97LFq8mI0bN3Lu3Dn7usioSF799a9Zt26dfdmRI4f54Q9/xONPPMmhg7YH5eS5c5k9Zw4HDxzkP/7j3+1pP//sM+rq61i1ahUrVqzgo48+AuDr3/wGZrOZV155heysLHv6Hdu38vvX3+CrL32VPbt309ra2uPceXt78/3/9984OzvzT//4jxQVFl31XA/kHD355BOMGzeO3/32t3z88cdfnKN16/jFL37JvUuWsHHTRjIzMgHoaG/H1dWVkydO8sH7HwCQmZFJbEws9y29j7i4OF588UV7a8Pvfvs7fvqznzF37lz2dLsGIiIiIjI4Q/YEbzAYhmrXA7J9xw6+/a1v2QMDk8mE2Wymrq6O6upq/Mf529POnTsXZ2dntm3bbn/oBWhtbeW//vM/+ad/+Eeam1sAuHPhnVy6dIkzqan4+vo6/Dt46CAA06ZPdyhLY2MjmzZ95rDs9KnTVFVWEREejru7OwDz5s8HYN26v/U4no0bNwAwZ+5cAAICJhISHEJaWppDYABQVXWBI4cP4+nlSVxcXI99ubq68l//9X1Gjx7Fd//1X8nJybnW6RzQOZo3fz5tbW1s3LjRYR8dHR18/rntPMyZM7dHHrt3OXb1KiwsAGDvvn0O3ZAKCgsBGDVq1DXLLSIiIiLXdnOnFBomyfPmsXTpUiIjIvHw9HAIXLo/bAaHhACQf/58j33k5eXa/2+xWBjr5wfAn99/v898/f39Hf4uLiqira1n7X1RcRFjxo7B39+f3NxcAoOCbOXopatMcVEx7e3tBAZOAiAwsO+0APkFtgfrSZMmcfLkSftyk8mJf/3ud4mIjOC73/0uaWlpfR5Hd/09Rx4eHowaNYqiomKHIMJervwvynWlysoqh7/b2toAuFB1wWF5e+dy002eGUtERETkdnXbP1U99NBDPP/CC5SWlvDOn96hsKCAxsYmAP7t3/8Nb29ve1oXF9uMRy0tLVfdp6urKwBVlVX87Oc/6zNdzaVLDn/X1zf0mq652VYeZ2eXzv1bAGhqauqR1mq10tLSgsViK4Orpe+0tn3bHsy70ndZ9eCDuLnZls2alcSRw4f7PI7u+nuOLPZjaOx1fVPnMVs6y99d11iKK7W1t/WrjCIiIiIyOEMWHFit1mHvWmQ0GlmzZg3Nzc38/St/z8WLFx3Wm82Ob3C+eLEaAC8vr6vut6HB9pDv4uLC8WPH+l0eF4tz78tdbA/IzZ0P+A0NtgdqV1dXe15djEYjLi4u1NZetqVt7Ex7xcN/l66H74bGeofl7W1t/Mu//AuPrnmUZcuWk3I6hd27d1/zGPp7jhrtx+DW6/quAKuxofeASURERERuviEbc2C9YhrP4eDh4YmHpycF+QU9AoPwiAg8PDwclpV1ztITFhbWY19xsXGsWrWK8ePH09zcTGlZKZ5engR1dgHqzs3NtUfgATBxQkCvb40OmBiA1WqlrLwMgPP55wEICQ7pkTYwMBCj0UhBZ7ec853de0JCg3ukBQjp7AZU0Nm9qMsnn3zMsaNH+eEPfkBt7WW+9e3vMGHChF730V1/z1F9fT1VlVWMG+dvDwQcyhVsK29X9yIRERERGX5DFhx0dHsh2nCpq6ultbWFMWPHOryUzd3dnZdffpmGhgaMRiNOnX3Wjx07RmtrK3fedSdjx461p3dyMvPy17/GCy++aO9Os3unrZb9yaee6vHA/7VvfIO/fPQRwZ0PwF08vTxZuHChw7IpCVMYM3YMaWlpNHa2AuzauQuAFStX9DimFStX2vLfY8u/tLSUzIxMoqKiiYqKckg7ftx4kpKSuHDhAmlnex9TUFVZxf/8+Ce4ulr4v//yLw5BjYeHB2FhYfbxFQM9R7t27cRkMrFs+XKHPJ2czNy3bClWq5W9ezXLkIiIiMhIMSTvOQDbIFGnmzhQ1MvbmxUrVlBQUGCf1tJqtRIQMImYmBhCQkIwGI1MmzaN77zyHY4dO0p9QyOBkybh5GSirr6ekpISGhsbSE6ex/z583FzcyM2NoYXXnqJ8LAw/vSnP3G4s29+RkYGs2fPZsqUKUyOicHJbCZm8mSefe455s6Zy/79+9mwfj0AHp4ePPjgarKzspg9ezZjxo5l1KhRzJ49mxdefAFnZ2d+/rOfUVZmazkoKS4mICCA5HnziIqKws3NjcjISB56+GEWL17MmdRUfvOb39jfSJ2Vnc1dd93FwoV34uLiwtixY5kzdy5f+/rXcXV15Uc/+hGFnTP79Paeg+LiItzc3EhOTsbb24sjh48AthmR/vsHP8DH24f9+/cDtjEM/T1H6enpJCcnc8eCBfiO8sXbx5uEKQm89NJLhIeH8+EHH7Kr20vTli5dyqjRo3nv3Xcd3rYdFRXFzKQkDh06RHa3d1KYzWbWrFlDZWUlWzZvvrEfKBEREZEvoSF4ejdgMFjp6GNQ6c326q9/TVNTE7NmzWbGjBkUFxfz0V8+YuPGjURGRRIWGsqqBx+kpaWNrMwsPv3kU8rLylm9ejWrVz+E2WyisLCI//7v/3Z4+29jYyN//8orPPLIo8xNTubrX/8aVqut+85rr/2G9evW29OaTbba+JLSUn7wwx/y4gsvcO+99+Li4sL5vPP85Cc/dZhJCOBHP/oR6RnpLF58Dy999asYDAaKi4t5+623+OijjxwG7WZnZfGtb32Txx9/gmXLl+Pl5Ul9fR1nzpzlg/ffJyMj45rn6c0//IG42Djb+IOU1B5vOu6uv+eooaGB73znOzy2di1z5s5hyZL7aGlpJTcvhx/84Ae9vp1aRERERIaPITgk/Ib1/+kahGy1WjGZTNcctCoiIiIiIiPHDR1z0H12ovb2Nod3CIiIiIiIyMg2ZAOSwUBra88XfomIiIiIyMh0w4MDW9ci2/9bWxQciIiIiIjcKoao5cAWHbS2tYyYgckiIiIiInJ1Nzw4cHwrsoHmzjnvRURERERkZBuSloOuWYsMBmhsbHKYs15EREREREamIQkOuloPrFbbS9Gam5qGIhsREREREbmBhmy2oq6ByQYDNDY1aeyBiIiIiMgIN2TBga31wEBXj6KGpsahykpERERERG6AIXzPgePYg9aWFpqbm4cyOxERERERuQ5DGhx0H3sABhoaGmhvbxvKLEVEREREZJCGNDiAL1oPutTV1Wv2IhERERGREWjIgwODweAQIHR0tFNfVzfU2YqIiIiIyAANeXAA3QME2/9b21qpU4AgIiIiIjKi3JTgABxnLzIYDLS0tFBXW6suRiIiIiIiI8RNCw7gi/EHXQFCa1srtbW1GqQsIiIiIjIC3NTg4MrxBwaDgfb2Ni5fvqxpTkVEREREhtlNDQ6gZ4AAtu5GDQ0N1NXX0tHecbOLJCIiIiIiDENwAI7vP+g+zWlrSys1ly/R2NiosQgiIiIiIjeZ03Bm3r0Voft4hKamJpqamrC4WHBxccFoGpYYRkRERETkS2VYgwPorZuRbcpTqxWamptoam7EycmMs7MzZrMZo1GBgoiIiIjIUBj24AC6dzPqChKsncvBajXQ1tZKW1sbYMVkcsLk5ISTyYTJZMJoMGIwGhy6J4mIiIiIyMCNiOCgS+9jEazYBi0D2GY3amtro6VbEIHV/j8RERERERmkERUcdOnZkgBgxTZG2dD5pmVbq4Jtgy/CBxERERERGZwRGRx06R4kXLnM9v+ugEFERERERK7XiA4Oulw5nqCvaU417kBEREREZPBuieDgSgoCRERERERuPM0LKiIiIiIigIIDERERERHppOBAREREREQABQciIiIiItJJwYGIiIiIiAAKDkREREREpJOCAxERERERARQciIiIiIhIJwUHIiIiIiICKDgQEREREZFOCg5ERERERARQcCAiIiIiIp0UHIiIiIiICKDgQEREREREOik4EBERERERQMGBiIiIiIh0UnAgIiIiIiKAggMREREREemk4EBERERERAAFByIiIiIi0knBgYiIiIiIAAoORERERESkk4IDEREREREBFByIiIiIiEgnBQciIiIiIgIoOBARERERkU4KDkREREREBFBwICIiIiIinRQciIiIiIgIoOBAREREREQ6KTgQERERERFAwYGIiIiIiHRScCAiIiIiIoCCAxERERER6aTgQEREREREAAUHIiIiIiLSScGBiIiIiIgA4DTcBRhKkc4mcDaS5+dMa279cBdnxHKxWPDz8x/wdhUV5TQ3NQ1BieRG8fP3x8XFMuDtmpubqCgvH4ISidy+vL298fL26Xd6fYeKyEh0WwYHL/hYWObpwgSzkZPWDv7vC8EANB2/SMP2MjqqW29YXkue/zmhCYvY85f/x5k97/VYHzFjKYuf/hF/+fEaKgvOsODRfyNy5nJ+/79m3rAyXI+4KQksXb5iUNs2NTXy2cb1ZGVk9Cv9k08/S3tHB+/98a1B5ScDs+qhR4iIjBr09seOHGHHts1XTRM9OYYVq1azacM6zqSc7jVN12ds3acf09rcwv2rHmTn9q2cPnniqvseN34CTz3zHOs//YRzaWcGfRy3Cz9/fyYFBmGx9D/Yq6mpoaK8rN+B3oI772bWnLmcSzvL+k8/7rHe1dWNb3zn79mzcweHDu7vdzm+DPz8/Vnz+JNYLK793qapqZG33/g9NTU1/UofEhbGw4+udVjW3t5ORXkZe3fv4nxe7oDKPBjPv/Qy1dXV/PXDPw95XiPVk08/y/gJEzmbmsLG9X/rM11UVDQrVz8MwKu/+gV1tZdvVhFFrsttFRx4Gg38ZrwnkS4m6jo62FjbzHEjNGwrwznWG8uMUTjHeFG/sYTm49XXnZ+zqydBsXcAEJW4rNfgYCRzsVhYunwFzU1NHDt6ZGDbuliInzKF+5bd3+/gQG4eP39/IiKjBnVtARJnJpGYlMT+fbuvWrOZk5NFa2srUVHRfQYHUdExtLa2kpOdScLU6Tg7OzNm9NgBl+nLbOnyFcRNSRj09ju2beHYkcP9Tj85JpaTJ45RVFAw6Dy/bCIio7FYXDmTcpqamhqS59/hsL5reRdvb2/ipiQwKSiYmj7unb5knEuj5rJtXyajE6FhYTy8Zi0ff/QhOVmZ138wXyKBQUFMCgwiKzNjwK2lkdHRbNm8idaW3iscY+Lib0QRRW662yo4eG28JxEuJjbWNvPTC43UdlhtK8obaNhejnOsNx4PTcLzoUDaShtpL7m+5tzwqYsxOTlzdt+HxM57BO8xk6ipKrwBR3Jz+PvbuhIdO3qE/Xt3D2ofiUlJ+Pn7qwvKCNNVuzzYa+viYiExKQl/f38K8vP7TNfa0kpubg5hYeGYzc60trZcsR8XgkNCyMrMoLWlleNHj1BRXk5JcdGAy/Rl1fUQWVFefs1g7Upe3j4kz7+Duxbd0+/goK21lbq6Whbfs4S3//A6HR0dgy36l9KZ1NMU5Of3DA46l3cJDAoibkoC3gPohtTl1MkT5J/Ps/+9f68rX3n2ee66e7GCgwHw9vZmzeNPATBjZhK//On/9Hvburo6PDw8iIiIIu1sz5ZNV1cLoeER1NfX4e7uccPKLHIz3DYDkl/wsdgDg/+obPgiMOim5WwNNb/PBsDriZDrzjMicTkXS7M4sunXdHS0E5G47Lr3OZz8/P1ZtfphVq1+GJd+dF1obrY9pAykm4PcGrqubX9knEvDycmJ0PDwHuvCI6MwmUykp50FwGq1UpB/nra2thtW1tudt4/t4TErM4OsjAwK8vP7/e9MymnOpKQAtofR/jAYjWzftpWxfv5MnTZjyI5LbpympkZOnTyO76hRuHvoQbS/uu4tAIvFFW9v735vW15WxqXqi8TGT+l1fdTkWEwmExnn0q67nCI3223TcrDc05m6jg5+eqHxqunaS5poOn7R1sUo1puWs/3r63klDx8/JkQkcnj9L2msvUBJ1lEiE5dz7PPXBrW/kSB5/gJ7H/XkmsvX7G9+ve5ZsozQsFDeeetN7lp8D2Fh4bS2tXL65En2792Nl5cXdy2+l6CgYKxYyc7MZMvnnznUTkdGRZM4azZ+fuMwGKyUFBezb88eioscu0MEh4aSnDyfsf7jaW1pJiM9jT27dvGN7/w9hw7sd6hdn5IwjemJMxk1ahRNTc3k5mSxb+8u6mrr7GlcXd2Yv+BOIiIjcbFYqL54gePHjpJy6uSQnrMboSvwu1EDIXOyM2lrbSUyMqrHD2H05FhaWlrIzbEF5X2NI5gydRozEmfi6zuK2vo6Th8/TkH++V7z68/1ARgz1o+58+YzKTAQs9mFixcqOHH8eI/uT5FR0cyak8xYPz9aW1rIy8tlz66dXK65dAPOzo332ONPManzQb8wP58/v/tHkucv6FFT3bVuoEwmEzlZmeTmZDNvwQLOnTtDY8PVv1cDAgNJnncH48aPp6MDSkoKObB3L6UlxRhNJr71yv8i49w5Nm1YZ9/G3d2Dl7/5bSrKy3j7D6877O/vvvEtigsLWffpx7f0vXYzGTD0WGY0GpmeOJMpCVPx8fGlsamJvNxsDuzb1+PzPZC0V4qNn8LS5StITzvLhnWfYrG43hLXrCA/n2NHjhA/ZQqpKSn9HvsB4ORk4kxqCnPn3YGHhwd1dY7fP7Hx8VSUl3OhqqrHtv0918+/9DIlxUWkppzmrkWLGevnz8H9+9i/dzdms5nZyfOIiYnD3cOD2suXOXs2lUMH9tPR3j74kyLCbdJyEOlsYrzZxO761l5bDK7UfMI23sBp3OBrvMNnLAMMZB3fBEDm0Q34+AfjNyl20Pv8MjI5OfHo2idwc3Pj+LGjXLpUzdx587l78b08/tSzuLq5cezoEUqKioiNn8LCuxfZt52emMQDqx/G4uLCscMHOX3yJH7+/jz2xJMEBEyyp4uJi+fhR9fi6eXF6RPHOHsmlfDIKB5esxaDwfEHddE997Jk2XKam5s4euQw2VmZRE+O4amnX8Cjs0bOYDDwyGOPE5+QQE52Jgf376WhoYElS5czJ3n+zTlx18Hf3581a5/Ez3/gM1T1xt61KDwCo8lkX27vUpSRftWWgkX3LGHJ0uW0d3Rw9MhhCvLymDv/DhbcfXcvaa99fQCCQ0J56ulnCQoKJiP9HMePHgJsffeXLF1uTxcZFc0Dqx/GZDJx+OB+zp5JJSQ0nCeffgZXt/4PLB1uNTWXKMzPd/hXfh1d/YxGI9u3bsFsdmb+HXddNW305BjWrH0SLy9vTp88Serpk4wZPZa1T36F4JBQOtrbycvNJTg0zGG7sPBwDAYD/uPG4+npaV8+Zqwfnp5eZGdl3vL32s1isbgyZep0qqoqqe98SDUajax++FHuWnQP9fX1HDl0kLzcbCbHxPKVZ55nbLcZ6gaS9kph4REsXX4/+Xl59sG5t9I127FtM7/46Y8HXBlmMBg5m5qCwWBgckycwzofXx8mTpzEmdTTGIyOj1kDPde+vr48vGYtViA7K5OmpgacnJx47IknmTV7LiXFRRw+eIDKinKS593Bw48+1uN3TWSgbouWA3fXdnL9L5HXz54KbaWNWHOCMGIBBvcDGpm4jPK8k9ReLAEg9/Q2Fjz6r0TMXEZF4dlB7XO4bdqwjrsX3UNTUzP79w1uDMJAubt7kJeTY69RNOwx8PRzLzA9cSZZmRl8+te/YLXaAr7Vj6xhSsJUtm3+rLN7Si7Hjx5lx7bN9jRHDh/gmee+ypx58/nL++9hsbhyz5KllBQX8+Gf37W3OhzYt4c1jz+JsdsXd2BQENMTkzi4fy97d++yLz965BBfefZ57lh4F5s2rMN31Cj8x41jz64dHDpgm7Hl4P59JM2eQ0nRrdGX3n/cONY8/iQ7tm3tcyDxQGScSyMyKpqQ4FBycrKAbl2KzvV9PwQGBTM9cSYpp0+yedPGL67joYM88ZVnr0jbv+tjdjazbMVKLl2q5s9/eofGxgYA9u7excI77yZpzlzycrLJyEgnenIMLc3NvPPWG7R31ralnDpJWEQE7W23Tl97W/eh67+OXaxWq6229+gRZs6azelTJygvK+2RzsVi4d77llFUUMCHH7xnr7Hcv283a5/4CvcuXc7vXv0V2VmZREZFO4xPCg2P4HxeLoFBwYRFRHDqhG32qtCwMDo6OsjLzb4t7rWhMCVhKsEhoQAYTSbCw8NxcXFh3Qd/taeZMXMWIWHhbPl8o/3cAhzev5+1Tz3N/Ssf4M3Xf4fVah1Q2u4CAiaxctVqykrL+OTjD+no6GDU6NG31DXrmsp7oNPKGgy22cCKCguJjZ/C0SOH7Oti4qZgtXZw7uxZoiZPdthuoOd64qRA9u3ZxYF9e+1pk+cvwM9/PH/98H3ycnPsyyfHxHH/A6uIjZ9yQ78P5Mvntmg5cB7XxIxn8/BJ6N8MRC4+0/Dme5irpw0qP99xoYwJiCbj6Ab7spamOvLT9hI+fSkGw615Wpubmti0YR07tm2+qXNvd+/SY7VaKThvG7R3cP8+hx+j/PN5mEwmPDprGasqq9i+9XOsVitGkwmDwUBdbR1ZWen2WvHIqCicnZ3ZsW2zQ3eklpYWdm7f5lCOuPgEWpqbOX70KC4Wi/1fQ0M92ZkZREbH2PNoa2sjKCTEobb6yKGDFBXdOgPSLRZXli5fwX3LVvRrjMnVZGdl0dbWRkT0F1OnRk+OxjynegAAIABJREFUoampkbzcvqdXjJ9iO+fbt2x2uNbV1Rc5dGCfQ9r+Xp+IyGjc3T3Yuvlze2DQZfeuHVyuucTUxEQALl26hNnZmYjIKHttW1VVJYcPHqClpfm6zsnNFBgURPL8Oxz+Xc/sRl0O7NtDfX09i+69t9fayIjIKFwsFg4e2IfZbLZfE6PRxOlTJ/D29mbc+PHkZGdhtVoJ6Ww9MJpMhISGcvZMKoWF+YSFf/G5CQkLo7ioiMbGplv+Xtu/dw+bNqy74d+nk2PjmDVnLrPmzGVm0ix8R43m4sULtLV98R03dcYMCvLzHR5AAaovVbN39y7GjPVjYkDAgNN2GTPWjwcfeZSay5f56MP37DP23ErXzMVi4aWXv85jTzzFmrVPDmofZ1NP4+fvz5ixfvZlsbHx5ObkUF9f1yP9QM91bW0tB/df8V04JYHCgnxKSoodvgtzc7OpqakhenLMoI5FpMtt0XJwOMP2YHP31AZ+uf7aMz+4jLb9ELXVlQwqv66Bx6MnRpG0/Bv25U5mC+7eY5gYkURR5qG+Npdu2traevTzbOocDFt98YLj8s4fWLPZDICTk5lZc+YQnzAVT08vOjo6uHihivb2NpycbB/tUaPHYLV2UFbas9azuLjI4YF0zNgxOLu48PVvv9Jned3c3Kmvr+OzDeu4d+n9/N03vk1ZaSl5OdmcOXOaS9Ujs5/61cQnJNDc3HxdY0xaW1vIy8kmIiKKLcZNmM1mgkNCOXsm5aqz3YweM5rSshJaW3tOBVhQ4DhLUn+vj99YP6zWDooKe07DabVaKSwoIDQsAoBDB/YzYWIAK1atprGhgfzzeaSnnyMrI71HLelINikwuNcxB9dbe9jS0sLundtZdv9KYuLiye1sFeoyZoxtStpH1z7R5z68fXwpLSmhtKSEkNBwDh88QGBQEE5OZnKzs7FYLCxYeBdOTmYMRggICGTPrp2d+Tffsvfab3/9S/t3W1bmjZ3u+YP3/mSfrchgMDB6zFhWrlrNY088wx9+/xuam5rx9fHlbGpKr9sXFNi29fMfR1lpWb/TFhXaHu49PT155LHHsVhcKczPdxiTcitdM39/f/t7KfzHjcPb23tA4w4A0s+lseieJcTFxbNr53YmTJyI76hR7N61o0daJyfzgM91VWWFw3eR2WzG29sbb29vvvXKP/S6H034INfrtggOAD4+4M6Dc+tZPK2BrSfd+kxndPbCK/ZxOlpqqT+/a1B5RSba+izHzXu01/URSctvq+DAxWIhIjJqSJopO64yRuRq6wDuX/kA4ZFRnDh2jPz8zi9VPz8Sus2wYgAG8oxXVVnBti2f97m+scn2I3gu7Sx5ublEREYSEhpGYtIsZs1N5rMN63qd1m4k2793z6Cnsu0uI/0cEVHRTAyYhJe3d+csRdeaqWNgfWP7dX2u0d+2ew14S0sz77/7RyZMnEhYeARh4ZE88OBDlJYU8/67f+oxNetIsH3bZvsMYV0B85mUUxQWnHdI13SDaqvTzqQyddoMFtx5NwXdps/sYrVa+fDP72K19h4EVlXaBmTmZGWSfMcCzGZnwsMjKC4uorGxgZzsTO5efC9BIbYZ5EwmE9ndpuO8Ve+17g+ZQ9kSa7Vaqaqs4JO/fsjzL71MfHwCx48d6VrZ6zYG6xf3gP126EfaLn7+/tTX15Gacpr4KQlERkWTmZFuX3+rXLPy8nIqysvx8/cnKzNjwIEB2ALozMwMJsfFs3vXDmLi4mlqaux1StnBnOu+fgfPpqaQmnKq13W9VbaIDMRtExz8ar0Pi6c28IOnKymuGkdaoUuPNEZnL/wX/RSz5wSqT7xGR8vA31Y4LmQqXqMnsu2dfybzyPoe6xc99QPCEhax54P/pL311umWcKW7Ft3LmdRTVJSX89jjT+Hl7TWgN60ONYvFlfDIKE6fPMn2rV88LGZnZjB6zFhCw2zdFy5cuIDRaMR/3HjKSh1bigICAhweFC9UXSA8MpLSkp412U5OTg61MWazmaamRlJTTpOachoXFxceenQt9yxZyrm0s7dErXNzUxOf/PXDq77HYCCyszJpa2sjMjIaH18fGhsa+pxxqMvFCxcIj4jEyclMW5vjOQ8MdJx6s7/Xp7KyAoPByMSAAHvtWxeDwcDESYFUVlbYl5nNZkqKiykpLmbv7l32tz5PnT6Do4cPDvQ0DLne7sGamppBPdj0h9VqZfvWzTz59LPMmjPXYd2FqkoMBgPtbW09uowYTSasHR32eyErK5P5C+8kKDiY0LBITp86DsCl6ktUVVUSERFBe0cH1RcvOLQa3g732s1wucb2e+bq7kZrayuXqi/ZZrXq1le9S0BgIACVFRUDStulubmJv7z/HhcvXCAgYBJ337OE83l59q54t8o1a25q4q03fjeoFoPuzqamEBMbR3BoKJNjYklPS7OPYepuMOe6t31cvlyDh6dnr9/dV/5WiQzGrdk5vhdFVWa+/+EovNys/O27pfzg6SqSoprwcuvAMj4Rr7i1TFz1Pq4TbH2NnTwmDCqfyJnL6Whv5Xzqrl7X55zagrPFg6DYBYM9lGG3dPkKEpOSWPP4k6xa/TB+nU2vq1Y/ct1902+UrlpKo9GxpmX8hIlERkXb/87KPEdrawt33r0YJyezfbmzszML71rksG1qyilcXCwsvHuxQ9Bgsbjy1DPPcc+SpYBtJpyvfesVwrrN69/c3ExlRTlmZ2d7l6aRrDA/n9de/dUNCwzAVoOWl5tDVEwMwaFhpKefu+YLtFJTTuPs4sLdi+9xOOc+vqOYPXfeFWn7d30y09NpbGxg0T332bsMdJl3xwK8vb05ddL2YPrwo4/xyJq1mLrNslTY+VZgN7e+WyCH02OPP8U//p9/vea/xzpf7nQjlJWWkJpyiqnTEx2WZ2Zm0NzUxF2LF+Ps7GxfbjAYuG/pcr7y7Av2c1tVWcHlmkskJs3Gx9eHnKwvuihlZ2YSGhZJSEg4Wd1qXG+He+1mmTlrFgClJbZKkNOnjhMUFMKUhKkO6by8fZi/4C4uVFXZu94NJC1AUWERFeXltLW1seWzTXh6erLgLtusVrfiNbvewDr/fB51tXXcu2Qprq5unEntu5V9oOe6N6mnTxEUHNJjliQ/f39e/ua3+3z3gkh/jby79Dr8db8n5wqcefVrFaxOrmN1ch3vn7mLN+ttc2h3tNRSfeI13ILuwjNyBQCVe77b7/0bjCbCpy+hMOMgLY21vaYpSNtHa3M9UTOXkXtqy/Uf1E22dPkK+0BGi8WViG4P2t4+Pqxa/TDvv/vOcBXPrrm5mcz0c8QnTMXJbKairIxRo0cxOdY2t/So0aMAaGxsYsvnn7F0+QqeefElMs+dw2AwED15MvX19Q4PrwX5+Rw9cpiZSbMYP348OdnZOJvNRMfG4eJiIe0z27S1xUVF1F6+zAOrH+HsmRQuVl1gzNixxMZPIf1c2ohv0i0vLx/U/Pf9kXEuzf6ujO7vMehL/vk8Tp44zrTpM/DzH0duThaubm7ExsVTUV7BpM6aNOj/9WltbWHDuk9ZtfoRnn3xq5xLO0tLcxNBIaEEBEziTMpp+0vZMtLTWbJsOV959nnOpaVhMBqIjY2jvb19RHV/6K6/U5Rez1Smvdm9cwdRUZMdKgiam5r4fON6Vjy4mude+jvSz56lpbWVsIgIxo0bz45tWxxqULOzspieOJOaS7bWAvvy7Exmz00GcAgabvV7bahMnTadkM7WUYPBwKhRowkLj6CoqND+rpEjhw4SHBLKkmX3ExEdTWlxMe4ensTExmK1WvnrXz5xmB2sv2mvlJ+fx9nUFKZOm0Fa6plb7pp1vTck9fRpPtu47tob9KKjo4O0s6kkzZ5D9cULlBQX95n2es51l0MH9hMcEsbylQ8QHRNDWWkJ3t4+TI6No76ultzs7EEdh0iX2yo4AEgrdGHh/57E4mkNTA5ooaStiery12irK6H+/C46Wi5Tc+Y9xi97fcABQtDkZCzuPuSc6Puhv72thfNndhM2dTEubl435JhulrgpCXh7+1B4ldpkAwbipiSMiGnSNm1cR21tLdGTY4mKnkxFeTmffPQhQcEh9uAAbE2+jQ0NzJk3j+mJM2ltbSEjPZ19e3bytW++4vDCmJ3btlBRXsaMxJkkzZ5DW2srhYUF7Nuzm6rOriitrS28987bJN9xBxERUcTGTaH2ci2HDuzrMavESDSU/Z+zs7Job2+nsaGR4sL+zUyy9fNNVFaUM31GIrPmJHfO/X2IjPQ0nn/pZYe0/bk+AHk5Ofzp7T8wN3k+cXHxmJzMXLxYxecbN5By+osXMaWcPkljUwNJs+bau8yUFBWxccM6KitGRhe6Kw104LiLi+P4hMFqbGhg397d3L34XoflGRnpvPfHPzJn3jzip07FaDBSWVHOx3/5wGHsANiCgOmJM8nJdlxeWlxMfX0dJpPJodb0Vr/XhkpUt9lorFYrdXW1HDl8kP17d9sfLLvGgiQmzSY+IYGgwGCamprJyshg/7491Fy65LCP/qbtzY5tWwkNi+DeZct46/Xf3TLXLDAoyP5CwfiEBA7s2z3oVoQzKadJmj2HM6mpV013vecaoL29nQ/ee4dZc5KJjYsjNCzcNgbk9En279tDY+PVX1ooci2G4JDwkdH57yYzOnsxftnruIyOpDZz3YBaEG4XgUFBrHn8qUEPSO1qZeg+K8dIZDAYcDI72afa6zJq9Gief+llNm1YNyKCnRvpRl3b99/94w3teiQD5+3tzUtf+yZNTY0cP3pkwNvPmJmEAQO/+OmPh6B00qXrLdX9vWeu9x6V6+ft7c3Tz72Ii8VCTc0lfvvrXw13kURGhNuu5aC/OlouU7rx+UG1INwuysttL32ZMXMmLi4uNDf3v2bRy8uH8MhIamoujejAwGQy8fTzL3Gp+iIf/+UDe62a0Whk3h0LaW9v53y3l8jcLm7EtQUUGIwANTU1bNqwjqXLV5A8f+BjmZqbmti+7dbr4nirio1LYNIVg+l74+Vlm3a7pmZkTe/5ZVJTU8Nbb/wOv3Hj9F0n0s2XtuWgS1cLQsuF9C9dcAAQERXF0kG+BKum5hKffPThiJnBqC8zZ83hzrsXUVVZQVZmJkajkZDQMPz8/dm9czuHDx4Y7iIOieu5tsBt2aJyK/P29sbb59rvcblSV6AoQ6t7LXR/VXSO/9H1EZGR5EsfHIAtQBjMtKZy64iMiiZx1mzGjh2LyWiioqKCI4cPkpl+briLNuRss00NLEBQLZrI4PT3fmtqahrxFSsi8uWk4EBERERERIDb6D0HIiIiIiJyfRQciIiIiIgIoOBAREREREQ6KTgQERERERFAwYGIiIiIiHRScCAiIiIiIoCCAxERERER6aTgQEREREREAAUHIiIiIiLSScGBiIiIiIgACg5ERERERKSTggMREREREQEUHIiIiIiISCcFByIiIiIiAoDTcBfger38qzPDXYRBe/UbccNdBBERERERO7UciIiIiIgIoOBAREREREQ6OQUEBQ13Gb60dO5FREREZCQxBIeEW4e7ECIiIiIiMvzUrUhERERERAAFByIiIiIi0knBgYiIiIiIAAoORERERESkk4IDEREREREBFByIiIiIiEgnBQciIiIiIgIoOBARERERkU4KDkREREREBFBwICIiIiIinRQciIiIiIgIoOBAREREREQ6KTgQERERERFAwYGIiIiIiHRScCAiIiIiIoCCAxERERER6aTgQEREREREAAUHIiIiIiLSScGBiIiIiIgACg5EZAQzGo3ce98y3D08h7soch1Cw8OZkTRruIshIiL94DTcBbjRxvr588LffY2G+np++dMf09HR0SPNS1/7FtXVF/jwvT8NQwlvroTpMxjlO7rH8pqaak4cO2r/28fXhwV3LiI0LAKjyUhxYSF7du2gpLiox7aenp7ccdciQkPDMJvNlJYUs2vHdkpLivtVJicnJ2bNTWZKwlTcPby4eKGSwwf2c/ZMaq/pB5rf+AkTWXjX3YyfGEBrSwt5uTns3rGN2trafpVvqPOLjYsnaW4yo0ePpb7uMqkppzm0fx9tbW39Kt9IcN+yFcROSeB//vs/hzSfBXcuYlriTFJTTlNf98X5vN5r3B/ePj5Mn5HU67pTJ49RffHiDcvrVjNrbjJ3L76XX/zkxw7XpS+hYREkJs2iuLCAstLSm1BCEREZLJOP76h/H+5C3EizZiczKTAQs7MzRUUFvf6AJybNpqmpkbOpKcNQQpuIqGiioidTVFgw4G0ffPhRVj38KBcuVFFZUXHVtCtXPUTU5MlMCgx0+Ofi6krKyRMAjB49mqef/ypjx/qRlZVJZVkZQcEhTJ+ZRGlJicM59Pb24SvPvUjApEDO5+ZQXlFOYFAwiUmzKCsp4eLFC1ctj8nkxCOPP87UaTOoKC+nIC8P31GjmJ44E6PJRH5erkP6geYXFhHJ2qeexuJqITMjg4b6eqJjYomNn0JGehrNTU1XLd9Q57fgrrtZvGQpzU1NZGdmYDSaSJg2nYmBk0g7cwartWcwOxJFREbh5z+OA/v2fLHsOj7TvfH1HcUDqx/iyMEDpJw+aV9+vdf4Sn3dT6Fh4Sxecl+Pe2dSYCBZmelcqq6+Icd5KwqYFEhoWDiHDx6gtaXlmukLCvKJjZvCpMAgUk6dvGZ6EREZPrdVy4HBYCA2Po6Mc2lMCgwiLn4KudnZw12sXkVERTM5JoaD+/cOaLvoyTFEx8T2O72Pjw/79+xm987tfaa5b/lKsFp5/bVXqa62BQKu27bwxDPPsWzFA/z65z+xt8Asf2AVFlcLb7/xe3tNuqurK0888xwrH3qIV3/xMxobG/vMa+78+YSEhLF54waOHzsCgMFg5P4HHiB5/h3k5+Zy/vwXAcJA8rNYLKxctZqLFy7wzltv0NjQAMD48RN4/OnnWLFqNe+8+cZVz9dQ5hcYFEzy/AWcTU1h3Scf2wOBaYmJ3LdsBfPuWHDV6zTSDfYz3ZfkOxbQ1tbGgW77uxHXuLur3U8+vj50dHTwo+9/r9cWSOm/ttZW9u/dxfKVDxIcHOpwj4uIyMhyW405CAgMxMvbh7OpKaSlnSEqOgaz2TzcxbphXN3cWLLsfoqLCvuV3t3dAyezmYvVfXd/cHVzJTA4mONHj9gDA4DGxkb27dmNp6cnkwKDAAgIDCIoOIT9e/Y4dLFpbGxk498+wcXFQmLS7D7zMpvNzJqTTF5Otj0wALBaO/hsw3oaGxqYt2ChfflA85uRNAuLqyub1v3N/tAIUFpawr49O5nUub++DHV+yQsW0NjYyKb16xxaCE4eO0ZOViZJs+dgNjv3Wb4vE2dnZ2Ljp3DyxHGaugWb13uNu7vW/eTt7Uvt5csKDG6QMykp1NXWMX3mzOEuioiIXMVt1XIQF59Ac3MT2VmZ1NfVkThzFhFR0aT10pe9o72DsWP9uPOeewgKDKa1tZXc3Bz27NzGpepLDmld3VxJnr+AqOgY3D08qL1cw5mUFA4d2EdrayvwxViHDX/7mJRTpxy2f2TtE/j6jua3v/4FAYFBPPXMc/Z1/+ffvgfA22/8juKinv37u1uydDmtba3s2LqFJ7vtoy8+vj4AXLp4EYPBgKurG01NjQ4POy4uLgA01Nf32L6+s/+2q6srAJGRUQCcOnm8R9qS4mIqysuIiIpi7+6dvZYnMDgEZ2dnTp7ouX1raytnU1OYPjMJi6srTY2NA84vIjKaqspKiop6dms5ffI4d969mPDIKPLP5/VavqHMz9nZmeCgEE4cP0Zra89uGKdOniAsIpKgkBCyMzN6rHf38ORbf/8PbPjbxzg5mZkzbz7e3j68+/ab5J/Pw8fXhzsW3k1IWBhmswsXqso5cvAQZ884dp2Lip7MnHl34OfvT0tLM3k5Oezavo2aGttn/jv/8M9kZ6az/m+fOGx3tT7m1/pMG41GZs+dR8K0aXh5+1BXV0ta6hn27tlJW+f9c6WwiEhMJhPp59Icll/vNe7uWveTj48v1ZdsAbOzsxmDwURz87W7LPX3ePt7zQCiY2JJmjMHf79xtLa1UlxUxL5dOyktLXHINzFpFgnTpuPrO4rGxkZycrLZv3uX/fqCbcxVSVEBRw4f5O7FS5g4KYCWlhbOnTnD9q1baG//YuyL2WwmecFCYuPicXdzp6qygj27d2LtsA74mDs6OsjKSCduyhRMJieHfEREZOS4bYIDk8lEdEws6efO0dbWRlFRITWXLhEXP6XX4MDTy4OnnnuByspyjhw6iIeXFzGxsYSFhfP2H17n4oWqznRePPXM83h4epCelsbFCxfwHzeeeQsWEhEVzTtvvtHrw15fai5Vs33rZibHxOHn72/vRtL9x7s3UdGTiY6J5c/v/JGWluZ+5eXj4wvA5Lg4Hln7OC4uFlpaWjh6+CB7d+2ko6ODmkuXaWxoJComhhPHjzoEDpNj4wC4cMHWz95/wniqqy/2GkgAFBUWMm1GIgaDsde+8+PGjwfos6a2sLCAxFmzGec/nvPncweUH1gZN348KadP9Zq2saGRC1VVTJg4sdf1Az2+gebnN248BqOx72MvyAdg4sSAXoODLnHxUwkMDiY/L5cLlVW0t7UzevRonnz2eYxGE2lnUmlsaCAoNISVqx/Cd/Qo9u3eBdg+Q6sffYyKsjIO7t+Li4uF+ISpBIeG8rtXf0VjQ9/dwa7mWp/pRfcsIXHWbLIzM0g5dYpRo0cza+5cxk+YwHvvvNXrPkNCQ2lubqa48IvzZTAYrvsad+nP/eTj60NDfT1PPvMcAZMCMRgMlBQV8fmm9VcdVNuf4+3vNQNYuGgxc5PnU15WxpHDB3FxdmFyXBxPPvMcf37nbQoLCzAajTzy2OOEhkdwPjeXjHPn8PDyIjY2jqioybz7xzepKC+z73P0mLE88fRz5GRlcuTgQUJCw0icNZv2jna2b9kM2CYOeOLpZxg3fiLZWZmUl5Yyxt+fhx5dS2F+/oCPGSAnJ5NpiYkETJrUrwBORERuvtsmOAiLiMDV1ZWzKbZaN6vVytmzqcyek4yrm2uPB5/xEwI4fHC//YcQ4Oihg3zl2ee5b9n9vPvHNwG4b/kK3Nzc+OMbrzvU0oVHRvHwmrXctWgxmz/b2O9y1l6+zOED+xk9Ziyjx4zm8IH919zG1c2V+5av4OTxY5zPy8F/3Lh+5eXu4QFA/JQEDuzbQ31dHZFRMSTPX4CbqzufbbR1b9m/dzeL7l3Cgw+v4cC+3bS1tROfkMD0xJmUlZZSWVFu25+bO3V1dX0fW+1lDAYDbu7uvc5g4u7mDkB9H/uo62ypcPNwH3B+7e1tGI3Gq86cUldfi6eHd5/rhzI/d3fbMdX1kb6xoYGOjg7cOs9RX4KCg/nzO3906LP9xFeepaOjgzd++xq1l2tsC3fSOY5hIWdTU6i+eJHJsXE0Nzfz5uu/s9fanj5xnPCoSNrbB9915lqf6clxceTlZPPhn9+1L8vKzMBkNGEwGLBarVfuEi8vb2qqqx2CTBeL5bqvMfT/fnL38GDU6DHkZmex/pO/4uXtw6w5yTz59HO8/ttX+5ytqD/He9/ylf26ZpOCgpibPJ/TJ0+waf3f7Odq/949PPPiSyRMn0FhYQEzZ88hNDyCzzau4+SxY/Z8D+7dw5PPPsfKB1fz+muv2refEBDA5xvX22cs27NrB0888xwzZs5i57atdHR0MHfeHYyfEMD6Tz8mtVtAFj05hgcfWTPgYwa42FnR4Ol19WskIiLD57YJDuLiE6irrSO/20PT2ZQU5ibPZ3JMnMO0nQB1tXXs2LrVYVlFeRlHDh0k+Y4FePv40NFhJSw8gn17djkEBgDZmRmcTU0hfup0tm/bMnQHBtx733JaW1sdApn+OHr4EDU1NdRerqGk2NaHPuXUKZatXMW0xESOHD7Ahaoqjhw6gNnZTPL8BURGRwO2LgAGg4FdO744RwaD4ar5da03GHo+7NlWXKPABsdkA8nvWrsGMFgNfZdtqPPr5QG4942uvjot7axDYODt40NgcDB7d+2ktaUZi8ViX3fsyCGmJSYSNTmGQ/v3celSNc7OzkRGR5Oedhar1UplZQWVlVef8ep6XbpYzRg/f8aNH2+vcU9PO3vVbdzcPXoEajfiGkP/76ff/vqXREfHOrSopZ9L44W/e5kFd97Np3/9S6/bXet4B3LNEqZOp7m5mS2fbXQIourr63jjtVftg+OnJ84k/3yeQ2AAUF19kT07trN0xQMETAq0t1BdvlzDyeNfpLVarWRnpjNpUiCeXl7UXLrElKlTycvLcQgMus5BVmYGEZ3d8PpzzF26rqmHp0ev505ERIbfbREcODs7Ex4RSfWlau648y6Hda2tLcTFT+kRHBQVF/ba9aUg/zzJLGDMWD/A9kB4Pq/3mTXy8/KIm5KAr++oG3QkPUVNjmFybBzvvfPWgLovge0HP+OKPtsAh/bvJWHqNMLCI7hQZes+tX/Pbk4cO8K4cRMwmUzcv2o153NzHGZ7qquvs3dV6o27uwdWq5X6uoZe19d3dtexjdu43Ov2tnQNg8jPirWj46ovy3L38Oizy9BQ51ffOXjWo4/0rq5uGI3Gq5YPoKKszOHvsWNsn9P5C+9k/sI7e92m65gO7NvLxIBJrHroERoa6jmfm0v6uTQyzp0b0ilUP9u4nofXrOXZF/+O6osXyMvN5WzKaQqvMuVpR0cHJpPJYVlTU9N1X+OB3E91tXUcO3rYYdnFC1VknDtHWEREn9td63gHcs3G+o2ltLTYPrapu67AwMlsxtd3VI+H+C7nO7vv+I0bZw8Oqioqe7TYNHS2rjo7u2A2m/Hy9ul1fBBAQV6eQ3DQ32tsMtl+cjra23vdr4iIDL/bIjiIionFyWxm7Fg/xnY+1Hc3cVIg3t4+1+zXD0C32mN7BWRfFeH9qco85xTpAAAgAElEQVQEjP1NeAUXFwtLli2n9nINwSGhBIeEAuDR+RA9OSYW31Gj2L9ndx/lM+Dh4dHjxVCXa2zdGFzd3ByWNzY0kpebw6NrnwArPbpLlZeWERwciqubm8NMMV0CJgVSUV7e54NmeYmtRnHixADSL/cMWgImBWK1WikvKxlUfmVlJUzso7+5xdWV0WPGcPTwoV7XD3V+FeVlWDs6mDgxgDMpp3vuO3ASAKWlV3+RXEcf53b75s8pK+u9H3zX9W9pbubdt99kYkAA4ZFRhEdE8eDDj1JSVMS7f7z6w7LROLjPMNiO/bX/7xeEhIUTFh5BZFQ00xNncuzoYbZs6r1LXn1dLb6jHF/eZ7Var+saD/R+8vTy6jWIvXz5Mi4ulj7H1vT3ePtzzfqj68r01j3Ltr7ntevrc2Tf5v9n777Do6rSB45/Z9J774H03oAQCL33joLY9aeuXdfeVnddd111xS66unbFQpPem3QILZCekEZI73VSJr8/ZjIwZBKCCwTh/TyPj8m559577rkz4b7nnnKRt7un12yt7TJY2033PSGEEL3rmggOIqOiqays5JMP3u20zd7BgYcee4KIqGi9BZu8vfoY/Me9r3bazvKyEtTqdtrb2+nr66trcTtXHx9fWlqaqaqs0D1oW1jo9xlXKBQ4u7jQ0nLxLWW2dna61vRhI0Z12h4SFo5fQFCXwcGC2++Advjxu2/00p2dXYCzQcK5+g8cSEBQMKtWLOvUApuRnkr80GHE9B/A/j279bZ5eHji5u7eZVkA8vKyaWluJqb/gE6z0BibmBAZFc3p/Dxdi+jFni8jPZ2Ro8fi6eXdaWXnmH4DUCgUZKZ1Pdj3cp6vWaUiLzeX8Mgotm3Z1KkluF//WJqbW8g5dXHzv5eVlwKa+jM0wNPY2Fhv5WUTExMKTp+m4PRpdm7bSlhEJHNunM+AuDgO7N2DStXUKWgEcHFxu6hynUszgFvTFS8zPY3NG9YxYdIUBg4aTOKxYxQZWHm6oqIC/8AgTExM9YKW/+UeX8z3ycfPj1tuu5Pvvvqy08xIzs7O1NXWdRkEX+h6L+aelZaUEhKmmZL5/M+MmZk5KlUTLS0tVFZW4uPnZ/D719dH8zettLjYYHkNaW5uobamBh8fP/Zg4Jh++tPF9vQeu7prJiW4nleXFkKIq90ffp0DK2sbfHz9SOuiD3NVZSXFRUVEREfrpVvbWDNm/AS9NBdXN+Lih5CXk0NVZRU11dVkZ2UyZNgIXN30By36BwYRERXNiePHaWnR/EPa2tJCcEioXr7YgYOwtbPvVK4WVTMmJqaYmna9DkNpSTGvv/pKp/+++M8iAH5dtoS3//Val/ufzsvDzz+AsMgoXZqxsTGjx0+gra2V9NRUvfz2Dg6MnzCZzMx0g63b+bm55OfmMmLkaN3MQ6BpsZ02azYqlYqDB/Z2WZ7m5hYO7NtLQFAw/WMH6tKVSiWTp07H0spKbxrUiz1fwsEDNDU1MW3WbN30qwCubu6MGD2G/Py8bhdfutzn271rBxaWlkyZPgOl8uxXL6bfAAKDQzh0YC/NPVht9lxVlZXk5mQzeMhQnF1c9LbFDIjl0See1r1NW3Dr7dx82x26rh0AeTk5AFhqg9rKinK8+/roXY+7h4du5qruGPpMW1pZ8fDjf2bU2PG6NLVaTZ62u4mlgUAEICszHSMjI3z9/fXSL7bOff0C8PDwBC7u+1R0ppDmlmYmTpmit/aEn38AAUHBJCd1ngGtp9d7Mffs+LEjmJmZMWHKNL0xMRYWFtx17/3MvmEeAMeOHMLX15+YfgP0jmdnZ8/IseMpKy012MDRncTjR/H19ycySv9vZ0hoGIFBwRd1zR2CgoKpq6ul+LwxXEIIIa4eRvYOjn/r7UL8L/oPiCUgKJjNG9frZrs5n6WlJeGRUaSlplBfX8fAQfFUV1UQEBhCQGAQtnZ2RERFM2HyNNpa21j282Jd63VeXi4RUdHEDYrHwdEJFzc34gbFM3LMWMpKS/h1+VLatP1nzS005/H188fWzo4BA+MYEDeY0pISjIyMOHxO/2VTUxPCI6Po09cXVzc3GhsaupzJ5nzW1tYMGBhHakoypSVnB5POmDWHKTNmkpmWSmNjI4UFBQQGhRAbNwgPD098fPwYN3ESHp5ebN64vlOrZWzcILz69OXnH76nWWV4esfcnGwiomOIGxyPs4srAYGBTJg8FXt7B1YsW0LxOX3izy8PaKYD9e7bh7hB8fTp64OHtxdjxk3APyCQ/Xt26w2SvNjztba2UlpcrJvr3cnJifCoaCZMmoyqScWSH7+nqUkzT72JiQn33P8g/foP4Pixo7ouGZfrfADVVVUYGRsRGzeYkLAwnF1dGRQ/lEFDhpKXk8P6Nau6XHDL1NSM+KHDyD6VpTe9Z0edxvTrz4C4wTg4OODq7s7g+GEMGTacU5kZugXnjI2NiR0UT0hoKBYWlvj4+TFh0mRMzUzZtGEd9fV1NDU1EdN/AKHhEVhZWREaGs7EyVMpLCrEzs6OA/v20tLcTFBwCK5u7npv4wx9pisrKnD38GDAwEF4enlhY2NDSFg4w0eOpra2lu2bNxq85prqagYOGoypqanewNaLqXNnFxfuuvdPREXHcGD/vi7r1tD3qa2tldrqagbEDSYyOgYnZ2f6DYhl5JixVFdVsWr5Ur03Mh1aWlp6dL09vWc11dUYGRsRNzieoKBgrG1tCQoOZdK0GVhbW7F543qqq6soyD+Nd98+DIofioe3F/YODkRERjN52nSUCiVLf16s+/s4cFA8TU2NJJ3QX0/B3cOT4JBQjiQcoqG+noLTp/EPDCI2bhCu7h44OjkRO3AQI0aPoSA/Hzt7ew7s20tDfV2PrtncwoLJU6eTkpTU7XS9QgghetcfPjiYNGUaarWabZu7njGovr6egYMG09zcTPapLAYOiqe4sJANa1fh4+dHREQUjk5OZGVmsHLZEirOeeWtUqk4mZiIqakp/kFBBAQGY2JiytGEQ6xdtUKvpTc/Lxczc3N8fH3x9fWnSdXEquVLcXB0xMbGVi84KCsrRWmkxD8gEA8vb06eON7jfsZdBQdjxk/Czt6enOxsysvKUKvVJJ88gampKX7+gXh6e1JdXc3G9Ws5aWDwYn5eLilJJwx2N9LVR1MTKUknsbS0ws8vAFd3d4qLili1Ylmngdvnlwc0qyGnJCfR1tZGXx9f+vr4UF/fwLYtmzmwr/O0rhdzPoCKinJOZWXg4uKKX0AgtjZ2ZKSm8OvyJXrXZWVtzaix47G2sSXhwH7dg97lOl+HnOxTVJSX4+ntjZ9/AEqlEQkH9rNx3RqDD5sdugsOmhobSTp5EisrSwKCQvD3D0ChVLJvz262bt6oC3yKigopLi7C09OLkPBwvPv0pbSkmNUrV1B0RtOSW1FeTkNjA17efQkIDMLU3IztWzZRWlpCcEhot8FBV5/pjPQ0mptV+PoFEBIWjrOzC5kZ6axasUxv9eNztbe3Y2xswoC4QSSdSNTL19M6V7e3ExoeQUVFBce7GFgLXX+fSkqKOVNQgLunBwGBwVhYWJF0MpGVy5fQ1Nj1Ymg9ud6e3jPQfGZKS0vw9PImJDQMF1dXCs8UsPrX5eesm9FOUuIJmptV+Pj6ERwciq29PZnp6axcsYSy0jLd8XoaHKjVapJPHMfIyBh/f38CAoNpb4fNG9dTXl6m93noyTUPHjoMX/8AVq9YpmssEEIIcfVR+PoF9nCORXG1CwoJZdyEiXy26KMuW0mv5/Kcb/ykyZibW7DmvNWAxdXB3Nychx57grzcXJb+vLi3iyP+Bza2ttz34CNkpqexasWy3i6OEEKIbvzhxxwIDYVCwYhRY1i/ZvVV8SB+tZXnfDa2toSEhbN188WtHSGunKamJjatX0twaCiBwcEX3kFctcZNmIT6nNWXhRBCXL3kzcE1xMnZWdd952pwtZXnXAqFAkdHR8q1K7aKq1doeATpqSlXZZApesbG1hZ7e4eLHhQthBDiypPgQAghhBBCCAFItyIhhBBCCCGElgQHQgghhBBCCECCAyGEEEIIIYSWBAdCCCGEEEIIQIIDIYQQQgghhJYEB0IIIYQQQghAggMhhBBCCCGElgQHQgghhBBCCECCAyGEEEIIIYSWBAdCCCGEEEIIQIIDIYQQQgghhJYEB0IIIYQQQghAggMhhBBCCCGElgQHQgghhBBCCECCAyGEEEIIIYSWBAdCCCGEEEIIQIIDIYQQQgghhJYEB0IIIYQQQghAggMhhBBCCCGElgQHQgghhBBCCECCAyGEEEIIIYSWBAdCCCGEEEIIQIIDIYQQQgghhJYEB0IIIYQQQghAggMhhBBCCCGElgQHQgghhBBCCECCAyGEEEIIIYSWBAdCCCGEEEIIQIIDIYQQQgghhJYEB0IIIYQQQggAjHu7AEIIATBh0lTi4uOpqqpi2c+LKS4q6u0iCSGEENcdeXMghOh1dvb2xMXHA2Bvb0/c4CG9XCIhhBDi+iTBgRCi16maVHq/V1dV9VJJhBBCiOubkb2D4996uxBCiOtba2srxcVFWFvbkJuTze6dO2htbe3tYgkhhBDXHYWvX2B7bxdCCCGEEEII0fukW5EQ4qrh5u6OublFbxdDCCGEuG7JbEVCiKvCjTfdTHBoGE1NjSz7+Sdyc7J7u0hCCCHEdeeaeHPw+Zdfc8+99/V2MS6akZERH3/6GeMnTuw27Y9k4sTJvP/RIj774iv6x8b2ShmUSiVffP0td9x59xU/95wbbuCLr7/Fzs7+ip/7j8zN3Z3g0DAAzM0tiIrp18slEkIIIa5P10Rw0FO+vn588fW3F0y7UoKCgzE3NyfpxIlu0/4orKysmL9gAWWlJXzy8YfknDrV20USfxDVVdU0NTXpfi8uljUOhBBCiN5wXXUrCggK7FHalRIVFU15eRmFhYXdpv1RWFlaoVAqOXL4MEePHOnt4og/EE1Xoh+JiulHcXERh/bv6+0iCSGEENelayY4aFOriYyK5oZ58/H09KShoZ5tW7ewZtUq2tvbeeKpZ4iMigLgi6+/5VRWFg0NDZ3S/vnaq7zyt7/T0trCql9XMG/+Ajw8PVE1qThy+BA//bhY18JpZGTE1OkziI8fiqOTIy0tLRScPs3aNas4qW35t7a24f2PPubQgf18+skivTJHRkVxMvGEwbRRo8dwx11389eX/8Lp/Dzd9rcWvoOTkzNPPPYoNTXVgKYbzYcff0Ji4nEGDY5n8Q/fsXXzZt0+99z3J4YOG86niz7m0MEDuvTHn3wKVxc3zM3NOXUqk48//EC3bfjwEdx9731s37aV77/9Rpc+eepU5s1fwJN/fpTqqmpd+vSZM5kz90YA5t44j7k3zuM/ny7i4P79+Pr5M3P2HIKDgzA2NqGsrIw9u39j4/r1qNVq3THMzc2ZNWcuA+PisLa2oaS4iG3btrJz+3ZdHjMzM2bOmkNsXByOjo7U19dxMjGR5cuWUllZqVeX6nY1Q4YOY9qMmbi6uFBdXc32bVtZt3aNLo9CoWDChEkMHzUKNzc32trayM3JYfWqlSQnndQ7XnR0DFOnz6Cvjw9KpZKSkmJ2bt/B1i2b6I6XpxcvvPwy2adO8d47C2lrazOYz9XVjRvnzSc0LBwjIyW5ubmsWrmC1JQUXR5LS0tmz5lL/9hY7OzsaWxsIDUlhWVLl1KibW0Pj4jkqWee5Z233yI6uh+DhwzBzNSUrFNZfPnfz3FydGLeggX06dOXmpoaNqxdw/bt27q9hishNydbxhkIIYQQveyaWOdg5qzZtLQ0079/LFs2b+LAvr3Y2dkzavQYiouKOH36NFlZGTg6OuHh6cmrr/yFgwcPknj8aKe0+vo6hg0fgaurKz4+fvzw/bcsX7qUsvJSZs6ag5urKwkJhwDNQ/C06TPYvGkjG9av40Ticby8vJg5ew7Hjx6huroaExMTBsXHk5eby4nERF2Z7R3smTd/AWvXrKaw8EyntMyMdCZMnMSZgtNkZ2u657i4ujBz1hzq6uooOH2aM2cKAPDx9WPc+An8umI5AYEBGCuNOXTooO5ct9x2G21tappUKk4cPw5oAorbb7+ThIQEqiorCIuIZMP6dbp9Jk6egoODIzbWNmzftlWXPm3GTFqam9mwfr3ePSgqLCI9LY3B8UPYsnkz333zFTnZ2TjYO/DSK3+lra2NpUt+Yd+ePSgVMH3GLBRAamqKrjxPPfssMTH92bhhHbt27sTIyJhZc+bS3NxMZkYGCoWCJ59+hv4DYtm4YT1r16wiLyeH4SNHMnT4CHbv+o3W1lYUCgUzZ81GoVAQFBTM5s2bOHjwAM4uLowcNZq6mhqyszUPoQtuvpWZc+awf99eVq38lWNHj+Lr68uMmbPIysyktLQEgAGxA3nk8T9TcKaAFcuWsGf3bkyMjZk1Zw5KhVJ3HWHh4QSHhLJxw3pUqibs7O149vkXqSgv592Fb9PS0mLwM+zg4MArr/4dc3ML1qxZyaGDB7XlmE1qcjIVFeUolUqee+FFwiMiWbN6FRvWryMzM5PB8UMYO24ce/fsQaVS4ejkyLDhI/Dy7kNqajI/fP8tGRkZTJ02ncDAICKiIln8/fesXbMSD09PpkybzqFDB6mrrb2Yr90lZ25ugae3NwCqc7oYCSGEEOLKuWbeHPj09eWF55+hqlKzsmpKSgrvffgxEVFR7N+/j9KSUurr6wHIyzvbEm8oTd2uxtbWjo8//IiszEwA9uzaRXhEJIMHx2P7ww/U1FQTGRlFVlYGa9es0u17IjGRKdOmolAqdcd/9qknO5U3KjIatVpNcnKSwbSmxkZKSooJDg5m29YtAISGhlNaUkpebg4hoaEkaAOA0LBQ1Go1KcnJJJ88SUz//rpjurq44ujoxPq1a4nud3aQZ18fX8wtLEg6kYillRVDh4/Aw8ND150pNCyMXTt3MmXaNGxsbKitrUWpVBIcFMyOc1ryO9TUVFN4RhPkVFdV6uozKCiIU1mZ/PzTYvLz8rV1dJyg4BAGDxnKryuWAxAd04+goBC++Pwz9u7ZDcDhwwm4uLoyevRYNm1YT0y/foSEhvHVfz9n9+5dAKSnpVFYVMiLf3mFkaNGs2njBl2ZvLy8ee7pp6iu1nwmjh5O4M2332XMuPFs27YVewd7xk2YwP79+/j5x8W6/VKSk3hr4bvMmjNH9/Zg7o3zKC8v56P339O1/KckJ+Hm5s6kKVPYsGEdTY2NenViZmbG439+ipaWZt5duBCVSn8V4HNNnDwFKysrXvvbK5SVlQFw/Pgx/r3wXUaNGUNGRjqxcYPw9fPnm6++5LedO3T7lhQX89LLf2X8xAksX7qUtjbN0iWlxcVs2aR5q5FYdYysrEyCgoJ54/V/kKMNODeuW0t8/BBCQ0J196+33Hrn3bi5uwOw9OcfSU9NucAeQgghhLjUrpkByRkZGbrAADQP5fV1dVjb2Pyu46lUKrIy0/XS0lNTUSgUeHp5AlBZWYGvrz9Dhw3HxMQEgLa2VtasWkVuTk63x4+MjiYzI0PvgfL8tKSTJwkKDtVtDw0LIyszg6ysTEJCz6aHhIaRlZVBY2MDSUlJ2Nra4eqmecgKCQ+nsrKChEMH8fT0xNraRnusUNpaW0lNSyU5KYn29naCgkMATfcWBwdHdu3aSVNjIyEhmnRdQHGy54Oljx8/zttvvakLDDoUFRbi5OSk+z08PFyT/9hRvXzvvP0Wzz/7FGq1mvBITRewY8eOYmJiovsvLzeX2tpaAoOD9fbNSE/TBQagWYU3Iy0FD09PTM3MCA0JQ6lUcuRwgt5+KpWK1JRk/P0DMDY2xt7BHg8PDxKPH+vUJej4saOYmpri7+evl65UKnjg4Uews7Nn4b//TV1d963yERERFJzO1wUGAM0qFY8/8hD//ew/enV05PBhvX1PZWVRW1tLsPY+6a7/vM9vdXUN7Wo1p7Ky9NIA7Ox7d3YlN3d3XWAAmmBRCCGEEFfeNfPmoLqqslNaa1sbSsXvi39qqmtob9dfPLpe+4Bna2cHwNdffslDjzzKPff9idvvvIuszAyOHz/G7t920djY0OWxlUol4RGRbFi3rtu05KQkxowdh6uLKyWlJYSGhrNq5Qry8/OYd9MCrK2taWhoIDgomPXr1wKa1ux2tZqQkBBKiosIDQsjPT2dvLxcVCoVISEhHD6cQEhoGGnpaTSrVDSrVBSczickJJTfdu4gNCyMqsoqiouKyMzIIDgklISEBELDQmlWqUhPT+txPSoUCkaMHMXQ4cPw8PDE0tJKl35u/do5OKJWq3VvcgxxsHcA4P2PFhnc7ujgqPd7RWXnz0R1dQ0KhQJra2vsHTXHq6yo6JSvqqoapVKJja2tblpSg/mqNeMuzn+4vvm224mOjmHNqlWUl5d12u98dvYO5OfldpvH3sGB1tZWg4FGdVUl9nb61197Xjeh9rZWmlRNegFOx88KpeKCZbyciouKaGpqwtzcHID0NHlrIIQQQvSGayY4uNTaae+UpjDSVFe7WrOtpqaaN17/B3369iE6uh9R0THctOAWpkydxhv//CclJcUGjx0QEIilpSUnTyZ2m5aSnIxarSYoNASFkRJ7B3tSU1MoLSmhubmZ4JBQKioqtK35mu4vdXV15OblEhwczK7fdmoCil+Xo1arycrMJDg0jKNHjxAcFMzq1We7QyUlJTEwLg6A0PBw0tJTAUhPT2PQ4MGA5g1FWloqra2tPa7HWbPnMGPWbA7u38+aVauorq5C3dbOjfPmExkdfU6FawYmnx80nK+9vZ03X/8nberOg3pbWpr1854z2FlHodBua6fjNIYCSEXH/W9vpyOjwmC+s+U6V1hYOBkZ6UyZOpXDCQf1uq0Z0t7eritb13k09WOIQqGgHQPX+wfyxX8WER3Tn+rqShKPHevt4gghhBDXpWumW9GlZmdn1+lBzNZW0yWnY5agDvl5+axds5o3Xv8H/3j1b9jY2DJp8pQujx0ZFU1tTQ15ubndpjU2NpB96hRBwSGa1vyqaoqLijQP+lmZhISEEhoWSn1dPTnZZ2d56eiO5O7hjr29nW6wbHp6KiEhIed0D0o8Z58TODk54+jkRGhoKGnaGXLS0tLx8u6DjY0NwUHBnLyILkUAw0eO4kxBAf/5dBEnT5wgPy+fgoLTmJmb6eUr1w64tbO300s3NzfHwcERpVJJRXkZCoWCysoKTmVldfrv/K5LtgYWIrOzs6VdraaurpbKSs2bAHsHh0757B0daWttpaamVjcLUsebBr182rcVHcfqsPCtN/no/feora3jTw8+jKmZWad9z1VRXo6To2OndGtrG92bi6qKCoyMjLCxte1cDntHg282/kiqq6rYtXO7BAZCCCFEL7q+ggNt665Sqew+Dc1g0rDwCL206KgYVCoVOdnZWFlZcdc99xIaFqaXJycnm4aGeqwNPMB1iIyOIunkSb3WZkNpAMlJJwkKDCY8PEJvgGZ6WhpBwcGEBIeSnHRCb7/kpJO4uLowZMhwXUDRsY+3tzf9+w+gurqK0/mndftkpKfT2trKqFFjsLOzJ03brSP7VBatra2MHTdeO4D54oIDYyMjqs7r8uXn709QcAgKhUIXgGWlZwAwePAQvbz33Pcn/vH6v1AolJzUvh0ZMmy4Xh5zc3P+75778A8I0EsPCQ7G0tJS97uRkTHh4ZHk5+fT0tJCWkoqbW1tujcmuuNZWBAWFk56ehptba1UV1dRUHCafv36YWys/7Ktf+wAmhobdbMfdaisrKSuro7/fv4f3N3dufmWW7utp8yMdFzd3PH19Ttbd8bG/P2f/+T/7rkXgOQkTd0PjB2ot29QcDBW1lYkJyV3ew4hhBBCiAu5rroVVWnn5Z86fTqFBWc4fDjBYBpARUU5t99xBxs2rKe0pJSYmH5ERkezY9s2VCoVKpWKPt7e9HvoEdatWc2ZMwUYGRkzaPBgrKys2aedccfKyoq//v01jh89yg/ff4eNjQ0+Pr5s3rhRVy5DaR1Onkxi+sxZWNtYs3zZEl16RnoaM2fNxtnFhV/OmWlHsy2DZpWKUWPGkJJ0djak7FOnaFOrGTVmDCcSj+sFFM3NzaSnpzFqzBiqqqopKtQEFG1trWSfOsWYceOpKC/XzWYUGzuQBx5+hO+//YadOzrPXtQhNTWF2IFxjBo9hvz8PPz8/Rk3bjy7du5k1JgxDB0+nBPHEzly5DCZmRncOP8mTExNKCwsJDwsggGxA1m+dAltba2cSDxOakoys2bNxtTUlLTUVKytrJg4eQqubq6sXbsaONv9p6SkhKeffZ61a1ejalIxbtx4rKyt+OknTX1VV1exccN6pk6bTlVlFYmJx7EwN2f8xEmYmpqyfNlS3XUs/flnHvvzEzzy2OPs2L6d1tZWBsTGEhYWzk8//kBzFzMRpSQnsWnDeiZNmUrSiUQSEhKwtrbm3Q8+4uDBA3z+6ScArF+3jsFDhvLon59k5YplqJqaGDF6NDY2tqzRzoZ15MgRMjLSmbfgZoxNTcjPy8PZyZlZc+ZSVlbGtq2bDZZBCCGEEKKnrqvgYOfO7cT078+s2XMpLCzk8OEEg2kAjY1NfP3lf7np5lvo29eH5uZmtm/byi8//6Q73jsL/83cufOYMHEStnZ2NDU1UVhYwMcffcCxo5oVghUKJU5OzthoZ02K0C66du6MP4bSOpzKykClUmFtbU3aOW8OTmVl0a5WY2VlRdJ5i3W1tbWSnpZGZHQ0qecM7GxpaSE7O4ugoBDdGIVzJSedJDw8goP79+ulp6elERwSwq5zps9EqUCpVF5wIOuPP/yA0siIG+ffhEIBGWnpvPfOO9DeTmhYKLfddgdfNH1OwqGDvLdwIXPnzWPM2AlYWVlSUlLM9998zQ5t8NHe3s4H773LzFmziRs0mEmTp9DU1OlGf/IAACAASURBVERKSgpffP6Z7g2Jialm5qjExGMUFRYxd+48XFycqaqu4qcff2CvdhpUgOVLl1BdXcXo0WMZO24cLS0tZGZm8ua//qk3q09i4nHee3ch02fO4v4HHkShVFJQcJrPP/uU/Xv3dlsHy5YuJTQsnDvuvoesU6doaW5BqVRidE63tcrKCt7452vMu2kB8xcsQIGC/NN5LPz3m2Ska2YdUqvVvPfOQubMvZFJk6dgZ2dPXV0tJ44nsnz5Ehoauh4EL4QQQgjREwpfv8CuR39ep55/6S/YWNvy0gvP9nZRhBBCCCGEuGKurzEHQgghhBBCiC5JcCCEEEIIIYQAJDgQQgghhBBCaMmYAyGEEEIIIQQgbw6EEEIIIYQQWhIcCCGEEEIIIQAJDoQQQgghhBBaEhwIIYQQQgghAAkOhBBCCCGEEFoSHAghhBBCCCEACQ6EEEIIIYQQWhIcCCGEEEIIIQAJDoQQQgghhBBaEhwIIYQQQgghAAkOhBBCCCGEEFoSHAghhBBCCCEACQ6EEEIIIYQQWhIcCCGEEEIIIQAJDoQQQgghhBBaEhwIIYQQQgghAAkOhBBCCCGEEFoSHPyBzI69nx8eTOIfN/7S20Xpke/uT+SHB5Po7zOqt4siBD88mMQPDyYR03d4bxdFCCGEuGoZ93YBLgVHKzc+vGPbRe2zJ2MNi7Y8d5lKJK5Gw4Jn8NC4NwC4/6th1DVV9XKJfj87S2cW3bkTgI+2PMO+jHW9XKIrI6bvcOIDpuDvGoGTtQdmxha0qluoa6oivyKTY7k72Jn6K6rWxt4u6u/2wswviPSK52jub7y97sEL5h8SNJVHxv8b+ON/roUQQvS+ayI4OJe6XQ3t7RfOp267AqURQlwK5iZWPDbxHV2rf3t7O5UNJVTWl2JmYo6DpSuO1u7E9B3OlJi7eHPt/RRV5egd48UlNwBQXJ1/pYsvhBBC/GFcc8HBh5ue4uCpTb1dDCHEJXTXiJeI6TscVWsjP+1byO6MtTSoanTbrczsGB4ynZvjn8LV1pvHJ77Di7/cQDtnGwpyy1J7o+hCCCHEH4qMORBCXNWszOwYFjwdgB/3vs2mkz/qBQYA9apqNib+wCdbXwCgr1MI0TK2QAghhLho19ybg/9FTN/hjAmbR4BbFLbmDgCU1xeTfHo/a459RVF1rsH9FCgYHjKT4SEz8XEKxsLUhqr6Uo7mbmdFwn+obiw3uM+gwEmMCp6Nv1sElqa2NDbXcroii32Z69iWvBR1e1ddnzStoSNDZzMufD6eDv4YK00orsljV9oqNiR+R5u6tdNeSoURI0PnMCRoCr5OIViY2tDYXE9BVRYJp7awJelnmlubDJ7Rw96XKdF3EuE9GAcrVxQoqGooJ60wgY0nFpNderIHNXyWp4Mff539A9bmdmw6uZhvdv3zovbvDVZmdkyOuo3+vqNxs+uDmbEFtU1VZJcm8Vvqrxw6tVmvpbqDQqFkfPh8RoXNxdPej7b2NvLL01l3/BsSsrfy2MR3GBwwibXHv2bx3n//z+WcM/ABbox7lIOnNvP+xj8T3WcY0/r9Hz7Oms9mRV0Jh3O2svTgRzS11F/08SO84xkfsYBA1xhsLR1obWumtLaAxLw9rE/8hsr6Ur384V6DeGnmV9Q2VfDAVyOYEHkL0/rdjYOlM6+tvIvM4uPdns/J2h2lwgiAtKKj3eY9mLWJz7e/TGFVDjnnvSn44cEkAN5aez/H83brbYvqM5RpMXfj5xKBqbEZJTX5/Ja2kvXHv2Vc+DzuGvky2aVJ/GXpfN0+L878kgivwXy9659sSfqJCRE3MTJ0Lh72PigVRhRV57IteSlbTv5o8HNxuZkam/PVfYc1ZV1yA/WqGm4Y+DCR3kOxtXSgQVVDypkElid8wumKjCtePiGEEFcnCQ605g/+M7MG3AdAbVMVueVpmBmb427nw5jweQwNns6/Vt9LRtExvf2MlSY8OeUjXV/okpoC6ppqcLH1YkLkrYwImc0/Vt5Fdmmybh+lwojHJr5DnP94AE5XZpJTmoqjlRvBHgMI9RzIiJDZvLn2/k4tpABt6jZujn+K6f3/j8r6UoqqcnC09qCPYzC3DHmaMM84Fq57WO+BxNzEimemLiLUcyAA+RXpZJUk4WzjSZBrDCHuAxgZOpt/rbq3UzAzOHAyD417A2OlCQ2qGjKLEzFWGuPlEMiIkFkMD57Jt7v/yaaTP/aoru2tnHlu2mdYm9uxJ2MN3+56vUf79SZvh0Cem/45jtautKpbyC5JQtXahIe9D/19RtHfZxT7Mtbx8dbnaG9X6+370Pg3GRo4FYDS2jMUV+fhZteXJyZ/wM/738XS1AaAllbVJSlrS1szAGbGFoyLuIm7R7xMVUMZZbVncLL2wNXWiynRd+DnHM4/Vt51UQ+utw19nikxtwNQXldI0ukD2Fo44OUQwLR+wYwJu4F/r32I9OKzD/HN2usyNbYgpu8I7hrxkm6bibHpBc9ZWV+i+9nHOZS88rQu87bTzo7U5T2+HoBxEfP5v5F/BTRvINKLj2FjZs8tQ54mwnOw7lpa2vQD59ZWTT1bmFjq7nFRVQ4lNadxtfWmr1MId414CXtLZ5Yc/OCiynQpnPt58nYI5Pbhz2FpaktJzWnOVFbi7RjE4IBJxPqO4fXV95JWePiKl1EIIcTVR4IDwMvBXxcYLD30ESuPfKYbsGxv5cxTkz/C3zWK/xv5Ci/8Mldv35uHPE1M3+GU1xXy9rqHdQ8uNuYOPDT+TaL7DOPJyR/yxOIptGof2m4a/Gfi/MdTXlfIB5ue0ms59XMJ55EJbxPoFs1dw19k0dbnO5XXzc4Hb8dg3tv4OIdObQE0byKm9b+bm+Ofor/PKIYETmFv5tkZbO4Y/gKhngOpa6rk3+se1junl4M/z0//nD6Owdwz6m+8s+FR3TZ3e18eHPs6xkoTticv4ds9b+jeLigVRswb/Bgz+9/L7cNeIKM4kezSpG7r2sLUmuemfYazjSdHc3fy6dYXe6VV9WIYK014fNJ7OFq7klVygnc3PKrXOh7nP55HJyxkSNBUMksT2XD8O71tHYHB4r3/Zu3xr3XbJkbezK3DnqOmoRK4dIPkO47j5eBPkFs0H215hv2Z6wHN52T2wAe4Me4RQj0HEuIRS2phQo+OOyJkFlNibkfdrubL3/7OjuSluntnZWbHYxPfIdI7nkcnLeTpxdNRtTYA6N5imShNmdbvbnanr2L10S9pbK6jrqn6guetbaokszhR850Y8RJGCiP2Zq7r8i3XxXCwcuG2oZpZyw5kbeTTbS/qjhvsHstTUz7EyzFAex36QV+b9s3eqNA5KJUmvLTkRnLKUgBNMP7IhH/T32cUk6PvYOWRzy5JeS9GO+2o29UoFUpuG/Ys6YXH+M/2v1Cv0tS5m21fnp3+Ke52Pvxp9N955ueZMlGDEEIIGXMA4GDlxuHsbaQUHGTl4c/0/oGsqi9j6aGPAE0/ZkcrN902eytnJkbdDMBXv/1dr0WztqmSRVueQ93ehqO1OwN8RgOaoGFS9K0AfLzluU5dKrJLk/nPVk3L6pCgaThYuXQqr425Pb8e/kQXGIDmQWDN0S91rZyjwm7QbXO0dmVE8EwAFu9d2OmcBZWn+Hb3vwCI9RuLu52PbtvU6DsxMTKjuCafr3b9Q+8BR93exi/73yOvPA2l0ogpMXcYqN2zjJUmPDH5A/o6hZB6JoEPNj3ZTdepq0dcwAQ8HfxQt6v5ePMznbrNHDq1ha1JPwMwLfouFIqzX6vR2vuQVnhYLzAA2HTyR3akLMPR2vWSlleN5iHW2caTZYcX6QID0HxOfj38H91DeaB7dI+PO7O/JoDek76a7clL9IK6elU1i7Y+R6u6BUcrN4YETT1bHu09ViqNMDex5NOtL3K6IoPyukJdAHEhn+94hcr6UsxNrLhvzGt8ctdvPD7pPSZH34afS4Su29HFGho0HVNjc1QtDfx3x1/1Pt/pRYf5ctffcbbxNLhvxxsid3tf3t/4uC4wAGhqqeeXA+8DYG5iQR/HoN9Vvv+ZduY2pULJoq3P6wIDgOKaPL767TVAcw2Brv16pYhCCCGuLhIcACdP7+OdDY/yj1V3G3xYPVN5SvezvdXZB7l+fUaiVBjR1NLI8bw9nfarbark+V/m8Pj3Eziaq5mTPrrPMEyMzKiqL+vyNX568VGq6stQKpREeg8zmGdn6gqD6UeytwMQ6BaDAoX2nCNQKo1Qt7ex/9QGw/vl7tA9GEX3GapL7++rWcBsf+YGg+MY2mnnQNZGAGL6GC4raFqs7x/3OhFeg8kpTeHt9Q9f8ZbU36t/35EAZBUnUlxjeBrMfZmaOnC0dsfL3l+XHuI+AIDD2YbX4Vif+J3B9EtlT9rqTmnt7WoKq7IBsDV37NFx3Gz74OngpzlmxhqDeaobykjVfqZj+hr+LOxK/fV3vSk6XZHBi0vmsiHxe5pa6jE3sWKQ/wRuH/YC/7jxFz6/5wBPT/2E0aFzMTEy6/FxQz003eySzxyiobm20/aDWZuoqCvplH5+2c4NDDqc+3fDRjuGqbccPLXZ4PiSpIIDuvQQDwkOhBBCXIPdih6f9G6P8hlaOMrG3IHIPkNwsfbE1sIZU2PNQ0bH/0HTAtfByzEQgNLa/C5bwAsqsvR+93EOBcDc1Iq/zPq6y/KZm1oA6B7IzlVVX0ZNY4XB/Qq1c7ubm1hga+lEdUMZ3g6aVsuiqjxULYYXh2pTt1JUnUtfpxA8HDQPt5amNro3Jd318y6o1FyjtbkD1ub2Bhdhunno0wwNnEphVQ5vrLmPxua6Lo/Xla4e+lrVLZ36+V9K3tpW3+7rIFP3s6eDP6crM7Ext8fC1BqAM9qH8fMVVeVQ01iOrYXTJSyxRr2qmtouFsRSafvPGylNenQsb6ezLd95Zd3UQ3kWkV7xeDr4G9x+qizZYHpP1DRW8N2ef/Hj/oVEeA0mzDOOYPd++LtGYm5iQX+fkfT3Gcn8+Mf5ZOsLnMjfe8Fjutp6AV3fn/Z2NRlFRxgcOLnLYxRWGZ6ooFXdglrdhlJphLFRz+r5cjEUvIDm+oqr8/FxDsXFxvsKl0oIIcTV6JoLDn4PhULJjXGPML3f3RgbXXiAZAdrMzsAGg20OHbF0swW0Dy8h3nGXTC/lXaw6rlqVYYDA0Cv9dPC1JrqhjKszTXnPLdLgSEdD+xW2jJaafe70L4NqrPntDK17RQcTIi8RTdgu6G51mAL7YWcuyLw+QzNPnMpWZtr7nOdgcHhHc69po573BEYANSrug6GqhrKLktw0F15L5a1qZ3u5/oe1IOlia3B7XWNlf9zWVrbmjmet4vjebsATXe1ANcoYv3GMjZ8HnYWzjw79VNeWX7zBcfAdAwGNzTwv0NlQ1m3x6i7wPfqalDbTb133DMLM+su8wghhLh+XHPBwfsbn7joRdBm9r+X2bH3A7At+Re2pyynqDqXRlUt7bR3+WDa0T3iYroxKLT75JWndRrc3FNqddet5Od22Wg/L1+7ovvuHApFR8bO+dq7WXW6o/tSRwnOF9N3OFX1ZViYWhLgGsVNg//M4n1vd1uWq1M3daDoXAfn1ouim327q9s/Gl09dPFZ65hJ6VJqVbeQVnSEtKIjbDq5mFfn/oi9pTPzBj3GW2vv735nvftm2JW+P22tLQCY9LChwszYUvdzVzNetXUztsfISPPPwLX0ORRCCPH7XXPBwcVSKJRM1Q6k3Zr0M1/+9vdOecyMzQ3u29FCbt3DftsAtdqBoI5Wv38QakfLtMFt57xp6GgR7GjZtDHrvt+zpfZNSEfL8LkzydhYdL3vueWpb+7cAptTmsLC9Q8T4R3PA2NfZ2rMXSQV7L+o1v7qhjJu/SSix/kvpdrGKpysPbA2s+8yz7n1Xq+tt6aWs4NtzU0tO+3Twc7C+RKU8vKqVZ19G2Rlbkd1F63plmaaerjQW6rLpaz2DLvSVjKj/z34u4ZfMH9TcwNYaWYX6oqd1aV/q9OdmibNVMJO1u49yu9m1wfQfN9VrYa7DVqadv03w9rUXrv/pXvTJIQQ4o/ruh+QbGfpiLV2sOCBLt44hHjEGkzP1y4c5GTt1uXDRVSfoQwLnoGfSyRwtt+6tbmDwZmIesLJyg0zEwuD2zzsfQHNg0Jtk6YrQX5ZOqB5iOhqP1NjczzsNPvmlmvyNzbXUV5XCGhmaupKxziKiroSg1NTLj30IRX1xexKW8me9NUoFAoeHPcv7K2u/odi0KwJAeDj3HUd+DqF6n7O09ZfTWMFLW2allw32z4G93Ox8fxD1ENHHQD4dPNZ8NXWUUcd/K8UKLhj2Iu8Oncx0/rd3aN9OgbOt7R2HkB/vo7Pd8cDtqHzB7ld2YG6GcWJgOa77Gbbt9u8SqURg/w066WkFBzqMp9XF2NAFAql7u9QV4s8CiGEuL5c98HBuW/STQ28xjc1NmdG/3t1vxudM2Xi8bxdqNvbUCqMGBY8rdO+ZsYW/HnSezw07g38XDStmIn5u3UPjOPCFxgsk7W5PW8uWMmdI17Sa5HuoFQaEe9veIBkx5SpqWfOzoR0/PQu2tStKBVGDAmcanC/Qf4TMVIao1a3kZh/tkX/SI5mlp34gCkYKTu/aFIqjYgPmATAsbwdBo99ri9/e43i6jxszB15aNxbetN+Xq2O5GhmgApwjdab5vVcQ7T3v7Aqh+KaPEDTxatj5egYn5EG95scfeelLu5lUVpToFtFd3jwDIN5XGw8ddNhHssxPD7kYrXTjqeDH4FuMUzvd/cFH5bNTCwYEjgFgMyS7ldeBsgqOQFAmOcgg90DY/3G4tLFVKaXy4Gsjbq3fneOeAmlsutpWufGPoi7tkFgS9JPXeYbFDDR4HSvoR6xurExaWeO/A+lFkIIca24+p/MLrPqhjIq6ooAGBM2T+8fUBdbL56f/hl5Zak0aWf58Thn9qCaxgq2JS8B4Ob4p4g+ZypPa3N7Hh7/FuYmVtQ1Vermmq9rqmbTicUAzIq9j2HnPWi52HjyzNRFeDsEEugapTfQtaM/d2NzHTcPfVL3NqLDuIj5urcc21KW6NKr6st0v98c/0Sn/fxcwrll6FMA7Ez7VVcfAGuPf0NTSyOutl7cNeIlvQHbxkam3D7sedztfWlubWLt8W8M1vG5mlrq+XDzM7SpW4nwGqxbfO5qlpC9jbzyNBQKBQ+NfxO78wYPDw+eyciQ2QCsOPyp3rbd6ZppP2P6jGC4dq2JDmPD5zMmbC4V9cWXsfSXzvKETwDN2gCjQ/XHy9haOPLQhLdQKo0oqDzFwVObL9l5F+97m+bWJmwtnPjr3O+YELGg01s3a3M7RoTM5tW5i3Gz60uruoVfz7sXhuzNWIO6XY2NuT23D3tO7/sf5N6P+0a/SpF2BrArpa6piu93vwloxuv8dfZ39PcZqXuINzOxIMwrjicmf8CcgQ8CsCN1OYn5nadT7mBjZtfp+2tn6cydI14ENF3/LjR4WwghxPXhuh9zALAsYRH3jf47sX5jWXjLevLL07CxdCDQJZqcsmS+3PUaT1g6E+41iNuHPccAn9EsT1hETlkKi/e+jZe9P2Feg3hu+mdU1BfT1NyAq60XxkamNLU08uHmZ/Qe8n85+AFudn0Z6DeOh8a9wbxBj1FcnYe1mR19nYJRKo2oqCvi4/NWRzZSaG5Xdmky+eUZvHbDT+SUpVDdWIaLjbeu68CejDUczdmht++Pexfiae9PhNdg/n7DjxRWZlNRX4yzjSfudj4oFAqSCg7w3e439PYrrSngk63P8ciEfzM2fD6DAyaRX56B0sgIb/sALM1saWlTsWjLcz1+iMouPcnPB97jliFPc8PAh0kuSCC9yPCaD5fLJ3f+dsE8T/84jeIazTS17296khdn/JcA1yjev30zpysyaGiux8POT7eI2dpjX7EnXX9dgR0pyxkWNJ0Qj1geHPcvZsfeT1ntGdzs+uJs48nnO15mXPhNeovrXa0OZG1k1dH/MrP/vdw35jVuiHuYM1U5WJvZ4eXoj4mRGeV1hby38TFa1S2X7Lx55Wm8te4BHhn3NvZWztw18mXuGvkyqpYGGlsasDKz0Wv1r2oo49NtL5BblnrBYxdUnmLNsS+Z2f9exkXcRKzfOE5XZGBlZoevcxg701ZQ21jJjP73XLLr6YmdaSswMjLhtmHPEugWw9NTNYFZx9SoHdrb29l44gd+2PdWt8f75eCHzB/0KIMDJpJTlopSYUSgW7RuAbjPdvzlsl6PEEKIPw4JDoAdKctobmlkar878XIIxMZ8EKW1Bfxy8H02nViMqrWR7/a8wQNjX8fLwR8f51DdrECq1kZeX3Mv48LmMTRkOl72/thZOFHVUEpi3m5WH/2i08JZrW3NvLfhcQYFTmJU8Gz8XMMJ94qjubWJ3PJUErK3sunE4k5TfppqB0Y3tdTz7Z7XyatIZ2z4jYS4D8BIaUxuWSrbU5axNfnnTteoam3kjdX3MTJkFsOCZ2jXM/ClQVVDUsEB9mSsZnf6ar3VoTskZG/l+Z/nMDXmLiK94wlwi6K9vZ2KuiL2ZK5l/bFvdV1pemrdsa+J8Ionpu9wHp3wFi8smWtwvMLl0l1XjbPOzmRTVJXD87/MZXL0bcT6jMXD3g9jI1NqGio5kLmBzck/Gezz3aZu5c019zNzwH3EB07GxcYTC1NrskuT+WTri6QXHWZChKZ7WVv7hfvI97af97/Lyfy9jI+8mSC3foR5DqS5tYnTFRkkZG9j08kfu50W9PdKKTjEk4snMzR4Ov36jqCPUzB2Fs7YWjjS0tpESf1p8srTOJa3i30Z6wwu+NXdNRVV5jAhagEe9gH4u0Rwpiqb/2z/C7vTVnLzEM1btTYD343LaVvyLxzL3cmYsBuJ7DsETzt/LM2saWiupaT6NKmFh9meslTX3as7pTWneXHpjcyJfZAo7yHYWjpRr6rmUPZWlh/6WMYbCCGE0FH4+gXK/HVC9KIPbt+Ck7UHX/72KluTfunt4ojzPDD2dUaEzGJfxjo+2vJMbxfnonx3fyJKpRFvr3tIt0q7EEII0R15cyDEZeRh70uIRyxmJuZsTPyh03YvxwCcrD0AOFVy8koX77pnY25PVJ9huNp6s/HED51W7jZSGhPhNQSAU6Vyf4QQQlz7JDgQ4jJytHLjvtFn187YfPInXdctd3tfHhqrGXiaXZpEdmlyr5TxetaqbuXeUX/DzMQST4cAvtjxN1StmvUpLE1tuGvkyzhau6JqbWSPdnC5EEIIcS2T4ECIyyip4ACbT/7AhMhbuWPYi8wecD+F1blYm9rh4eCLUmFEdWMZn2x7obeLel1qbK7j851/5aFxbzAsaBqxvmM5U5mJQqHEw94fcxML2tSt/Hf7K1Q3lvd2cYUQQojLToIDIS6zr3e9TmL+PsaH34S/WwRBrjG0tKk4XZHJ8bzdrD/+jTx49qJ9GesorMxmUtRtRHrH4+Mchrq9jcr6Mg5mHWJ94re6xQuFEEKIa50MSBZCCCGEEEIAsgiaEEIIIYQQQkuCAyGEEEIIIQQgwYEQQgghhBBCS4IDIYQQQgghBCDBgRBCCCGEEEJLggMhhBBCCCEEIMGBEEIIIYQQQkuCAyGEEEIIIQQgwYEQQgghhBBCS4IDIYQQQgghBCDBgRBCCCGEEEJLggMhhBBCCCEEIMGBEEIIIYQQQsu4twtwKfXt25cJEycREhaGnZ09TU1NlJWVcvDAAXbu2E5TY2NvF1EIPXNuuIHpM2bx5OOPUV1ddUXOaWJiwqeff8G2rVv44btvr8g5uxISGsazz7/QbZ6EhAQ++eiDK1QifUqlks+//Jqd27fz7TdfXdFzX67PxoDYgYwYMRI/f38sLS2pra2jsLCA3b/9xoED+2lvb79k57rW9fS79NSzz+Hm5sazTz35u84zceJkps2ciYWFBZ8s+oijhw8bzHfjvJuYMm0ajz/yMHV1tb/rXL/X+x8tIjU19bJ8V5VKJf93733Exg4EhYJnn3qC2trLf32RUdE88dTTLPr4Qw4fOkRYeARPP/sc//l0EQf377/s578Uxo6fwK233c4rL71IQcHp3i6O+IO4ZoKDCZMmcdNNN9OkaiLh0CEKCwuxtLQgODiU+TctYMSIkby78G3Ky8uuaLkUCgUfLvqED99/n7TUlCt6btEzvr5+vPy3V7nnrjt6uyhXRFtbG1s2bSIjPfWi971cdZWQkEBK8kmD20qKSy7pua5XSqWSP93/AHGD4yktLWXvvj1UV1ZhZ29P//79ue+BBxkYN4hPP/mY1tbW3i7uJfX4n58kJyeblb+uuKTHNfRdutTfESsrK+YvWEBubg5rVq8iJzu7y7zp6WmYmJjQ0tJ8Sc59tYjp148hQ4exd/cuEhISaLxCDX3lZaVs2bSJkuKiK3I+Ia4W10RwEBkVxU0LbiE3N4f33llIbU2N3va4wfH86f4HuPvee3n7zTeuaNm8vPtgYWF5Rc8pLk5AUGBvF+GKUqvV/Lj4+9+17+Wqq1NZmezYtu2yHFtozJ57A3GD49n1206+++Yb2trOBgBLfv6JBTffyviJE5kybTqrV/7aiyW9tBQKBQGBQeTkdP1Q/XsZ+i5d6u+IlaUVCqWSI4cPc/TIkW7zJh4/RuLxY5f0/FcDa2sbAHbs2E5WZuYVO29hYeHv/lspxB/ZNREczJl7A+q2NhZ9+GGnwADg0IH92FhZUV9fj1KpRK1W8+LLr9Da0srmTRu49fY7KSst5Y3X/wFAaFgY02bMJCAgEIVCQeGZM2zZspm9u3fpHdfXz5+Zs+cQHByEsbEJZWVl7Nn9GxvXr0etVjN12nRumDcfQNd14oH77qGlpQUzMzNmzppDbFwcjo6O1NfXcTIxkeXLllJZWdnt9RoZGTNl2lSGDR+Jk5MTDfX1nMrOZvnSJZzOz9PmMeKzQ2UNsAAAIABJREFUL75i1a8rKCosZNqMGbi6uVNTU83uXbtYvfLXC3YfGBQfz6RJk/H08kbd1kZhYSHr1q7hyOEEvXyurm7cOG8+oWHhGBkpyc3NZdXKFaSmpFxUHktLS2bPmUv/2Fjs7OxpbGwgNSWFZUuX6lpu+sfG8sijj/P+u+/o/SPoHxDASy//la+/+pJdO3f0+PqfeOoZIqOiAPji6285lZXFP197tcs6iY6OYer0GfT18UGpVFJSUszO7TvYumWTLs8N8+YzZeo0/vLic9z/4CN4enry8AN/6nFrbE/qAcC7T19uufVW/PwDUKlU7N+7ly2bN/Lm2+/w84+L2bRxg8Hjn98V4lLUVU/q5VKwd7Bn1uy5xPTrh7W1DVVVlZw8cYIVy5bqdTMwNzdn1py5DIyLw9rahpLiIrZt28rO7dv1jjdqzBjGjBmHh6cnrS0tZGVl8euKZZzKytLLp25XM2ToMKbNmImriwvV1dVs37aVdWvX6OXraT14eHgw+4Z5hIaGYmFhQVVVJUcSDvPrimU0NTV1ef1enl7/3959h0dVpQ8c/04SQnpPKAJCgFRASEIJoXcQUhBUBHRX1107FkTXVVTWshaKioqKa0EEBUILvfeWQkJ6AmmEkJA2SQhpM/P7YyYDQybJBNRVf+/neXweuXPu3HtP5p5zzznvOZd/vvYaWRcusGzJYlQqlUn5Zmdnx/gJE8nPz+f7b79BrVYbfK7RaPhp7Y/U1tUYjHAqFArGj5/IsJEj6dChAyqVipzsbLZu2Uxy0vWRnn+++hqqBhU/rf2R++6fRfcentTV1pKUmMiPP67iatXVNqUDcPdwJ+Kemfj5+WNjbU1paRknTxxnW9QW6uvr9elaKlsaywWA0PAIQsMjWLr4QxLPJRhcf4eOHXnnP+/z4+pV7NuzR7/9kUf/ztCQYaz47FPOnD6l3z7v+RfwcO/AGwv/ZXAvtXSPqFRqPNw9mPPQX+jVuzcajYazcbGsXvU91dXVRv9uU0NDiZg+A4DpM2YyfcZMvljxGV27djNaxoRH3NMkrMiUusbPvw8vvLiAD99/D29vH0KGDcPO3p4rV66wKXKDQZlva2fLAw/M5a4B/TEzM+f8+Ux+/GFVk3Pv4amtH7t3746NjS1KZTlxsXFErv+Z2tpao9drzAsLXsLPzx+AV15dCKAPtWutDtbm2wym3D2NF59/lgcf+itePj6o1Wpizpzmh1XfExwyjClTpuDk7ELh5cv8sGoVmRlpQNOwohtZWVuzdNnHJCUmsvyTjww+a9++Pcs++ZT4uFhWfP6Z0esypR6Htt0zQUFBhEXcQ4cOHShXlnPowAFqakzPayEamTs5u7zxvz6J2+Ho5Mh9s2YTFxfL4YMHmk2XlZVFfv5F/QPx0JBh2NnZ4u/fl+3bojh7NpYrRUXamMIXF1BaUsJPa9Zw8sRx7OztCI+YTlVlJVlZFwDwcPfgXwtfR6VSsX7dz5w4dgwzBUydFoYCSE1N4XLhZaqvVuPr58e33/yXzRs3UF5ejkKh4Pn5LzIgIJBdO3ewLWoLudnZDBsxgqHDhnP0yOEWHyTnzH2QSZMmc3D/fnZsjyIzM5PAoIGMGj2KY0eOUFdXh0ajISw8AhsbW1zd3flh1fdsi9qCtZU1U6eFcqmggEstxB8OHDyExx5/gvOZmURuWM/Zs3F069aNyXdPJSM9neLiKwA4Ozuz8M1FWFlZExW1mTOnT9O9e3emhYaTmpxMaWmJSWnMzMx46Z+v4Offh6itW9i5YzuZmZkMHhLMmLFjOX7sGLW1tXTq3JlBg4dw6uQJCm94UHZ2cWHEyFGcPRtHbk62ydd//nwGLi6udOrcmTcXvsrp06e5erXKaJ4EBAbx1Lxnyb+Uz8YN6zh29CjtLCwIi4jATGFGqu6hytvbG28fXzp17kziuXMcPnyISzf89m7k6+eHl7cPu3buoLa2xuR8sLGx4bU33sTG1o51P//EiWPH6Nm7FyEhw3F1cyM+/ixZFy4YvQ5zc3OmhoaRlXWBcwnxt51XpuaLMW5u7oQMG05SUiLnMzOaTQfasJh/vroQzx492bhxAwf27aWkuJhx4yfQu7cXx3SNdzMzM15YsIC77hrArp3bOXLoEObmFoRFTKeuro7MDO1xwiPu4d777icuJoYN63/m3LkEvH18uHtqKInnzunv1dCwcBQKBb17e7Fnz25Onz6Fm7s7I0aOoqqigixdmIep+eDm5sZrbyyivWV7Nmz4mf379lJaXMKkKVPw9vHl+LGjRn8bjk6OLHj5FUpLSli6+EODB+TWDBgQwKAhQ4jasoUL5433vGo0GlKSkykpKdFvu3/WbEIjIjh54jhbNm/ibFyc7t4N43xmJleuaEO+hg4Nwd3dA28fXzZFRhK5YT2X8vMJj4jAxtpW35A3NZ2jkyOvvf4mDvaObFivzaOqyiqmTJ1Kly5dOXPmNNB6+ZOXl0d6WirBQ0M4dOAA333zNXl5uU3K16tVVQwbPhwLMwv9dwM8MGcOKpWamtpazsXH639fc+c+RHR0NMlJiQb3UnP3iLa+sScwKFBfV1VVVTFy1Gjs7OyIPxtn9G9yueAy6WlpDB4SzN49e1j13TdkZ2Xh6elptIzx9fOnt5cXO7dvp66uzuS6xsXVhZBhw+nStRtXrhTx4w/fc+jAAXx8fZg4aTLHjh3Vh/I89dQ8+gcEsG3rVrZvi+Lq1avMvPd+7OzsKCoqIvr0KewdHHjt9Teoqalh04b1HDl0iKKiQsZPmEiXbncSfUNDqzXn0zO4dq0abx8fVn75BVs3b6K4+Arubu6t1sEAvb288fH1peudd7J/7242rF+PWq1iwqTJ9OjhibOzM9+sXMmRwwcZNGQIQ4KD2b93LxqNBo8OHQgeOpQzZ05TcOkS7u4eDA0ZRkz0GXKys+nUuTMBQUEcPLCfurrroVwDBw5i0OAhrP/5JwoLC41elyn1eFvumV69evPs8/MpLS1h9Q+riI+LIzAwCD9/f+wdHDiwfx+VlU07T4Uw5g8/ctC50x0A5GRlt2m/BlUDd3Tp2qQH+t77Z1FYWMSyJYv1lW9yUiIuLq6ER9zDoYMHUKlUdOrciQvnM/lp7Y/k5eYBcC4hnt5e3gwOHsqmjZFUVlRQUqqd41BUWEhurrY3YEBAAN4+vnyz8iuO6h5o0tPSKLhcwCuvLmTEyFHN9voCWNvasHfPHjZGrtdvq66u5ul5z+Lfty8njx8HtEPeLi6uvPv2v/U9NZs2RjJh0mT8+/ThzKnmJ1S5u7mRlJjIis8/1ffApKWk8PHyzxgcHExKSjIAEyZNxtbWln+/sZDiYu21xsef5YPFSxk5ejQZGekmpQkcOIjuPTz57pv/cvjQQf15FBUW8q/XXmfchPFErl9PW5hy/VeKrnD1qrbnpfHv05zpM2ZSUlLC8o+W6XtsU5KT6NChIxMnT2bnzu3UXLtGgy5cIy83t83hGabmw5Ahwdjb2/PpJx/re/XOJcTz4ksvt+l4jW4nr0zNl9vl4uJCSUkxu3Zu59gR7X2TlJiIk7MzEyZOwtnZhbKyUvrd1Z/evb35+qsv9Q/aMTHRuHt4MGrUGHbv3IGtnR2T776b48eOsur7b/XHSElO5r0PPiQ0PJyPly3Vb7/jji68NP8F/cTguJho3vtwKaPHjmP//n1tyofJU6ZibW3NW4veoPCytoGblpqKeTtzZsy8D18/f4NeedD2RM579gXq6+tYunhxm3peATp11pWTbQitcXJ2Yuz48Zw8eYKf1vx4Qx4l8f7ipYRFROjPU6VW4+LqyorPP9WHfUSfOU3mhAn49+mr39fUdJMnT8XOzp7/vPOyQR6BhukzZnJn9+7kZGe3Wras/PILLuVfAkCpLG/xHk9OTOSuAQP0//Zw98DFxZUd27bRr39//fZud3bHytqapJtGH4AWyxM3NzeWf7xMHxoUFxuLt7cPfW647ptVVCgpuKQ7//Iy/XeaWsb0HzDApLpGpdJ2XFRWVBC5fp1+/21RUfgu8Mfb24cTx4/RsVNH+vTrx/69e4jauhmAtNQUqqoq+cdjT+j369mzF9bWNmyOjCQ5OQmAlJRkLhcU0LFTp2bP15iiK0WUlJYCUFh4WZ8HptTBAGq19l6MjY4mXtfA2xa1lamhYfTq1Yvnn31Gfz8dOXyI+2fNxqNDB32+t+TI4cMEDw0hODiE3buv19lBgwajVJaTmHiu2X1NrcdNvWfGjR+PBvh42TJ9OXXuXAKL3nqn1esQ4mZ/+KVMraytALhW0/aHD1VDg8Hwsr2DA926dSMhQdtYaNeunf6/hISz2NrZ0rFTZwDi4+P58P339IVSo8sFBbi6urZ4XD/dDX32bJzBMXJzcqisrKSXl1eL+3/5+WesXbPa8LiXtQWZq4ubwfbzFzINHiTq6+upqqrE0dGxxWNs3xbFkg/fNwg/qK6upqKywuD6/P39yb+Yp6+YAepqa5n31BOs/PILk9P4+fkBEHvTKhwXzp+nsrISL2/vFs+3Obd6/TdzcnaiU6dOJMSfbRLKEX82DktLSzx7eBpsPxvXcnywMabmQ5du3QBIuqnyOXL4cJuP2ehW8upW8sUYG2sbnJ1djP5nZaW9x4uLi/loyWJ9w6DR5csFAPrfZWMe3twbu+TD93l5wQuo1Wq8vX2wsLAgNjbG4B5UNTSQlpZGr16G92BGeprBikENDQ1kpKXQqXNnLNu3b1M++Pn7cenSJf1D7/V02nLH29vHYLuZmYLHnnwKR0cnFn/wwS2tQtOYh22ZyOnj7YuZmVmTMMLa2lpSU5Lx9OyJhcX1/qW62tom8eDlpaU4OjoYbDMlnX+fPuTm5lBaUmLw9zmnK68b/z6mlC2mSkpKwsHBEY8OHQHw9vOjrKyU6DOn6dy5sz7u3cfXB1VDA6lpbZvQX19fz9k4w99kUVEhdnZ2bfqeG7VWxrS1rkm+aVGA8jLtQ7mjk7YM8PTUzqdI1nUONYqPizMYGS3T7Tdx0mQ6duqo356UmGgQtnU72loHZ2ak6/+/oaGB6upq8i7mGpR5SqUSwOT6IT0tlStFVwgZPky/zcramj59+3Ly5Ikm4Xs3aks9bso9092zJ/kXLxqUUxqNhgRdg0iItvjDjxw0Vna2trZt3reyssrg5nV2cgJgwsRJTJg4yeg+Li4u5F/MQ6FQMHzESIYOC6FTp87Y2GiPr1AoWo3ld3ZyBrRLvxk9hrNLi/t36NiRiZMm4+ffB0dHR4MKWnFTc6/KyBwMlUqN2c0Jb2Jlbc2kSVMICArE1cUVy/btAe2Qen5+vj6do5Mzebk5LX6XKWmcnJ1paGgw+uCjLC/DybHlPGnOrV5/k/Nz0h6/TNeDdaPyxgpF9/vRby9XtukYYHo+ODg4UnPtWpMe5MsFBW0+ZqNbyatbyRdjpoaGMjU01OhnG9b9rI/t9/XzZ+y48fTo4Ym9vR0KMzMUjQl15+no7IJardb34Brj7KK9B596el6zaSwtLfXhJ6VG5gEplRUoFArs7OxwcNA+TJiSD05OzqSnpzdJpywv152/YX7NmjOXfv3uImrLllteba1G13lia2d6OemkyyOj11SuxMzMDHsHB/3nlUZ+syq1GjNzc4NtpqRzdnHG2tqGFV99bfTcXHTnZkrZYqqU5CQ0ajXe3t4UFV7Gx9eX9PR0cnNzqK2txdvbm5iYaLx9fElLT6OutpZ27dqZ/P0VFcomdYNKpWqSP23RWhnT1rrm5uVBVSpt/dhYBjjoHpobf6uNamtr9b8xgJzsbFZ9/y0zZ97H2+++z5WiKyQnJXLixDEyjPz2b0Vb6+DKSsNwUbVaRVWlYRnR2LBXmFg/aDQajh07THjEPfrRrAEDAmjXrh0ndKOWzWlLPW7KPePo6NikwwGgXNnyHEYhjPnDNw7yL2rj5nv3brm33RiV2nhc/5Ejh5udv1Ckix8MC49gWlg4p0+eJGrLFpTKctQqDTNm3kuffv1aPbZGo+G9d95GpW46obClZejs7e155dXX0Kg1bNy4gbzcXGpranFxdeXZ519o9bimmvfs8/Tq3ZvtUVEkJiZQXX0NNBrmv/RSk+tAoWjmW9qSRluoG6NQKNDQfA/Mb0JX2RirNBT6JIYVklrV9uUgTc2HdhYWqH8P69HfQr4Yc+TIYWKjo41+dlk3vO/n58/zLy4gJyebNT/+wJUrRTTUNxAQFER4xPQbzkmtO6fWG+qrV33f7Co2N44AaIz1AOr+Thq1pk35oEE7GtBswpuO5evrR0ZGOpOnTCEm+nSr4W/GXLyhnExPSzNpn8asM9Y4VKAxTPQryM3NZVUz75ao0DVkTSlbTFVVVUVObg5eXl4cOXwIHx8/tmyKRK1Wcz4zEy8fX+LiYvHq7cXWrVt+kWPeLlPKmFuta4xpKavNzAwbOQf37+fk8eP06duPPv36ERAYyMjRo9m1cwc/r13TpuMac7t18C/l2NGjhIVFMDRkODnZ2QwaNJi83NwmIxo3+jXq8ebqjbZ2hAkBf4LGQWVlJRkZafj5+dG1W9dmb8hpYeF4eXnx+afLm10ZolTXA2auUDRZreRmw0aM5FJ+Pl+sMOyRaW/VvtVzLi0pRqFQUFZWajAcbor+AYHY2dk3WT3Dzv7Wh6Zv5uHRAS9vbw7s32cQD2luboGtjWHPY2lJCa4uTXv17ezsMTc3R6ksNylNeWkp5ubm2Ds4NFlxysnJhYsXtQ9EGrVGdy6GBV5jz+2vpXFVj8beVIPz0/W+NQ6l3w5T86Gq+irW1ta6Nc2vT0x179Dhts+hLX6pfCm4dKnVJRhDhg9HoVDw0ZIlVFRc7zENHDjQIF2JboK7o5Mj5WXXezitrKywtrbR/iaLtZNua+tqW7zXzcwae0ybjn44OjqgUaupqqrUj0Cakg9lpWU4ORlJpxuFuXmUYvH771FcfIU3//0Of3/8SRa9sZC6Ns45SEpMpLa2llGjx7B3z+5m5yw89/x8CgoKWLtmtf58nZyNnKuLC6qGBioqfp0XUZWWlGBra9NqOWxK2dIWSYmJDBo0hI6dOuLk5Kif1JqenkpQ0KDr8w0Sm843+D26nbrGmCrd3/vm0UA7Ozvat29a99XU1BB95jTRZ05jbm7O3x9/kgkTJ7Fr53aUtzCyeqPbqYN/SaUlJaSkJBM0cBBRWzfj37cv63/+qcV9fo16vLKywmg4lJubm5HUQrTsT9Gk3LghEhQKnnjqGTzcPZp8PjRkGKFh4dTX1zfbMABtz1F2dhb9AwKxsrY2+Gz48BGEhUfoW+cW5uaUlxtW4j08Pent5Y1Cobjeitd1rJmbXc/qxERtXGdwyDCD/a2srHj4kUfx7Nmz2XO00H3PjUP9CoVCHwZ1c+/NrTC3MNcdw/D6xo0fj7mFhcG1ZGak49GhI92797h+jhYWLHr7bR5+5G8mp0lO0sbOBwUGGRyzt5cXtna2JCdpY1wbVxK6uXJqjDO/JbreTzOz5m8HpbKc/PyL9O/f32D4F2BAYAA1167pV625HabmQ25ODgqFokkP2fDhI277HFp0U179VvkC2lWWGhoaDFbcsLa2YcTIkbrPtffc+XTtakSDBwcb7P/Io3/nrXfeRaEwIy0tFVVDA8FDQ5ocZ+a99zEkeKjBNm8vL2xsrr+vxNzcAj+/PuTl5VFfX9+mfEhOOkfnO+6g8x13GKQLCAwAICUpyWB7WVkZVVVVrPzqCzp27MisB2a3klNNXbtWzY7t23BxdeUfjz/R5EHOzMyM2Q8+RJ9+/Sgt1Tac0lJSUalUBN3U+LKytsbX14/09DSDdyX8khITE3F1dWsy16iHpyezH3wIJ13olSllS2MhbErZmJyUiLuHO8HBwygvV+rDNNLT0ujSpQsDBgSgVJZzMa+FN82aUJ78Vm6nrjHmgu433K/fXQbbgwYNMvj34MFDmPPgQwbbVCoVaSnJ2lA8W/s2HdcYk+vg38DRw4dxcnJk9uw5KBQKTrXy9uRfox7PysqiS9euON8QKmZhYUH/AQFt/i4h/vAjB6BdLWHV998yZ+5DvPn2O8TGxnDp4kXaW7XHx8ePnr16kZaaypdfrGj1uzasW8dzL8znpX/+i907d1BRocTbx4fJU6Zy+OBBfWhAamoKgUEDGTlqNHl5ufTw9GTs2HEcOXSIkaNHM3TYMM7FJ+hjM0eMHImNjTWpqamcS4gnNSWZsLBwLC0tSUtNxc7WlgmTJuPRwYNt27Y2e37p6elo1Goi7rmHTRsjsbS0ZMKESWTnZNHvrv74+fsTfzaOnOzsW87PosJCysrKGDVmNBcv5lF99SpBAwfR+Y7OZGSk06VLN7x9fMi6cIEd27czOHgoTz/7PJs3bqC2pobho0Zhb+9AVJR26N2UNLGxsWRkpDPz/llYWLYjLzcXN1c3wiKmU1xczP592klsOdnZKJXljBk7nsyMTCorlQQGDqRnr1t/8VBj3O6UqVMpyL9ETIzx8Jb1P/3EM88+x1PPzOPggQM0NDQQEBiIr68fa9esbnNvrjGm5sPJE8cIC49gzty/YNXeisrKSoaPHPVLRVg0y1he/Rb5AtrVsgYOGsz9D8zh1MnjuLq6ERYewbEjR5kaGkpQ0EDKSkqJjY0hMzODGffeRzvLdhQUFODn609AYBCR69ehUjVQVVXF9m1RTAsL54knn+bEyeOoVWqGhoQQGDSQL7/4HLgeJlRUVMT8BS+zbdtWamtqGTt2HLZ2tqxde30VH1PzYfu2KAYNCeapp59hy+bNVCiV3NmjO1OnhREXE0NGhvGY7JTkJHbv3MHEyVNIOpdAtC4M641Fb2Fnb8/855qfPwGwbesWPNzdGTpsOO++/wExMTGUFBfj6OjIgIBA3N3d2b1rJ3t27wK0Db9dO3cw5e6plJeVk5AQj7WVFeMmTMTS0pLIDW1bPawtdu3YQfDQoTz59Dy2bNpEQcElOnbqxLTQUJTlSiortJ0EppQtlZXakZ3+A/qTl5utW5o33+hxM9IzqKutZeTo0QaNtKwLF1Cp1YwcPVq//G9zTC1Pfgu3U9cYk38xj4z0dIYPH0FlZQVZFy7QrdudDBw8xGCeVE3NNUaNHoOjoyOnTp7k6tWreHTw4O5pYWRnXeDSJW3+9x8QwJNPP8PaNavbPFHZ1Dr4txAbG0N1dTUDBw8hISG+1RGrX6MeP7hvH4GBQTzz3PPs2rEdgDFjx1FRocSllUVSwHg5Yuo28efzp2gcABw6cIDM9AwmTpqMj58vQUEDuVZdzeXCAr5Z+RUnThw36YVByUmJfPj+f5gaGsacBx+iXbt2FBUVsW7tWvbe8CKjNatXY2Zuzox770OhgIy0dJYtWQIaDT6+PsyZ8yBf13xFbEw0MTHRDAgMwte/D++8tYiqqio+XraU0LBwBg4azMRJk6mpqSElJYWvv/rS6KSiRvn5F/nv1yuZFhrK/AUvU1pawv59e9mzaxcKhRnjx0/gob88zKI3Ft5yXqpUKj795CMemD2Xxx5/gms114iJiWH5xx/h5+/PXx9+lCeeeoZFry+kpKSY/7z9b2bedz/33n8/ChTkXcxl8Qfv6SeelZWVtppGrVazbMliIqbPYOKkyTg6OlFVVcm5+AQiI9fpR3zq6ur4fPly7pv1AK+8+hr19fXERJ/hqy9X8Pa779PuFib3HTp0gLsGDCAsfDoFBQXNVuYJCfEsW7qYqaFh/OOxx1GYmZGff5GvvlyhX3budpmaD8pyJcuWfMh9sx7gLw8/QmVlBUcPHyE25gyvL3rrV4sFN5ZXv0W+aI99EHcPDwYHhzBixAjy8/NZu2Y1yUlJ9OzVkxGjRqNWa1jz4w8sW7yY6TNnMnrMeGxtbSgqKuSH777l4A1ziTZtjKSsrIzRY8by2ONPolarycnJ5pOPlulXOmpnqZ1wmpBwlssFl5k+fSbu7m6UK8tZu2a1wYsRTc2HsrIy3nlrEffMvJcHZs/FytqKkpISdmzbpl8esjkb1q/Hx9ePB//6COcvXKCstBQzc/MmYXbGqNVqvl75FdHR0YwaNZqgoCBsbWxRKpXk5ubw3X+/1i9R3Chy/TqUynJGjRrDmLFjqa+vJzMzk/fefbvVkJ/boVSW8/a/FxFxzwymhYVha2tLhbKC0ydPsXXLZv2IhSllS0NDA5Eb1jF1WhgPP/oPVn33bbONA5WqgfS0NPr060dq2vX3c9TX15OVdZ7evb1JSkw0um8jU8uT34JGo7nluqY5ny3/hNlz5zJ23AQUCgXnz2ey/OOlPDPvOSx0v8P4+Hg+X/4J4ydN5KG/PoylpSVlZWXEnDnF1q1b9I0rhZnilkdYTK2Dfwv19fWcOnmC0WO076Jpza9RjycnJ7Hyyy+YFhrKw397FGV5OQf276O0pIRHH3tcHxHQHGPliKnbxJ+PonuPXr+DWY1CiF+Cr58/8xe8ZLDGvxBC/F795a8Pk56RYdDQ/iOaNXsug4cMYf5z81p8iakQfwTS/BPiD8jNzY3HHn+CgYMGG2z38/cHWn+hmxBC/K+ZmZnh7etLTjNvc/+jcHV1Y8SIERzcv08aBuJP4U8TViTE/ydlZWV07dYd/779cHBwpKioEE9PTyZMnERSYiIX86RxIIT4fXNydmbvnt3kXzIe5vV716VrN7p07UJYeARVVVXs2L7tf31KQvwiJKxIiD8oZ2cXps+YgZ9/X+zt7aioUBITHUPk+p+bXapSCCHEL+Nvf/8Hg4cEk3XhAiu/WEHRlaL/9SkJ8YuQxoEQQgghhBACkDkHQgghhBBCCB1pHAghhBBCCCEAaRwIIYQQQgghdKRxIIQQQgghhACkcSCEEEIIIYTQkcaBEEIIIYQQApDGgRBCCCGEEEJHGgdCCCGEEEIIQBoHQgghhBBCCB1pHAghhBBCCCEAaRwIIYQQQgghdKRxIIQQQgghhACkcSCEEEIIIYRtcGauAAAAd0lEQVTQkcaBEEIIIYQQApDGgRBCCCGEEEJHGgdCCCGEEEIIQBoHQgghhBBCCB1pHAghhBBCCCEAaRwIIYQQQgghdKRxIIQQQgghhACkcSCEEEIIIYTQkcaBEEIIIYQQApDGgRBCCCGEEEJHGgdCCCGEEEIIAP4Pnoo5PjuPUWwAAAAASUVORK5CYII=;" vertex="1" parent="1">
          <mxGeometry x="1080" y="500" width="775" height="339" as="geometry" />
        </mxCell>
        <mxCell id="SXNB1z7qJofkc3VJ6PGI-11" value="If you click the link in google, it is HTML tag, so it is accepted" style="text;html=1;strokeColor=none;fillColor=none;align=center;verticalAlign=middle;whiteSpace=wrap;rounded=0;labelBackgroundColor=none;fontFamily=Comfortaa;fontSource=https%3A%2F%2Ffonts.googleapis.com%2Fcss%3Ffamily%3DComfortaa;fontSize=30;fontColor=#000000;fontStyle=2" vertex="1" parent="1">
          <mxGeometry x="1260" y="890" width="410" height="30" as="geometry" />
        </mxCell>
        <mxCell id="SXNB1z7qJofkc3VJ6PGI-12" value="" style="shape=image;verticalLabelPosition=bottom;labelBackgroundColor=default;verticalAlign=top;aspect=fixed;imageAspect=0;image=data:image/png,iVBORw0KGgoAAAANSUhEUgAAAzgAAAB+CAYAAADoZbRuAAAABHNCSVQICAgIfAhkiAAAABl0RVh0U29mdHdhcmUAZ25vbWUtc2NyZWVuc2hvdO8Dvz4AAAAtdEVYdENyZWF0aW9uIFRpbWUARnJpIDAxIEFwciAyMDIyIDExOjI3OjE1IEFNICswN6q8TqYAACAASURBVHic7N13QFXl/8Dx9x1w2VuWgAgCgrgSFRe49yhHmuYoNUel5minZcO0YZqVpl8zS21pWe6t5B44URAQGQKyN5fLvff3B3oV4V6mWf6e1196xnM+55yH55zPec55rmRAy3ZaaqHbmBEApMTc5OqJU7UpAoC+k8YD0KNHd9LT07lw4SIAAQH+uLm5ERsbi7e3N7t37wGgV6+exMfHo1SW0KyZP9u37wTA3d2d4OD2/PrrbwDsWvN9pdtr6ODEi4PH0tDBmYLiQvadO8qWv3czpGNPxvUaSn5RoW7ZH/b+zr7wo7r///n+tzz/6Wuk52RVuV9DO/fBysyCdXs2A7By1ge8t345yZm3AfD3aMJLQ8ZSqCzi8IWTbDt5ULfugHbdGBDcjfziAr7btZmr8dF8+Nwcbmdn4OXigcLIiFXbNhEeE4GFqRnvjpuFqbECiUTC2ahLrN39G1rtvdO6du5i9pwJ46dD23TTPp40j18O7+Dc9Svl4jZTmLJy1ge8uHwBeUX55eYN69KXtr4teP1/S5g9bCJFqmK++XMDAO+Om8n1pDg27N/K2rmLWbvrV/6+fAZft8Z8PPFVRn04g5AW7RjauQ/Tl8/XlelkY8//5i7m1dUfE3EzGgCJRMLEfk/T1rcFKZlpyGRStp04yImr4ZgYK3hpyFiauDZCC/x6ZAcHwo8DEOTbnAm9hyOTSUnOvM2yLevIKcgzWN7d7b369GQaO7sTnRzPp7+s1p2jif1GYKYwRSaVcfD88XLHsLLjaqYwZXL/kTT18Abg8IWTuvkjQvvTo3VHAM5GXWbNzl/wcHThhf6jeOu7z1j9yke8uGIBE3oN51piNEcuntZ7nu56sF4B9AkKoccTHUjJSCctN5OB7bsz8oOXAXBzcGbqoNHYWdqU7cOuXzkTdQm5TM6EPsMI8gkEiYS8wnw+37yW5Izb/P7uN+w8dYQWXn4UlhTx2S9rSM3O0LtPWq0GFztHZj41AWsLS4pLlHy99Ueu34oD4MPn5rDl792cvX4ZNwdnFk2cx6trFpOccVvvcQUY3qUf3Vt3ACAlM42FP35Z6+MqCILw/0Ur7wCGdu7N/O+/0E0b2+spzE3MWPlX2TV8aOc+eLm48+mva3TLfPjcHPaFH+Pg+ePlygto1IRXhj7P5KVv6qZ5ubizYOxMxi+ZW2H7o7sPxkgu5/s9W8pN93B0Ze6ISdhaWKNFy9WbMazY+kOFe4/7rXjqZKXTp+8YxnOtZtHWtQsAO6M388PFFWi0Wgb5jmJM86kV1ll1djEyqZxJrefopr30e3u92x7dfTCmxgr+t+tXjI2M+P7VTzh17SJLN681eM2Dyu/rDPl40jx2nDpU6fVK33XXo4Erc5+eRGJaKqlZaXRv3VF3Pn6b/xWjF82iRKUipEVb2vm15NNf12BpasErw55DrVFTqCymXdMWTF++gKy8HIPx3dXOryUjuw5kzqoPAXhr9HRaN2lGQXGRbpl3vvucFt5NsTAxY1/4Ud4YNZ05qz7ky5cWMP/7L1CVqqq8j53x5HgiE2PZfSasWnE1eMIfSW0TnLb9e5GfmVOn5AbuJTj1TV+C81/14XNz+PXITs7HRNS5LD/3xrw4eCwzvlpYYd6IkP7YWFixesdPdd5OXSiMjFGqSpBJpSx/cQEfbPiq3E38oy7vn2DoPAmCIAhCdVSW4PxTTIwVrJr1ITO/Xkh2fm6dy/ts4EEURmb1EFlFSlUhc7Z1eyhlC3VT0wTHoZUf8tpu7PSOvbVdtZyS4mKMTUzqpaz7yxT0i0y4ofem+dcjO/7haCo3f+wMTIwUSKWw+0xYnZOR+i7vn2DoPAmCIAhCdShVJdhZ2rBw/CwWrF+OVqv5x7ZdXKKstFentk4m7iCk8fB6K+/BsoV/nznDJ+Lh2JBz0ZW/yVIZLdS+B6e+NPRtgl+7NvWW5JQUFxN56ixJUYa7/wRBEARBEIT/lqdbzaO9W/9668lRqgo5mbiDX85/Ui/lCY+eU5uAR5/gCIIgCIIgCIIg1IcGrZsifdRBCIIgCIIgCIIg1Ae5XC4SHEEQBEEQBEEQHh9yf2vHRx2DIAiCIAiCIAhCnWWo1ch/T7r+qOMQBEEQBEEQBEGos46e1uIVNUEQBEEQBEEQHg9SmUwkOIIgCIIgCIIgPB7kMjHIgCAIgiAIgiAIjwm1Wi0SHEEQBEEQBEEQHg8KE5OaJTimpqa8+ebrdOgQbHCaIAiCIAiCIAjCP62oqLBmCU5RUREAY8c+q0toKptW30aGvEOXwFG1WndCz08I8hlQzxGV1/mVFjy1KpQBn3es1vJmdgqaDvCodvkOvjYM/rKzwWXc3T14//33K0y3tPei05iN5aZ5t3se/9A5esuydW1JA89Olc7zCX4BqcyoGlHXDxvnQEImbKl0Xrvhq3D26fGPxXI/I4UlncZsIGT8Zpp1f+OhbMMn+AWD56nG5XWcVq/l1UXvl44ikcjKTZNKpSxduhRra+tHFJUgCIIgCP91Wo225q+oLV26jMTExHIJTWXT6tO+82s5H7O33sutD8bmRjTq7MLvUw+zffaxaq1jYmuC3wDPeo1j/PixbNmyuV7Ksm3YigZelSdU3sGTkUj/uQSnSfAUok+sqTDdqoEvZtYNSYk+8I/Fcj97j3YoCzI48v0wrhxY9EhieNxoNBr27t3DiBHDH3UogiAIgiD8RykUCuQ1XamoqIilS5fxyiszGTv2WQCOHz9R6bTq+HD8QRb/OpzcwgzdtD5tXsBIpuDI5U1M7LMUR+tG7DjzNWGXf9It88WUcPaFf4eznRcNrDz4dtfLZOQmIUHCsM6vE+DRhaz8FGTSe0+JG1h78Gz3DzFTWKMqLeanw+8Rn3bFYAzbTn2pN/ag55vi0tIBYzM5Az7tSKlSze43TwLg18+DpoM8kUohJ7GAI5+ep7RYTadZLXHwtcbG3YIBn5X1+Ox+8ySlSjVGZnLaT2tGAz9bpFKIOZjE+Q1lv1MklUnpMrcVLs3tyE7IZ+/802g1WgBsbW3x9fXjo48q3mhrNKWoirMrTDe1dCJ45Fos7BqTcGkzkX+vQCY3of3TqzG1dEIqM8bGOZD8jBtc3D0fz9bP4OrfH7mRGcFPr0ar1XD10Gdk3TpPh5HfoVLmARoU5o5E/v0l6TePA+DYuAv+XWej1WhAIuHcn7PJz4zTxeHX+WUyk8JJu/F3hRgt7Btj5ejL2T9nVZjnHfwCMSfXgFaLe4vh2DgHcmnPu7r5EqmM3i8dQ60qImz9MJQF986tT/ALKCwccfDsyKE1/cuVG/z0GqJPrCY9/mRlpxyA9k+vxszKFSNTGzqO/oHMxHCuHfkcW9eWBPZ8G6lMjkaj5saZH0i8slW3XpPgyTQMGIQECYU5iZzaPA0AjxYj8Gw9ColUSn5mHOd3vIVaVQiApYM3HUf/gMLMgcTLv3P9xLdlx9UrhKahs5FIpBTlJHF+51uUFGYiMzKlZZ/3sHL0B4mE6BOry8VwV6NWI2noP4BTm6dRWlKgd18BHL1D8ev8MlKpEepSJWe3zqQoN1lvDEFPLkcqN8bS3puU6P008OxMXPgm4s5t0JWpLMwACaAtv62wsDBWrfqWtWvXodGoy81bu3Yte/bs5qeffjYYryAIgiAI/3+VqEpqnuBAxSQnIyODqKjrlU6rSkzyOTwdW3I18RjONl4kpEfg6diCI5c3kluYztLfxzIy5J3K1005x7ZTy+nbZiqdm41k6/HPad64O01cg/jwpyGYKaxYMGanbvlRoe9y5vp2wi7/RIBHF57r9SnvbexnMAZDzqy9hpmdgiFfhbB9zr3eG6dmdjTp5ca2WUdRl6hpNcaHFiObcO77SI5+cQE7b2u6zGlZbh2AdpMD0JSo+X3KIdCCjYelbp6NpyX73z/D36lFDPqiM66tHUg6mwZAs2bNiI6ORqPRVIixICueU5unV5hu2cCPsB+eRiY3pefUfUSf/B9qVRHHNo7Fq+14TCydiTiwWLd8XPgm4sI30XfWaU78Mll3A35XYW4SEQcWY2btTsfR69m/sidarRqfTtOJOPgJaXHHkBmZwAOdhm6BT6HRlFaa4Hi3m0zMqbVoH7jRNbV2w65hK85vfx2ArKSzNH5iNAAW9t4oC9Iws3IlPzOWotxb2Li0JD3uGOb2XuSmRmDj2oK48I24+PXCyMQKmVyBRKagKDcJKyd/spIvVIjlfid/mUxD/wE4enclfNu8csf62KaxqFXFyIxM6fHCblJjDqMqzqah/wCcfXpx9MdnKC0pwMLeGwA7tydwCxzC3xtGoylV4tNxGk2CJxEZthwAM1tPwtYNBYmUrhP/4nbsEfKzbtJ64GKObRxLXno0/qFzaNplJhd3L8AraBxIZRxaOwgTcwdCn/+TjPhTFOUl6+L0CpqAo3cXTv72AmpVscF9NbNuSKv+H3H0x2coyIpHYWaPRqNGZmSqNwaA+Au/YWbthpWjH6c2T6f1gEXlEpzDawdXur28vHxycnLw9PQkNjam3Lz9+/dXq00RBEEQBOH/L4lEUrsEpz7FJJ/D07klUqmMUaELeGNdCB6OzYhNMXyTCRCbHA5ARl4CAR4hAHg5t+Jy3CHUGhV5RRnEJJ/VLe/l3Irv9s4FICI+DFtLZ8xNbOoUQ2Xc2jli0cCUvovaAyAzlpIVl1f1em0dy3qA7jzVzo6/t072zTzyksuSiozYXMwbmOrm2ds7kJmZWaMY0+OPoylVoilVUlyQjsLMgcKchBqVcb+Mm6cAKMxJQKtVY2rdkMLseDLiT9M0dDZWTv5k3DxJdsrlcuvtX9m90vJMLJ1p4NmhXK/MXU3aT+TGmfVoNaUA5GfcwMTcAZmRCa0HLiYp4i/UqiIyE89SlJuMrWvZuQ3stYB9X4dg7dSMrKQLZCWdx8YlECfvbphYNODakS8ozE6q8qZfH6lURkDvdzG3aYhWC3KFJaZWTqiKs2ng1YXEy7/rekvyM8pu3h29QjC1cib46bLX8GRyY3LT7t3EZ9w8jrq0LJ70m8exbdgKiVROSWEGeenRACRH7aFVv48AsG3YmoRLfwBQXJBOVvIlbFybUxRZluC4+g/A1MqZsPUjqrWf9h7tyIg/RUFWPHCn54Wyb6P0xQCgKs6mRGGBsjADVXE2RibV/64mKysLBwe7CgnOhg0b9KwhCIIgCIJQRi6V1S7BMTU15ZVXZuLm5sYPP/xIVNT1SqdVR0zyWYZ1eh1zhTWno/6itVdv8ouyUKoMvzYDZa9fAWi1ILmvZ0CjvffEX31nGR3tfe/EaMvekalLDJWRSMpeLzuz9loNV9Q/S1N6X++MVovkvmVVKiUKhXGNNqUpVZUvT2pg49Ugld2rShKJTBfftSOfk3hlKw6Ngmnz5HIiDiwiOarq76m82z5HXPhGNOqSctMV5vY4N+nGgdVLyk3PSr6Ik3c3clKuYOvSklJVMSlReynOSyag++sYmViTdPUvnH17U1KURWlJAZmJZ7F1aYWJpTNatQpbtyCyks5SWwHdXiUvPVrXs9Rjyh7u9ljpP7oSkiK2c+3I0mpsQYL2Tv3VPvBql7bcu14Pzrz3/7z061zZ/yGtBywm7PvhuuRJ7xYl+iM3FINWq0Wr1egWenBAAUOMjY1RKlUVpltaWlJaWqob2EQQBEEQBOFBUpms5oMMPJjIHD9+otJp1ZWUEYWjTSMsTG05fnUL/dpOJzq59jeZMcnn8HYJAsBIpqCxU0vdvNiU87TxKfvmItCzK1n5yRQU51QrhnHjxhEUFFStGBJP3ca7uxtm9iYAKCyNsfe20s1XFagwsTKucNebcPI2AU821iUb1u4W1dpeXNxN3Nzcq7VsdaiKc1GY2uqZl4exmV2F6c6+PQGwdW2BVCqjMDsJKPuOJj8jhrhzG7gdexgz2/KjxzUNeQVHr5By04xNrWno34+4c5sqbKdxm/HEX/wNtar8TW5Gwll8O04nNfogGo0Ke/cgsm6dIzctCnPbRijMbEm4tAXfTtPJTCw7txmJZ3Fp2pfCrHgyEs/iFTSOzMRzujKNTGxo0ec9zGyqN+KdkakNOWmRAFg5+mNq7aablxpzBPcWw5Abl51TS3svAG7HHqFhwCAUFo66bVo7NtWt5+DZCZmRCXJjCxwadSArKZy8jBgU5vZYOfoB4Nq0H1lJZb2ZWUnhNPTvBxIJCgtHbF1bkJ18r9csLy2KlOv7yYg/SWDPN8vF7x74ZNkrbvdJv3kCe492WNg3BsDY1BYjExuDMdSFRCKhYUM34uLiKsx7//33eeaZZ+q8DUEQBEEQHl9SqbTmPTiVJTK1TW4AtFoNtzKuk5wZza3M65gYWxBzq+wGNCTwGdr49MfRuhH+7p0J8hnArjPfcDVB/2hll+MO4efWgZcH/w9lSSFZ+Sm6eT8dfpex3T8ktPlolKoi1u2bV2UMd3Xt2pWSEiVnzpypcp9SLmcS/mMUfRcHI5GARg1n1l4lIyYXgLyUQlIupvPUNyGoitXseu0EpUo1p9dE0H5aM4auDgUg5sC9QQYMuXbtGlZWVtja2pKVlVXl8lXGf/0gjVqNovPYn8lLv86FnW/r5sWcXEPwiJWUFOUScegT3U2tRl1KyIQtSOUmhO94He2dXjSfDlOxcQ5Eoy6lKC+5Qk9Fw4BBqEuLuR17RDfN84mxxF/6g9KS/HLLyo0t8Gj+JAf/V/H7jaykszQNmUX6zRMozO2wcW5GSVEOUNZrkZceTV7adeTGFmQklJ3b3NvXMLNuyO3YIxTkJNG81zvlExyFOY1ajSTxyp8UZsdXedyijn5Fsx5v0NB/IKXKXN1rXQC3ru3AzKYhXcaVDZRRkJXAqc3TyEw8y/VjX9Fh5FokEgkajZprh5eSc7us9y8/I4bgp9eiMHfg5vlN5KZFARC+7TVaD/wEqVRGQVYC53eWJSuxZ9bTos9Cuk7cjgQtVw4sLvf9zV1XDi4hZNxvuDbtx61rZd+p2TcKxtTCidgz63XLFebc4vyON3li0GdIZcaoVUWc+WMGRbnZemOoCx8fXxIS4snJKT8whlQqxcnJmfDwdXXehiAIgiAIjy+NWo3E29tPW/WiZezt7Zg1ayY7duzUJTKVTRP+eUOGDMbU1Iyffvqp6oXrWYeR3xF9cjVpcdUbJtsQmZEp3V/YxZF1Q8uNfAZlo58Zm9mLYZkfYzNnzuLEieOcPFl+FDtvb28mTZrEG288nN8cEgRBEATh8dC1W6eaJTjCv5dMJqNPn77s2LH9H992fSY4wv9fUqmM/v37sW3btkcdiiAIgiAI/1Ht2rcWCY4gCIIgCIIgCI+HDh2Daj7IgCAIgiAIgiAIwr+RiYmJSHAEQRAEQRAEQXg8lJaWigRHEARBEARBEITHh0hwBEEQBEEQBEF4LGg0GpHgCIIgCIIgCILweFAYK0SCIwiCIAiCIAjC40GjVosERxAEQRAEQRCEx4REfIMjCIIgCIIgCMJjQqVS1T3B6dChPb169ayPeARBEARBEARBEGpNIpHULcEJDQ0hMDCQ/Py8+oqp2gZ9eZq+Sw7SZ9Feui/4A0f/Dg91ez0XbsPSxeuhbgPAxMaJ7vO3EPraD5g7ejy07dh5tcQxoFON1jGxdqBxyNMPKaLqWRnyEe0dW7Ek+E16uXX5R7b5tPdA3m87t9y0vu5dWdZpQb2UX9N9kinMCJm3nh7vbsXazbdeYhAEQRAEQXgcSKXS2ic4oaEh+Pr6EBV1nePHT9Y5mFGjnsbTs1GN1gn7dDy73+hF1M7VtJu6FInk4b1xd/rbORSmJz208u9yCuhAXnIshxePpeB2/EPbjp13K5wCO9doHYVVAxqHjnxIEf23nLh9ls8vrnkk21YrCznyyThSL4fh3KLbI4lBEARBEATh30gqlSKvzYr3JzeHDx+pl2AsLS3p1asnYWF/c+1aZI3WTTm/H+MXPsPYwgZlXiYtRr2JVC7HwrERMmNTchKvcf7HhTg1D6HZ0NlIJFKKMpI4u+4tlHmZtJ+2HJmRMZYu3iSf349js87EHtxE7MENOAV2wa//C9g0as7BD4aSlxyr265TYBcCh81Gq9GARMKpVbPJT41DKjMi8OlXcWjyBBKZEbfO7eHqnyuqtS8yYxNURfk12n8AqdwY1yd64dl5GOc3vEd+6k38+k3GPXgwGrWK0uICjiwZi8zYhE6zVmNq64RUboytZyB5KTcIXz8fgNbjFmLn1RKNqoSirBTCf1iAMi+T1uMWYtuoGRbOjQl59QcAjn4xGXVJMSY2TrQeuwBTGyckUikRW1eQfH4/bSd/Rl5KDDeP/k5RZnKFmE1MFHToEMy5c+fJycmp1n7mlOSh0pSSp8pHqS7RTV/ffSm5Jflo0eBo6sCyS2s5lnIWKOuBGe0zBJlEyo28BF4/sZjC0iIm+Y8iqEELckvy8bZqxOHkEyy/9B0AQzx782LgOHJL8rmZl0RhaZFuW8s6LcDPxpvI7BhmHn1PN3116MekFmVgIjMmwNaXJedXcujW8bLyGvfi5cDnyCjOIj4/ieLSEt45/anBfapKaXEBcoVptZcXBEEQBEF43EmlsponOG3atMbX1wcACwsLBgzoX2GZjIwMTpyoXa9Oly5lvQo1SXLc2g+iODsNZX6Wbpp9kyAOf/xM2U2gsQkyY1PaTlzMkSVjyb0VTbNhcwh4cibhP5S9ZhQX9htmDm5Yu/lx/MvptHl+EbEHN5B6OYzUy2H0XLitwnabDprOpV8/4XbEMeTGJmjv9CD59J2IRlXCgfeHIZHK6DTrWxo0DSbt2okq98XCqRGqguxq77u1RwCenYfhFNCJ1IijRPz+BfmpN5EZKfAf8jJ/zWiHuqQYhaU9AOqSYo4sGUuTXuMxtXXm0i+Ly5UXuX0lhRm3APDtOwm//i9w8eePCV8/H2t3f9pM+IAjS8aWWyfo+UVE7/2elEuHMTa3ots7v5N27SSXfv4It/aD6PDiCpT5WcSFbSY5fB8atQoAY2MFLVu2JCrqerUTnNdOLALgXPrlCvOSClNYdO4r3C1c2dBjOd3+HEkrhwCeatyHkXtfRKku4cXAcbwQMJovLv4PAHsTW6YdeQuFzJijT21hdcQmzI1MmR80kwE7niOtKIMfey4lOvteb9rMo+/R170r/TxCK8SQrczh0wvf0qZBc15vPZ1Dt45jp7DhnTYzGbTjeVKL0lnX7TNu5t3rDTS0T4aUFGTj4Nu2RusIgiAIgiA81iTUrgdHt75Eomd6XUqtfpIT+uoPaNRqijKTOPH1S6DV6ubdOreH0uICAEpLirH1DESZm0HurWjd/DYTPtItX1KQjdzEAmVeBqrCbIzNrauMMz3yNM2GzsbGw5+0ayfJiiu7QXVuHoLc2AS7Oz0dclNLzBu4G0xwZAozur6xCRNrBw68P7zKbQP49Z+Cb9+JXNj0IRd/XoRWXaqbp1Ypyb4ZQdtJn3A74igpFw9Xq0wHnzZ4Pv8xSCQYW9iSn3LD4PJSuTENmrZHKjfCt98kADSlJZjZu5CbdJ3oveuI3rsOazc/Wo99j2ZPzWLPW30AyM3N5Ysvllcrruo4mRoOQEL+LTSoaWjuTKhrMC7mjnzXray3RCEzJir73j6Fp19Gi5ZitZLM4mwcTO1obOlOVE4MKYW3AdibcJTGlu7ViuFukpKQfwtnMwcAAu38iMqOJflOeQdvHcPLsmavY1Ym/vhf+PR+jl4f7OTY8ikP9ZVGQRAEQRCE/4ISVUnNE5yzZ8OxsLDE19eHvLxcDh8OexixVcvhJfq/U1EVVRz4QPvg/+9LiNBq0Wo1aLVatFqQSGVVbv/Kls+JP76VBk2DaT9tORd/XsStc3tBIuHy5k9JvXKs2vuiVhay/90htJnwAR7Bg4ncsarKdW4e3QyAT5+JuLTsys3jf5J6OUyX6BxePAa7xi1wbNaJ7gt+Z9+CIRRnp+otz9zRg4Chszn4/jCUeZm4Bw/GLahP1cFrtfz9+UQ0pRVfr7J0aYJHh8G4tu5BZuxF4o4srqSA+iGX3qvOMokUiQQkSPgrbj+fXfi20nVUmntJoRYt0jvZealGo5uu1pZWWE+fUo36vrIe7ijsrq17kpccy7Evp5VL7gVBEARBEP6/Uqtq+UOfhw8fISrqOr6+voSG1v9IVrX5DqcqubdiMLGyx9rNDwC3oH5kxoTXqUxL58bkJccQe3ADKRcPY3Fn1LOUi4fx7jEOqdy4bDkXL0ysHatVZlZcBKa2ztVatjgnncgdq9j/7mBiDmzELagPfT7ag6mdCzJjE0xtHMmICefatm8ozk7D1PZeDKrCXBSWtuXKU5jboMxJR5mXCYDrE73KzS8tysXYwrZcF52mtIS0yFP49p2om3Z3RLt2Uz6nzYQPKEhL4MAHIzj73Rtk3HfMTUxM6NGjO9bWVfeWVUfvOyOQtbT3RyaRkZifwuFbJxjs2QtH07LeFBtjK/xtmxgs53JmJN5WHpjJy75vae/Yuk5xXc6MxNfGC2czR6QSKd1cO9apvLtMbZ3ISYwUyY0gCIIgCMIdCoVx7V9Ruzu4gK+vLyUlJfUykho8nOQGQF1SxOn/vUbQpE+QymTk307g3Lo3q1yv9biFWDo3xszejaDnF6NWFXPym5ko8zLxGzAVW89ANOpSijKTifhjKQDXd/0PxfA59FjwB0gklBRkc2bNa9WKU6tVI5HWPO9MjzpNetRp5CYWaDWlyIyMaTf1C+QKMyQSCSmXw3Sv0AEknz9I49BRdH3zZ/JuXefsurfJjLtETsJVOs1ajaowF2VOermkqCA9ifSoU/SYv4VSZRF/f/486pJizqx9g1Zj3qHX+9uRSOXkpcRw++pxLm76kOLcDL0xGxsb07x5INeuXav2NziGqDSlbO27BhOZgldPfIRaq+ZM2kVWXF7H990/Ryop65n57MK3XM2K1ltOpjKbJedXLCGsbQAAIABJREFUsbbbJ6QXZSGXGunmtXZoxrxWU7BT2GBnYsPGnss5mHSc1Vc3GSzv/bPL+LHHF2Qqs4nLTUSpqf5gAvpIpNKyAS4EQRAEQRCEOyRIvL396vT4t0OH9ri4uLBlyx91CmX06FEcO3acuLibdSrnv67hE71o1GUEx5a98KhD+U9Z330pqyI2cDTlzKMOpVKmcgVFpUoAPmw3j/MZEfwas71OZT4x/n1yEiOJ2f9jfYQoCIIgCILwn9elS3DdBhkA6q3nZuPGn+qlnP+6lMthuLbpS+hrP3Dmu7fEh+OPiZcCJ9DRqQ0qbSmxOfH8Hru71mXJFGZ0mrkKVWEuiad21GOUgiAIgiAI/3FaTd17cARBEARBEARBEP4NunQJrt0gA4IgCIIgCIIgCP82mtJSkeAIgiAIgiAIgvB4kMqkIsERBEEQBEEQBOHxIJPJRYIjCIIgCIIgCMLjQa3VIH+qoc+jjkMQBEEQBEEQBKHOsqUy5Fdzbj/qOARBEARBEARBEOrMVeokXlETBEEQBEEQBOHxoNFoRYIjCIIgCIIgCMLjQVWqEgmOIAiCIAiCIAiPB6lUiry2K/eUOzDYyBEvmTkAseoCtqpus780vd4CFARBEARBEARBqC5jY+OaJzjmyFlk6qtLbO7ykpnziqwxQ9SOvFEURQGl9RaoIAiCIAiCIAhCVdSlpch8nRu+W5OVPjfzL5fcrFbGc06dQxu5NQC2UmPayKzYWZpW7TLNFKbMHDqBqYNGM7hjDxysbAmPjqhJWA+NXCZn2uAxTBnwDP3bdSUjL4fEtORqrdspsA2juw3i6JWz1d6elZkF/5vzMVv+3l3bkAEIaNSE1bMX0aN1R57s3JtmjXy5EBtBiUpVp3Lrk62lNV1btif61s1qLd+tVQc+n/oWPVt3YnCHHrT0bsrZ61dQlaoYGTqA8X2GMqnfKH47srPOsY3qOpAg3+acj7la6zK+f/VTDl88SXGJssbrNnX35rOpb/FUp96M7/UUT3Xqw6AOPegcGMSes2H8Nv8r/ji2F7VGU+v47vdszyd5ecg4nuzUi5AW7TgXfYVCZVG9lF1dAY2asGDsDIZ16UtAoyacvX6ZUnX1HpR8PWMhF2KvkVuYX+3tTR00hgY29kQnxdUy4jJvP/sSUwY8Q7+2oQzu0AOJFCITbhhcp6r6Wl/tQE1UVl9rc1wfZG9lw4KxLzO251C0Wg2RCbG6eW39WjDjqXFMHTiGM1GXyMrPrdM+/Bs9rONaHSNC+hOVeAON9l47sWDsDPKLCkjO/O+NoFrTa4ZQPeK4Co8bKw+Xmn2DM8TIicZSs3LTtqpS2apKLTfNS2ZOT7lDtcudMvAZlKoSJiyZx/Ofvs7fV87UJKyHakjHnrjaOfLC0jd5f8MK5gyfiJ2FTbXWvRh7jfV7/6jR9gqKC1mw/ovahFpBWnYGk5e+yZTP30RhZMSoroPqpdz6YmthRd+g0Bqtc/VmNJOXvsnkpW+iKlUxqEMPAH4+vJ331n/5MMJ8JK4lxDB+yVzGL5lLxM1oVm3fxPglc5m76qN631aHgCdo7unHi18uYOJnr7N8yzpKVCX1vh1DjI2MeGfMy6zctomJn71OsUrJ+F5Dq73+kl++5XZ2zV6P/T1sF8dr8PDBkPV7tzB56ZvM//4LxvZ4Ck9nN4PLV1Vf67MdqIvaHNcHZeRm8/qaTzh6ueKxPh15kdfXfPKfvNmui/o4rtUxPKQfcpnsoW/nn1Kba4ZQNXFchceORluzV9R6GlU/aRls5Mi+anyPY6YwJbRFe8YvmYtGqwXKP/18of8zyORSXO0cURgbcyMlkW/+3ECQb3PG9x6KBCm3s9NZ9vs6cgryABjepR/dWgVTqlZTVFLE62s+AcDJxp45T0/CWGaMXCbj50PbCbt82mB8Qb7NOXj+OBqtlqT0VGKTE2jl48+B8OMAfPnSAo5dOUdLL3+M5EbsPHWIfeFHeW3kCzRycuNmaiKLf/5WV56FqRlzR0zGwcqWyMQbtPNrwYyvF5KVl8OIkP60a9oCFztHnv14tm4dH1dPXhn+PJfiInG2aYBGq+GDDSuq/fS+VKPmfHQEgV5+QFmv1PN9hxPg4YNcJudYxFk2HvgTgIYOTsweNgmZVEpE/HW6tQrmmQ9n4ePqydRBY5iz6kMAXhwyluikOHafCcPeyobpg8Zib2WDVCph4/4/OXHtPABtfAIZ33soGo0WiUTCkl9WkZSeyktDxtHEtRFuDZz5eNI8AOav+4KS0ur1MMmlMkwVphQri6tc1lBdcXNwZsqg0diaWyGRSPhu92+cibpUbv1+bUMJadGOhT9+SZGymAAPHyb0GYbCyJjiEiUrtq4nIS0ZSzNz5gyfhIOVLdG3biKTln9+YGlmzpgeT/LH0T2kZFa/h1OfIR170bVFewAW/rCc1OwMg+dWH2e7BqTlZuqOfXzaLd28pu5eTBn4DDKpDLVGw1/H93Pg/HEGBnenW8sOmCoUXLwRiY+rJymZaXzya1ld7xPUhX5tuyKVSkjKSGXZlnUGe7J8G3qhVJVwOS4SgIPnTzDjyfGs3LYR0N8OtPEJZERoP3waNmbm1++X612d1H8kQb7NSc1MRy6TsfvsEY5cPI2tpTWvjXwBV3tnNh38i52nDunW+W3+V/xxdA9uDVxwsXPko41fkZqdUe1zkpx5m8T0ZNwcnIlLSWREaH+6tQwGIDw6gjU7f0GrNfx3q68dgMrr6+W4KP4352OmLXtH1yOw7MX5rPprExHx1/Vux1B9NXRc9bWv+upKbbnYOTJz6HgsTCwoKVXy9V8biE66ybp5S5j1zQdk39fbMyKkP8ZGRvx8aDuzh03Ew9EFjVbD+ZirrN31a5XbCvZvzYD2XckpyMPRxgGZVMacVR8abNteGjKOpu5eqNQq0nOyWLH1B3IK8mp1XA218YauGfr0b9+VkOZtMVUoWDj+FTRaNet2b+FaQgwALbz9GdNjMHaWNqzY+oOuzdPXtlVF33WwsnbAydaBd8a8RFZ+Dhm52RjLjXCydWDOqo8oLlHqba8NXTMMnSdD9LUrho6Dvvqvr75CWbsyetEsSlQqQlq0pZ1fSz79dY3BGO5uq2vLYCQSSM1KZ+GPZQ9Fatq+gv76WtdrsSD8G0llspolOA/23hjy4Dc6+jjbOVBUUqS74axMMw9f5q1eRJGyGIWRMSbGCmYPf57X13xC/O1bTOg9jGd7PslXW3/A2MiIMT0GM/KDGZSUqrAxt9SV0ycolEs3ovhh7+9IJFIsTaveH3srm3KvTWTl5+JgbVtuGUcbe95Y+wlarRaFkTEAi3/+lk6BbejcrE25ZUeGDiAlM4131y8j0NOPPkFddPN+PbKD3WeO8PWMhRXicLSx58e9W8kryueD52bTwsuf8OgrVcYPYCw3olWTAPacDQNgWOc+qNRqZn3zPlKJhPfGz6KlV1MuxF5j6sDR7Dx9iH3njvJkp97VKv+VYc/zx9G9nIm6hIWpGcteXMDFG5EUKosY1W0ga3f9xvmYCBRGxkgkEgBWbF2Pl4s7M56coLtAVEdTD29WzvoAO0tr4lIT2X7fzWllDNUViUTCW2NeZOP+Pwm7fBq5TE4DG7ty6z/ZsRdtfAN5d/0ylKoSzE3KXqd867vPSM/JJKBRE14aMo7X1ixmVNdBJGfc5t31y2jdpBk9n+hUriwzYxMGtu/GkYsn6yXBScvK4MUvF/Bcn+H0bRvK93u3GDy3+oRdOs3A4O58OuVNzkdf4dDFU7obr1sZt3l9zScoVSWYGCv49pWPOB1ZdjMUmRDL/vCjvDl6OhM/e521cxcjl8nxbdiY7q068uqajylRqRjVdSDDu/Tlx/1b9cbgYGVDVv69G7bs/Fzsrcr/nT3YDgCcvX6Zs9cvV/ibaefXksBGvry84j1MjBR8O/sDuNOBkJWXw+trPmHqoDGVxhIRH82P+7cyMnSA7rhWV2Nnd9wbuHIzNQl/jyb0btOZl1e8R2lpKR9NnEeX5m04ctHwQxV97YC++lpcoiTs0mm6t+7IH0f34OXijpFMbjC5AQzWV33H1VD7qq+u5BXV7jWs6UOe5fDF0+w8dYg2PoHMHTGZqV+8TcTNGPzcGxN+PQL3Bi7EJMfj596Y7ScO0tzTFwcbG15a8S5Aufiq0szTl5lfLSQhLVlXvwy1bb8c3s7tO8nvsC59GRHanzU7fq7VcQX9bbyha4Y+O04eYsfJQ/z89pfM/35phZtfCxNTZq/8iCDf5ozqNpAzUZcMtm3V8eB1MMDDp9J2IOzyGYpKinl19WJ+emsZL694j7E9n8TP3YvIhFi97bWha4ah81SVB9sVQ8fBUP3XV1+ro7K2LaRFWzo2a62b7t7ABUDvcTXUvgJ662ttr8WC8G+mVqtrP4raXV41SHoqI0GC9k7PjT7HIs5SdOdJvVJVgo+rJ9n5ecTfLnvSfPTKOWYNnQBAiUpFTHI8856ezLnoCM5E3nsafy0hhimDRqPVarkWH8PZ61UnCHdvyO/3YLgHzh/X7YOyild7Ahr5sm7PbwBcjoukoLh63zkkpafqbhRSMtMrJFmVcbR1YO3cxdhb2XIg/BjHrpwDoI1fIAojhe5pjbmJGc52DbgQew1/jyZ88stqAI5fOcvIrv0NbsNIbkTzxk2Ry2QMD+kLlI0/3sDGjpupSVyOi2J876F4X3LnYmwk12/FVWt/9bkWH8Nb332GTCpl+uBnebbnk3xn4Amtu4OL3rriaG2HpZmFrhevVF1Kcsa9V2VCWrSjgbUtr6z8UHdefRo2xtrckrkjJuqWszQrS+abunvz/d6ycxsefUVXZ+9Kzc5g4NuT6rT/9zsVeRGA2OR42vg2BwyfW33SczKZsvQtWno1paW3P5+88Bofb1rJhdhryGQypvd7FicbB5BoMVOYYG9d9opmblE+uYUF5BSUPQAoLC7CTGFCG79AHKxtWTh+FgBGMmNupiYa3plK/s6g/B/ag+2AIQGNmnAq8gKqUhWqUhVXbkYb3v59rsaXPeVOyUrTHdeqTOgzjJFdB1JYXMzKvzaSkJbM0M59OBd9RXdzefJqOAEePlUmOPoYqq87Th7ijdHT+OPoHnoHhbDz9OEqy6uqvlbGUPuqr67UNsHxd/fm0ztt0dnrl3nDyhZLUwsibkbh19AbqUTG9EFjGLdkHk1cG3EtMRZzE1McrR2YNngMEXHXdcl4dUQlxuqe0itVJVW2bQGNfHhl2PNIJGBlZklSegpQu+MK+tv42l4zDDkVeQGA2FsJONx5kGCobauOB6+DhtqB3MICtFot+UWFZOfnkldUgIWpmcH2Wp+qzlNVHmxX/D0C9B4HQ/VfX32tTv2vrG1r49OcfeHHdNPv1s1ata+gt74KwuOouKi4ZgnODU1hhV6c5WbN9C5bHSlZaZibmGNtbqm3F6eguOqy7k86Xv32Y/zcvWndJIDlL73DS1++S0ZuNqciL3D9VhwtGzdlREh/nmgSyLc7NgFlH/V+NuVNAC7euMaXf6wHID0nC1sLK13ZthZWZORk1Ti+uipVq3X/1qJFWukNYXm3s9KZvPRNnGwdWDRxHl1bBnPowgkkSFi36zfCYyofyEF3LO/bhobyr9XIpbL7ltfyzrovUFXSpf39ni0caHCcll5NeWP0NFbv+JnjEeeqjL0qao2Gvy+dYWK/p/mOuwmO4UT5Xrx3/lHFMYy/fYtvt21i9rCJzPr6fUpKVUiAhLRbep903f/aYH0NAKBPqabsA/z760NV51ZvWepS3dPlnII8OgcGcSH2Gs/3GU787WSWbl4LwOpXPrpX97RatGjQaiW6OGQyGRKthMMXTrF+X/V7Psr+zqx1/7exsCL9EfydAag1ZX9r1f07A1i3ezO7z4RVmP7gw5DyD3OqV191DMQSn3aLnPw8WnkH0DHgCaYte6daRdamvuprXw3WFcqOpz76HnLdP10ikYBEy5Wb0UzqPxJLMzMOXThBp2ZPkFOQT5GymCJlMVOXvU3zxn50CmzD8JB+vLzivWrtV34liYO+ts3FzpHxvZ9i1tcfkFOQR7dWHegUeK+3vjbHtTZtfG2Vlt6p4xItEknZK3RVtW1VefDvU1870Mipoe4PQ6PRlG1YK6nwSu9dVTz/vLOM/mtQjePG8HHQV//vxqEr5059fXC6XFrxtquytk1C5ee/Nu1rVfVVEB43EqmkZoMM7FNV/KZmRuEVZhRW7AnZWpJaYVplCoqLOHzxJON6PaVr0H3dGhtcJyE9GRsLS92HvF2aB3E1oewJrbHcCHsrO67GR/PTwb/IzM3BzrLsCZWLvSO5BXkcuniSbScO4OrgqCsztzBf9/H63eQG4EzUJUJbtEcqkdDQwQkvF3fOR9d+ZK0rN6PoENAagEBPP8xNTGtdVnWlZqXzv12/MKbHYKQSCWciLzG4Y0+M5EYAuDVwwc6y7ObyWkIM7f1bAtDBv7WujIzcbBysbZFIpEglEnwalp0jVamKy3GRDOvcR7dsS29/3b/dHJxJSEtm28mDnIm8hKtdA928gqJCrMwtKu0lq44WXk1Jue9D3UKlEplUirnJvSTcUF25nZ1BbkEeoS3aAWVJm/N98cWlJHLi2nku3ohkysBnAIhKuoGLvROBnve+Z2rm6QPA1fjrBDbyBcDT2Q2LB16BtDS14MUhY3Gxd+RhMXRu9fF29dC9/iCTSmni6kFabmZZzGYW3EhJAMDLxR1nu6q/wztz/SJdW7XXbdfS1ILGzu4G14lKjEVhZEzzxmXHtVurYE7f6aGqjSs3r9PWrwVymRxLM3OaNWpS67Jq62p8DEE+gZgpTJHL5AQHtNbVPai8vhpSVX3defoQs4dP5Hx0RLWSwarqa2UMta9V1ZWcwlwaWNtVKLNsXj4OD8y7mhBDSPO2QNloa2k5meQVFhCXmkRDe0eszCzZF36MUV0HceVmFAB2FjZIJVJOR15k3e7NuNg51rp9MdS2WZqZk52fq3so18G/1b24a3FcDanLNaOguBDrar6mZ6htq43atAOG2muo/JpR1TWopgwdB0P1X199BUjPzcLRpuzvoam7d7XiOB11iV5PdMZMUXa+3e600bU5robqK9T9WiwI/zZyI3nNenC2qlLpaeRQ5bc4NzSF1Rpg4K5V2zYxfdCzrHv1E9QaNUcunSEqUf8wq8UlSj7/bS1zh09GJpOSnHmbZVvWAWXviL82agqmxgokEglnoy4Rfee1qLa+LejXLpRSdSmqUhVf/flj1ft8bB8udo6snr0IVamKz377H5n52QbXaeruzYQ+Q7Eys8Ta3JKPJ83j9LWLbP57N78c3s7cEZNZ8dJ7XEuIITs/lxKVCmO5EQsnzEImlWFhas7Hk+aRnput6/Kuq2NXzvF0yAC6terA5r93M6HPML58cT5IJOQV5vP5naeuK7dtYvaw5xgU3IOrdz5IhbJvIsIunWLx5HncSr9NRu69p+tLN69l2qAxfDPzfWRSKQm3U7hwZ3jlp7sOwKehJ2q1mrSczHJPnVKzM7h8I4pl09+hWKXk7bWfV/lho79HE9bOLXsnPCk9hRVbf9DN02o1/LjvD76Y/jbFJUrmrPzIYF3RarV8tPFrpg4azciuAwFYu+vXCt/HrN31C0unvk2XwLaEXT7Nhxu+YmK/EZgpTJFJZRw8f5wrcdf5+dAOXhn2HG+Nnk6hsrjCqwlmCgX92oZy8Pzxcq/C1SdD51YfE2MFM5+agKWZORqNloib19l6dB8APx38i0n9R9K1ZXvyi4u4lVH1t0MRN6PZdPAvPnhuDhKJBLVaw/p9W3Q3v5UpKVXxwcYVTBs4BlMTU64n3mDVtk1VbuulIeNwa+BU9pHy8OdRqkpYtGklZ6Iu0dLbn69efo+UzDRibsVToirr8br7AbarvTNPNAkgtEVbfj64vca9XlW5Gh/N7rNhfD7tLQDORl0m7NK9kcQqq6+A3nagqvp69Mo5Xn5yPHvOVexJqoyh+qrvuKo1ar3ta1V1Zd+ZY7wz9kVWvPQe+879zR/H9urm/XJoOy8OGcvYnk+ycttGrsRd5+utPzLzqQkMCO5OcYmSz35ZoztucalJxKfd4mZqEmYmJkTceQXRxaEB0waWfVslkUj46s8fq3wF2hB9bdv1pDhikxN4b9wsCoqLyM7Pw+7Oq5u1Oa6G6LtmVMfmI7vKhoUuLuC7XZu5Gq//Vc2C4iK9bVtt6GsHUrP03xsYaq9B/zXD0DWopgwdB0P3F/rqK8DG/X/y+sgpxCYn6HqIqxJ26RRONvZ8OuUNAFIy01j445e1al8N1Veo3bVYEP7NJEiQDGjZrkatvzlyPjbz05vk3NAU8nphpPihTz3kUhlatKg1Ghys7Vg86VUmfvb6ow6rUlZmFqx65QOe+XDWow5FEGpMYWSMUlWCTCpl+YsL+GDDV4/1cMR3P4aevnz+ow5FqEf/pWuGIAjCv0GDJ/xrPshAAaW8XHiFnnIHhhjf+12cG5pCtpak1qjn5v8jeysb3hrzIkpVCRKJhGW/f/eoQxKEx9L8sTMwMVIglcLuM2GPdXLzyrDnCfBowtIthnvrhP8ecc0QBEGoGalUWvMeHEEQBEEQBEEQhH8j+9Z+NRtkQBAEQRAEQRAE4d9KKpWKBEcQBEEQBEEQhMeDsZGxSHAEQRAEQRAEQXg8qNVqZL7ODd991IEojIzZ+OZSNoftprIfv/Np2JjGzm6VfiQ8rHMfYpLjH/qPKgI42tiz/KV32XX6cIXthbZox7M9hhB2qXa/Ul5XZgpT5o99mWGd+9LK25+wy2fqfRsD23ej+xOdOBNV/V8HN2R098G08QnkfC2H86xPEomUr2e8R8TNaLLzc+tUlrGREZ9PfZuwS6dQlZaNJvjn+9/Ss01nBgf3IKRFO2JuxZOVn1MfoT8yZgpTZg6dwNRBoxncsQcOVraER5cNtTywfTfmjJjMkA49sTK34NKNSMDwcegU2IY3Rk3jqU696ds2lNSsdG5VMZz2grEzyC8qeCgDCPQJ6kLftqF1+j2eqjR192Lm0AkcPH+i3PTR3QezaOI89p07Wi+/XP9PCfZvzdtjXmRYSF96t+nC5RtR5BRW/gPO1dHU3Qt3R9cKQ7fXlL2VDQvGvszYnkPRajVEJsRWe93mjf1YO3cxKVlp3EhJrLK8kaEDGN9nKJP6jeK3IzvrFHdVAho1YcHYGQzr0peARk04e/0yperqjWD69YyFXIi9Rm5hftUL3zF10Bga2NgTnRRXoxi/m7eEPWfDKFQWV3u9+ozhnypv1rDnUKpUda6vUPYbSm+OnsbToQMYHNwDE4WCiJv3huweEdKfqMQbaLTVv/cJadGWUrVa9/s8/1ZzR0xCLpdxM/VWvZc9qd/TvPzUOIZ27ksb30Ai4qJ0bWyvNp15a/R0nuzUCxMjBVfuHG+JRMLUQWOYPvhZBgZ3JznjdpXXpqqY+7bDa873WAZ0IPv0TkCL3MqeposPkbZrTZXrC4ZZujnVfBS1h8HbpRGxyQlo9fyh9m7TidjkimO825hb8mSn3mz+e/fDDhGAkV0H8nvYrgq/QSCRSBnZdSBLfln1j8RRmV5tOpGSmcY765Y+tG00cfPkUmxk/ZXXsBH7zh2tt/LqIrRFOxJuJxv8LYHq6ts2hLNRlyvcmL62+mPSc7IYGTqAmUMnMOOrhXXe1qM0ZeAzKFUlTFgyDy3g6+YJlP1Q76jug3lp+XyKSpQsnfY2cSkJHL1yDqj8ONhYWDFt4BhmffMB6TmZWJtbYmVm8eh27h8yoc8wzkZV/KHk9v6tuHwjivb+rfjr+P5HEFnNudg5MuOpcby59jPiUhJxsLatc5l+7l53EueKx6gmMnKzeX3NJ7zQ/5kar3v3XAQ3bcWB8ONVlvfz4e1sO3lQ93tdD4uxkRHvjHmZDzd+zeW4SGYNe47xvYayctvGaq2/5JdvuZ1ds1FPfw/bhVJVUqN1GljbkZKZRnZe3R4c1SWGf6q8347sYu7wSXWurwBzh09i/d7fORV5ASO5EV4ubuXmDw/px18n9lc7oQUIadGeYmUJSenV+yH2x1FU0g02HPiTImUx43sNZdrgZ3l3/TJszC15vu9wXvryXYqUSr6e8R6noy4Sm5xAsH9rfFw9mfz5G3g6ufHehFeYsGRejY59ZYrirxC/cmY97Zlwv9LS0n9HgtPEzYPcgnzmj30Zf/cm/HF0Dz8f3k4bn0BGhPbDt6EXjV0SCG3Zjh2nDnHk4mleG/mC7td7P540D2WJigXrvwBg0cR5ZOfnoNVK8HB04dsdm7h458b8mW6DCPZvjVQqQakqYe6qRbo4zE1MGdtrKH8e21shO3eydaClV1O++WtDhfi7tWzPzdRE4lKSAPjgudl8t+s3YpLjdcsMbN+NRk4N6dw8qMLvyrwxahpqrYaohNhyP37n4ejKG89MY/ry+Xp/rM7LxZ0XBoyisbM7qVnpfDxpHlvC9nAq8gJBvs0Z02MIcpkMuUzO97s3c+LaeQAaWNszZdAzuN75pe/fjuxkf/gxJBIJT3bqTUjzIEwVppy8ep7vdv8GgI+rJxq1hr5tQ8p+hPCnldxMTUIikTCm+2C6NC/7hfUjl06xYf9WACxMzXhx8LN4uTRCq9Ww7r4Ymrg24us/f8TF3pFXn57M9hOH2BduOOFRGBkzvtcwWjUp+6XqizciWXnnnHQODGJ098FIJBJupd9m8S8r0Wph4xtLCY++gpNtA6ISY2nv34q31n5GQloyAFKJhJFdB7Bo0zcGt11dfYNCWfyz/mT3TNQlhnbpq/t/n6Au9GvbFalUQlJGKsu2rKO4RElTdy+mDHwGmVSGWqPhr+P7OXC+7AarjU8g43sPRaPRIpFIWPLLKpLSUzExVtw53h6683p3nQVjZ5CRm42xkRHeLh58t/u3cr1x3Vp1wNzElG0nDlS5j2aIV2IGAAAgAElEQVQKU0JbtGf8krlo7tTN/2vvzgN0qhoHjn/vs8wz+76P2TfGMDQGKQZ5Q5FCKS2kTSVUKr0tSlrVmwqVJEqKUpEs2Qkx1hnL7GYxM2Yz+/asvz+ecc2YnUT9zucf5j53Offcc8+9Z71J2eaP8/YK68aRlOOU1n81e+/Jw8SER8kFnObiwdXBCa1eR0mF+SO6ZVUV8le329I9uAv33nQbznaOzF/zjXxOlxKvg3pcz7iBt1JZU83ZcwXUaOvavE4An0yZxd4Th4kK6oJapWbDgbbTslKhIDIgnPUHdjRa7urgjJOtPd9s/pnbb/hPowJOJ1dPHhs5HicbeyRJanQNx/YfzsCovkgS5JcUMXv5JwBE+IUycegYNGoLarV1zF/zNdmFeaiUKp4Z8xB+7l4YTUaOpp1iycYfAPBwdOHZux7GQmmBSqlk5Y7f2H289dbpYb1j2RUfR0Z9K0dR2YWPAfcK68aEm0cjoaCgtIiPfl5KWVUFod4BPD12EgkZSXg6umE0GZnz7XyUCiWzJ07Hxc4JtUpNaKcAzhTmM3/N1wDYWFqzZMa7/LLnd6KCumBjZcV7KxdRWHauxfR/qfqER/Heqi94Y+LTqFVqdJfxAUQvZ3emjZ6AraUtWn0dC3/9lqraGmbd9xSTP3ql0bqzJ0znx90b5GfXxcJ8gqjTaTmeYf59+9E/mXr7BLmA07dLT27tM5CyqgrcHV1RKpQ8+/mb8nM11CeQaQvf4Ex9PggwMKov4wePpLSqnLPFRdTptSxY8w1Odg68MO5RvF08+W77r2xokGbbyld6BEewYtta9O34wOWIvoMZFHU9VhoN8aeTCPUO4Oy5Qub+sKjVMLSWXsf2H86gHn3RGwzUaGuYuXguQKv7+/HVBfyy53c6uXnh5ezOWysWkF9aDMDDt4yjV1g38s8VoVIq2XRoF7vizcc6U5iHUqkg2Muv0fP/Ung6u3GmyHxtdHqdnL+e/1CxlUbD7AlPYzQZWLrpJxKz01rM285/fNzfwwcvJzdG97+ZXQlxrN+/g9E3DsXe2palv68G4LPpc3j964/JO1dwSfkAIL97qJUqtHotb3/3OYVlxS3mA5Ik8fDwcUSHdqWwvASldGH0hIu9I0+MvB8Xe0cUCokVW9fK7xAA4b6BxHbvw6Lfvm9XvJ6/VgCnstKIDos0hzm8Oycz0jhXUY5Skvjz1FH6dulJel4213fpye6EAygUStLysiirLKeLX7DcM+HvICnVuI96CpvAKFCqqYjfTuFG84fgvca9iLV/JCa9Fl1pAXmr3kFfac5/7brF4nzjGPSVJaidvJCUKk5/OAm/R/+HrqwQSaXBqlMY+WvnU3lq7992Plea3nCNFHBCvQMwmgy8+e3nhPsG8fToSazc+RuHUo5zLO0UK16ax8wv3m2UQb67chH3DBoJwHfbf5WXS5JEkJcfC9d+w874A9wQGc1dsbcSn55EhH8IvcK6M/3TOZhMRhxt7BqFI8QngBF9BvH9trVNwnjP4JH8uHtDkxK7QpK4K/YW3lyxUF5Wq9OiVCqx0liiUVtQWlnOzb36M3fVF/Tp0gMAR1t76nRaNCo1IT7+rPtzK0qlEoUk4eboQn5JEcNiBrB239ZWv8SdnpfNzMVz+fLZd3hj+QIKy4ob/JbFc5+/jd5oINw3kMdH3MefiUfRqC14c9IzLNn4I3+eOoJSocDZzlzbOqLvYKw1ljzzmbngN/fRmYT6BJJVkIOvuxcrtq/l41+WMX7wbdxx483MW/0Vt/YeSIhPAE9+MgulQsHS599jy+E95JcU8dSoCaTnZfHuykWE+wbywrjJ/Jl4FGc7B0AiwKMTk4bdyUc/fyVn4K15eswk8kuLefKT1zCZjHi5uAPm5vyJN4/hhcXvUlxeymsPTGNAZG8y83PILS7gre8+ZdUrn/DmigVYaSzxcHKVCziDelxPem42WQWX3xzuaGOHi71Ti/uSJIm+ET3ZfMj8tfkIv1AG9+jH84vfQavTcffAEYztP4zlW9eQW1zAzMVzqdNpsbTQsOjpt4hLSqCippK7B41gycYfOZp2Eo3aAkmSALit300oFSqe/GQWTnYOzJ/yGvGnkygqOwdARU0ly9b8RIRfKJOGj73oRaQLrvZO7SrgeDq7UqOtabYQ4mLvSEmDbn6lleWE+wa1Gg/puVnkFJ3l8+lvEpcUz5+njnAsPbHNcADYWlrxzGdv0SusG3cPGsHB5IRLilelUsFjt97DlPmzKKko480HZ5Bd/4LR2v7Oc3d04cUlczGZTGjUFm2G22A0Mv6t6U267fTtHMXhlBPEn07k+XGPYmNpRVVtDZIk8dK9T7Ji61p2H49DpVTh5ugMmLue9Ovak+e+eJuaulp83bwAc6XNtNETeemrDygqOyd/DPSFxe/SLSAMV0dHpsx/DaBRfji0VywJp5P5ZvPPSJICO6vmP+zckI+rB0fruyg2ZGmh4Zmxk5i5eC5ZBblMvHkM9w25nQVrvpHjbfnmNVTUVDLnwWfoHtSFI6knmLl4LqP6DcHV3okv6wteDVlrLCksO8fML99DkhSoVUpuv+E/rab/jvJz90ahUJCSc5rTZ7OJCup8WV10nxh1Hzvj49hwYAfRoZHMuPMRJs97GSuNFTaW1mhUFqjVKgpKiwny9m81T3S1d2zUzbW0shwX+8atZl0Dwpi2YDbZhXlymjyUcpxDKcdZOLVxC7KDjR2Pjbibp+bPpri8lDkTnya3vutnSUUZMxfPZfLIe5sNS2v5yuINKzvUNS0pO52tR/bw3/FP8NAHM1ky411USlWrYWgpvVqo1dx7022MmzMVrV7XKI23dU4ns1JZvnUN42JvZVhMLMs2/0Tv8Cgi/cN4av7rWKo1LHpmDhxqvN2pzDS6BYZfdgFn9e6NfPDYS8Qlx3M45QR/JMShNxpYv38H6/fvYOXLn/Dqsg/lShagxbwtMTuNmYvn8vJ9U/g9bjcHko61KwyXkg94OLowfcwknvv8bfLOFeBoY4fBaGo1H+gTHkVX/1CmzH8dW0srPn/6TXl/T4+ZxC97NnMwOQFbK2s+enIW8aeTqK4z95DwdfVmRN/B7S7gNHRTz37sTjB353e1d+JcRQkTh47B3cGJ9LwzeDq7AeZnWlxyAu898jy/H9pDcXlJk3vtSnMZfB8mvY70DyaApMB/8jxsQntRlXKQot+/Qldytn69+3EZMoH8X+bJ21oH9SD9/Qeoy89AobaUlxuqyihYtxDrwCg8Rj31ryrgWGosr5ECjk8Ab65YiMFoRKlQUlR+oebPz8Ob3KKCZmt/gn38+T1ud6NlPi4eVNZWs6t+LIxOr0eqrw0orSzHw8mFiTePJi4pQa75Ou9Y2ilGvPxwk+N4ObsT4RfC/J+/bvLb4B79SMnJkF+WAerqtCgVSiYNHYtGreG3A9soq6oguzAPvcGAJCl488Fn+WXvZhys7dh4cBc12jrsbWyJjerL+EEjeXL+LGLCurPs95/ajD9bK2ssLTSNCjcAPUIiiO3WB7VKhb21HaVV5ofhsJgBJOdk8OepI4D5RauwrBgLtZrxg24jqyCXbg+FAeYXJEkydyNMy81iz3Fzbl5WWYGHkysAo/sP4/VvPkZv0KM3QGV1NZYWGjycXOniHyx33SsuL8VKowEgzCcQKwsNL987hXk/ta9wE+TlS7hvIHNXLZK7M+bVt7TdccPN/LJ3M8Xl5haAc+WlWGo0BPv4cST1BA42dhSVlVBQWoynsxs5xeYmeqVCwZ2xtzBn+fw2j98eLvZOlFaWN1soff/R/2JrZc2ZwrO8vPQDAKLDI3F1cGL2BHOrnlppQWa+uQZcqVTyxPD78HB0BcmEtcYSFwdHKmoqOZ6RzISbRxOc4Et8ehIpuRkAdPENYesRcyZVUlFGSk4G4Z0C5Be8U1lpAJw9V4jrRRn0h6vb/5FICamVgrfUdFGDdZuLB6PJxCtLPyTUJ5AeIV2YMuoBth7Zy/c71rUZlvMP6/TcbPmcLiVeXewcyTh7Rm55+DPxKD6uHm3u77xtR/fJcdLeLi/NjX/oE9GTTXG70Op0nMxMJToskl3xcbg7OGNnbSvXoOoNejn9R4d2Y8uRvdTUv0iez49CfQJxsLFjxp0Pyfu3s7Yxr1OUh7uDK4/fdi8nM1KIS7rwUpqYncZjI8djMplIzErjUErbXW4kk9ToOp/n6+pFaWWFXOjfc+Iw00dPlH/PKcqnosYcD2fPFbW7a5sJE9vrW2dMJiNanbHN9N9RfSN6cDDFHC8HkxPo06XHZRVwuvgG8/4qc63roZTjvGjvhJ2VLYlZaYT5BBDTuTvOdo58s+VnCkoKW09HUjP32UVjWJPPpMtpoa00GeLtT2Z+jhxXB5KO0am+oNyW1vKVjo4hK6+ppLy6irIqcyVJdW0N1hrLVscKtZRetTodaXlZPHfXIxxOPcnBpPZfO/mcSgqJDusGmMcTHUg6hk6vQ6fXcSIztcl2JZVluNg7tvs4Lflu+69sO7qP6LBIhvUawJDr+vHyV/9rdZvWnhmX4lLygW6BnUk4nSiPizzfkh/qHdBiPtDZL5i45Hj0Bj2lVRWcyDCPfVGr1HQL7IxKqWTsAHNrv06vw83Rmcx8c4+ZLUf2tNla3pw7bhyKxsKC1bsbjJOTJH7evRGVSs2gHn0brS9JJt7/YTHF5aX0i+jZ4eNdLtuI61GoLbF+ytzTRGFlh4WrD1UpB7EO6oHT9aNAAqWNI9qCxoXrmqwT1OVnAGDUXahsqM4w3w/a4hzUDu5/z4n8TYxGw9Uv4FhaaLC3sZUz4WBv/0aD/YK9/UnLy2x22xAvPxbmZjRe5hNA5tkz8otGWKdA0nPN2+cWF/DYvJeJCevG5BHj2Xp0Lz+3Y/zOPYNHsmrH+iaFrPMvx69/81Gj5bW6OtwdnZEkBUqFkqHRA1izdwtgLnDd0PU6jqSewNHWnthuvXnxy/eJDovE2U7FDZHRpOZlckPXXuw9ebhdL0rB3v6kX1Rb1D8yhqHRA3h12YfmcRI3j5F/C/LyI7E+827Ix8WTgrJiXljctO/4bf1uIjnnQiEkzDeQtNwsbK2scbZzlDMtOytb7G1syTtXQHRoN7IKcuUJGYK9/UjPNY9xCekUwOGUE2w7tpf7bxrNzvgDLY7BksPt6UfymcxmJ5QI9vJjU4PCbrCPP1uO7GFQj+s5mnqCEG9/knNOo5Ak3B1d5UGgg3v2Iyk7nTNFZ1s9dnvV6XVo1Opmf5ux6C2qa2uZcdfDPDj0Tj75ZRmSSWLnsQN8vaVpQXbS0LFkFeTJBY8vnn4LRf1LzbLff2Kb2z6igjrz4vjH+WL9SvadNHcBM130ktPwL4PBnIZNkkku+F+KsyWF2Fja4GBj16QVp7i8BK/6mi8wt1Y27K7UXDycl5JzmpSc0xxLO8UzYya1q4Cj1zc9p0uNV0ODNGhskM5a2995VbXVbYa1LdYaK7r6heLp5Mp9Q27H1tKa6tpac7eKZl9o68PXXKESc1EzuzBX7pbTUFFZCZM/eplugeHcEBnN2AHDeWr+64D55TYlN4OowM7cOeAWrguJZNH67wCICe/Oo7fcDcAPu9bz+6E/AMgpPtvuF+KG5SC94UK+asIkX4u21NTVNZsXtJb+L/7tvJbOqU94T1zsHYma3gW1UoVapWLh2uXy86Wl/TU3WY78S4OTlyQJJBMnspIJ9wvGzcEZvUFPV/9QTjZ4eb7vplHEdu8DwJwVC+oLIiU42TrI61x8nwFU/k0TVPxV+Yp5JyZMGDGZzOnAhAmlUtnqJq2l1+cXvUO4bzA9QyL4eMorTPnkNbkirNVzqn/edyRNAlio1NRdRjfGhvJLili/fweb4nbx/Usf42hr3+okOK3lbS0xXlQpoVJciOvW4rVF7Y+qRvlAw3vZ0OBdy2Qy8crSeZfVNfRiN0ffSO/w7sxaNk8+/6KyEsI6BcoFMhd7J4rrK9uLyktwtnNiV1Fck9/+NpJEwa/zqUw60Gix2rUT7iMf5/T7E9FXluDQazj2PQY3WsfQUgFX7pFkAsW/a1JlE1z9aaJDvAMaTSAQ4u1Hau6FAo2vmxeFpU1r3ywtNM3e7KE+Abg6OKGQJFwdnBnS8wbWH9gJmPuvV9VWsyN+P0ln0puc/ISbR9MzOKLRsk6unoT5BLDtaNOmuyHX3cCprNQm43XqtFruuGEoP+/ZhKWFhmBvfw6lHAdAq9cS2703P+3+nQHdYkg6k05FTSW12jr6dunB/lNHKa+uZNT1Q1j353Z5n1YaS54cdX+zLxAhXo3jDMw1IkdST1Cn0+Lq4MzQmP5yLX9ReQn+Hj6A+QEb4Gn+f2lVOd7O7ng4ugDmlqEQH39zvHoH4Fz/MA3y8iUqqDNbj+xBq9NhMhlxsjWPCXho+J2sP7ADrU5HdV0NznaOKBUKbCytuXfwKFb/sVHe37Zje9l/6hhVtdUMiurTKPyx3Xsz+sahjZYVlZfg4+KOSmkulwd4Xhh0WV1Xi6ujudZsSM8b0On1nMxMNaennExCvP1Jzcmkk5sX2YV5mEwmVAolY/sPb/El2s7KlidH3S93g2uPs8UF2FhaY6WxbPb36roaFq5dTmz33ni5uHMwJZ6BPfrUd9kzH/P82DI7a1t50oMgL188nV3l/XRy9SS7MI91+7dzMCkB7/oCxansVPpHxiBJEs52DoR1CiD5TEa7wn5Tz37c1u+mdq1bVVvDzvj9PPCfO+QHaFinQMBc090zNBJHGzs0agv6RVxHXHLjmcgujgcHG7tG9164bxCFl/EAuZR4Tc3NxNfNC0sLcytjt8Cwdu3vrxQd1o3E7DQe+d9/mTzvZWYsepvosEhUCiUFpcWUV1UQ29081k2lUMpdKOKSE/jPdTdirbECkPOJ5JzTeLl4EBkQbt5GqaJrQCgAzraOKCQFcUnxLN20Gq/68XgAXi7ulFdVsCN+P+v+3Ia364V7IC4pnkc+/C+PfPhfuSAAsOngLgZ0j5HzE2c7B1wdnMguysPR1k6+X/t368Wp7KY1382pqqnBwca+3fHXVvovqy7HzcG5yXbNnZOTnQP+Ht48Os98LR76YCYGo4EQ74A291ddVyfne43Dl8aAbjGAuVBVWHaOiuoqTmamcmPXXuSeK+REZiq3Xf+fRq0Dy7eukcN3vuY6+Uw6GrUF3QLN13ZQj76XNeNfam4m/h4+uDo4IUkKeodHXfK+/m4tpVcLlRoXe2dOZaXy/fZfOVdeJnfHvhQnMlOICe+OSqnCztqGrv4hTdbx9fCWx6E11Nk3mMdva747XHNuiIxGrTJXlvl7+GDCRGWD2c+qaqtxuKibfWvPDICqmmrsbRpP3lJcVoKHk/mZ72LviGuD9NxaPtCS+PREugV2ppOrJwD21rbYWdm2mg+czEqV8yULtZpw32DA3FpzPCOJMQ3eBaKCuzQ6XkfjdWBUX/4TfSOzl3+CtkGh6WByPF38g3F1cMbG0oq+nXvIvVz2nTxCbPcYVAolIT7+2NvYcarB/dnRMFyKyhN7cY69G0ll7mpq4RGAyt4VlbUDhvJzF8bcdI+9ouH4pzAYroEWnBAfc9cn+W9vf1Y0GAMTn57IYyPuIToskjV7t/BH/fTHtdo6jqUlMu+JVyipKJcnGAj1CeB4RjIfPfkqlhYaFm9YSd65AiwtNMy48xEsLSyo0+tIzE5jTYPBuzaWVoztP1xulj7vnkG38f2O35qt5RjTf1izs5bVauvIKcqvH/RtweZDu+Vau1ptHYdSjlNSVYavmzfv/2CeDrBOW4edtQ3bj+zDxc6RfOuiRl3Ogr38GR4Ty3fNjA8K9g5g78nGHYG3HN7DtDsm4u3qQWllOTq9ntQccyHolz828+ydD/HZtDcwAWv3bSXjbA4lFWV8s+UX3nroOep0Wmq1tSzb/HP9dQrgWHoiC556HZ1ez6yvP5K7Hny5YRVzH30Ro9HI4bQTfLt1rXztUnIy+GzaHIwmE2v2beZwfRN3iI8/aWvM133Z7z/x7F0Ps/v4QbmWZlhMLLnFjWd6OZp2kvjTiSyc+joGo5FTmal8XF/7v/T3H5l6+wTuu+l28ooLeef7T1FIEs52TuSXFhPi48/q3ZsI8bnQQjgk+gaOZyTL3XwuZq3RMDwmlu1H97W4zsX0RgNxSQlcF9pV7s53saKyEjYd3M24gbcyb/VXfLf9V+Y8+CySJGEwGPl6y0+cPpvN99t/5eFbxjEwqg+VtTXkFl+YevSugbcS6hOAwWCgsOyc3LKwdu9Wpoy6n0+nzsYELN6wqt3dc7oHdcbV3om1e9s3a9fn677jiZH3sfT5uRiMBnYlHCT5zGmSz5zm+21ree/RmUhI7Izfz76TR1qNh6Ubf2Rs7C1MHzMJrU5LUXmJPEbjUpzMTO1wvJZVVbB004/MnvA0JZXljWqNW9vfX6lPlyj5HgFzl5/SynIiA8M5mnaSt1YsZPLI8YwbOAKAJRt/4Oy5QnYnHMDD0YX3H3tR3m728k+oqq3hzW8X8NDwO7HWWKFUKNl+dB8nMlLwcnXj8RHmh7IkSSxo0DIRE9ad4b1j0Rv06PQ6Fqxd3mbYc4ryWbDmG2be/TgatZqqmlreXfkZRWUl/O/HJcwY+whKpYK8cwV89NPSdsXH/sRjDOsdy/uP/Zes/Bz5fm9JW+l/y8G9vHL/k8yf8jpbDv/RaFKXi/UOj+JERkqjWTMPJZ+gb0QPUupbs1van8lkZPmWX5j3xMvUaut49rO30Op1LFyznGl3TOTWvoOp1dbxwSpz/p+em4WHkwuHkuPJLylm8ojxnGowJXBztHodc1bM5/ER92JlaUXKmdN8vq6N2nVgyqgH6OTmgYeTK8+OnUSdTsvb331GWVUFn6/7nrcmzaCsqoLc4gJ0OnMN7/mB7d4unlwXEkFs9xhWbv+NI2lNx1xdKa2FoaX0aqFW88Ldj2FloUGSJA4lJ5BaX9F3Ked0MDmBqOAuLHjqdc6eKyQtNwut7sK4XLVKTah3AB/++GWTbTu5ejI8JpZP1zadqKg50SGRPDL8bnR6HXU6Le+vWtyoF8nqXRvN0+TXVvHVxtVyIa6lZwbAxrhdTBl1P0N79Wfnsf2s27+d/YlHGRYzgFfve4rccwUUV1xo3bqUfKCgtJh5q5fw3F2PolapqNPV8daKz6goq2wxH4hLiqdHUARvTHyamrpaihq8+3y4egmPj7yXT6e9gVKhILvgLMcafFqio/E6ecR4TBj5bNocwFxQfOLjVymtqmDJxh+Z++gLSCjYcGCHXPm+P/EoPUIi+HLGu+j0OuatXtLoWnQ0DG0Je/1Cpau2JJ+MeQ9RvG05ypFPEvzcN5gkCUN1GbnLX6cm+yS1Ocn4PTYPY00lhvJzqBzdWtn7/w9qlRrp1qjeLbel/8NIkoKVL3/EhPeek/uiXw5fNy9evOdxeUB7Q8NjYgn29pdn9RH+WVRKFQunvs7LX/2PgtLitjfogGBvPyYOHcsrbfSXFgRBuJZo1BZyt+inbn+AxOx0NjdopRMuxJFSoeDjJ2cx59sF8niTwT2vJ8jLj8XrV17lUArXOpuw3rgMvldME32FePbqevVbcP5Kvq6eFJeX/iWFGzAP1H3i41eb/W1D3M6/5BjC1aE36Hn0w5euyL7TcrPYeXS/PPuVIAjCP8E9g0YSFdwFvUFPTlE+249c3hTb/0av3j8VS7UGhQI2Hdzd6CPDEhLfbfu1la2F/+8i5u0HIGPeI6jtXfGb/BFZnz9NxIfX/r12cnqftle6RhhMxn9XC44gCIIgCIIgCP9/ufeKuPqTDAiCIAiCIAiCIPwVDHqDKOAIgiAIgiAIgvDvoFIpRQFHEARBEARBEIR/B/210ILjPvJJIj7ch8rWPDe9282TiJi3HwuPgCtyvE4T3yZs9nrzV18FQRAEQRAEQfhXueoFHIDavDTso8wfGLQJ742u9K/5qnxzzix9kcqTe67Y/gVBEARBEARBuDoUCsW1MU10xfHd2EbeSFXqIbSF2agczB8pUlhY4XXXC1j6hIEkUbz1a0rjNph/s7IjdNYvnNu+ApuwGBRWtuQse5m6/Aycrh+FU7/RoFCgLcwi57s5mOrEdL2CIAiCIAiC8G8mKaRro4Bj0tZirKvCZfC9lB3ejHXIdQA4x45DUqhIe3c8KnsXgp7/lsrUw+hLzF+4V2hs0JbmU/jJZJAUKFQqrAOjcOh1CxkfP4JRp8Xt5km4Db6fgg2LruYpCoIgCIIgCIJwhVmoLa6NAg5A+dFteN35PHkr35aXWQd2p/TAbwDoy4upzT6FtV8E5fUFHAkT5fUtOpiMGHVabCOuR+3ojt/kj8zrqDTU5aX9vScjCIIgCIIgCMLfT7pGWnAAKhJ2Up15HJPRcNEvphb/NNRVN7O+RNnh3yn47dMrEUxBEARBEARBEK5RJqPx2phkAMBk0Mtdz86rPh2PfY8h5pKYvStWfhFUZ59sdT+Vp/bi0GsYKntXAJTWDlh6h16xcAuCIAiCIAiCcG2o09ZdOy04zTm3cyVe42YSMvN7TMDZXz5qUgi6WHX6MQo3Lsb/iU9AUmAyGChY/ynkpvw9gRYEQRAEQRAE4aqQJAXSrVG9TW2v+u/iffdL1GQep2TfmqsdFEEQBEEQBEEQ/iJu0V2ufgtOxLz9f9uxTk7vg899r6HxDKIy8U/52Cen9/nbwiAIgiAIgiAIwpVhNBj/f7bgCIIgCIIgCILw7+PTt/u1M8mAIAiCIAiCIAjC5ajT1okCjiAIgiAIgiAI/w4WKrUo4AiCIAiCIAiC8O+g0+tQdXFwv9rhEARBEARBEARBuGxFgOpUWcHVDocgCIIgCIIgCMJlc8NJdFETBEEQBEEQBOHfQxRwBEEQBEEQBEH4V9BYWooCjiAIgiAIgiAI/w51dVpUl7rxEJUrt6ndCVLaAJBuqGKNro28OQ4AABUcSURBVICt+qK/LICCIAiCIAiCIAjtpVapOl7AsUHF21ZhcsHmvCClDU8rAxllcOfFmmSq0P9lARUEQRAEQRAEQWiLwWDoeBe1d6zDGxVuvqjL4ou6LPnvIKUNb1uFtXt/od4BLJnxrvx3t8BwFk6d3dFgXTGjbxzKxJvHtPh7Z98geoZ07fB+LdRqPnriVWwsrRott7e2ZfnM/3V4f9eChVNn08nN6y/Z1/QxD7Y7Xjv7BrPs+fdZ9vz7/Pzap3z/0scse/593n/sv39JWC628uVP+OaFD+RjvjHx6StynL/aujmLmTzyXvnv716ah4ejS5vbOdk5MCxmwJUMGgBvPvgs0aGRTZaP6jeE1bMWyvG97Pn3uS604/fc3y3UO4APHnvpagcDgAHdY/Bx9Wiy/O+6tq2FAeCGyGheGPfoVQ3DpbCxtOK9R2Yy7/FXeOSWu9u1TUefGW09gwRBEITGJEnRsRacUWoPAhXWjZat0eUD8IjGT14WpLRhiMqVLf8PuquF+wbhau/EkdQTHdpuWMwADiUfp6q2ptHyqtpqZn09768M4t/mvVWLKCj9a675j7s2MmPsw+2K18TsNCa8NwMwvyRvObKX7Uf3/SXhaMnzX7xL3rl/3hTrvcO7s3TTj9Rq69q9jZOtPcN6xbIxbtcVDFnr9p08zPs/LL5qx/+nG9C9D7V1WnKK8hst/zuvbUthAIhPTyQ9N/uqhuFSdAsIp6SynLe/W9jubS71mSEIgiC0k8nUsQLOELVru9e9Te1+2QWc0TcOJSIglKqaanzdPDmYfJwV29YCYK2x4pFbxhHqE4hCIbEr/gDf71iHtcaKV+6bgp2VDTqDnoTTSSzd9CNGk4lZ909l3Z/bOJRyHCc7B+Y9/or8Yjwwqi/jB4+ktKqcs8VF1Om1LFjzDQAu9o7MefAZOrl68vuhP1ixbS0WKjWzJ07Hxc4JtUpNaKcAzhTmM3/N1+06t2G9Ynl35eeNlt054BZ6d+6Ol7M7973zjLw81DuAp8dOIiEjCU9HN4wmI3O+nY/BaGz1GGvfWMSmuF042NhhbWnFRz8to7CsGIBHb7kHpUqBt7M7GgsLTp89w6drv8XL2Z1poydga2mLVl/Hwl+/JTUnkxfveQILlQpfNy/+TDzKdSFdWb9/O+v2byc6NJI7Y4cT6hPItIVvcKYwTw5DdGgkE24ejdFoQpIk3lv1OTlF+aiUKiYNG0uEXygqpYq9Jw/J1xbgTGEeSqWCYC8/0vKympxbe0X4h/DYreOZttDcKmhvbcun097goQ9mEuTly9Q7JpKem42lxoLKmmo++eVrdHodLvaOPDHyflzsHVEoJFZsXcufiUfbPF5L8QrwyZRZ7D1xmKigLqhVajYc2MGWI3u4M/YWBkX1BeBI6kkWb1iFyWRsc3/hvoHEdu/Dot++b3d87Dt5hIFRfZq80A7t1Z/hMQNRKCRyivP56Kel1GrrmDLqAUK8/enk5sk7Dz8HwKtL57Ho6TeZ/ukcSivL5X3cOeAWLNRqvt26ptVzaikezlNIEtPHTKK8upLF61e2eU4t7a9vl57c2mcgZVUVuDu6olQoefbzN7G00PDkbfcR5OWHJEn8uGsD2+oLxDaW1iyZ8S6/7PmdqKAu2FhZ8d7KRWQ3SNMNPTv2IQ4kJbA74YC8rLNvEBNvHsuXG1ahUiqZPvpBuvqHcqborHzftpb+f3x1Ab/s+Z1Obl54Obvz1ooF5JcWtxoHw2NiuaXPQIxGE3U6LYvWf0dqTiadfYOZOHQ0/h4+eDm5Mbr/zexKiGP9/h0tXlttK+m/tXzg7oEj6BYYTlVtNXbWtsQlxfPTH5taDQPAC+Mexd+jE5n5Z3h35SL5nGbdP5Xi8lIs1GqCvfz4atOPHExOAFrPr5vTVhhaS68tef2B6bg7uWBnbcs7Dz/Hqaw0lv3+U4vXtq1nRidXTx4bOR4nG3skSWp0vs09g9rSUvpvLW9rKb9u7Z5p7bnaUhgAxvYfzsCovkgS5JcUMXv5JwBE+IUycegYNGoLarV1zF/zdYv3nyAIQnN0Bn3HCjgXt9605uIxOpfK0caON79dgFqp4usXPuCnPzZRq63jwWFjqdPreGrBa5hMJnzru0Zp9TreW7WIkooyAF57YBoxnbuz/9SxFo/hYGPHYyPu5qn5sykuL2XOxKfJbVA7H+jpyzOfv4lGpeHLGW/LYZi5eC6j+g3B1d6JLzf+0KFzcrF3Iqsgt9HyH3atZ9PBXc120XN3dGH55jVU1FQy58Fn6B7UpV01gHFJCRxIOsZNPfsxafhY3v3+QqGqq18Yz33xNjV1tWjUFgA8Meo+dsbHseHADqJDI5lx5yNMnvcyAJsO7sbTyZUAr0688e18nh49iXX7t3Mo5TiHUo43G+67B41gycYfOZp2Eo3aAkmSABhz41B0BgPTP30DhSTx+oTpRAV15lh6orztqcw0ugWGX1YB52RmKkqFkmBvP9Jysxjc43p2Hz8ot2C4O7jwwhfvUlZVwfQxD/Kf6BtYv38HT4+ZxC97NnMwOQFbK2s+enIW8aeTqK4zt7i98/DzGIwGAA4kHuOzdStajdfz3B1deHHJXEwmExq1BV38Qrg5+kaemv86er2etx56jv7dotkVH9fm/nxdvRnRd3CHCjgb4nYyY+zDjQo4EX6hDO7Rj+cXv4NWp+PugSMY238Yy7euYf6ar80FwdsnMnPx3Abxmka4byBHUk7i6+ZFWl4W4b6B/Pbn9nad08XxcJ5SqeSFcZM5U3yWbzb/LC/v26Vno66sL331AXnFBW3ur2tAGNMWzCa7ME9eflu/m1AqVDz5ySyc7ByYP+U14k8nUVR2DgBrjSWFZeeY+eV7SJICtUrZYnyezEwl3DeQ3QkH6OwbTNKZdMJ8AzmZmQqAn7sXb3//Kfklxcx9dKZ837aV/k9mpbJ86xrGxd7KsJhYlm3+qdXrGpecwMaDuzGZjIR1CuSp2ycwbcFsErPTmLl4Li/fN4Xf43ZzIOlCPtjStQVaTP/Qcj4AYG1pyctLP0QpScyf+joHkxJaDQPAuysXcUNkNDd2jW5yXhU1lSxb8xMRfqFMGj6Wg8kJbebXzWktDO1Jr82Z9fU8BnSPoXd4VKPWxdaubUvPDEmSeOneJ1mxdS27j8ehUqpwc3SWf2/pGdSW5tJ/a3lbS/l1W/dMR8MwoHsM/br2lPO1889vG0srpo2eyEtffUBR2Tki/EOYMuoBXlj8bmuHEARBaESpVF76LGrnBXWg0NMck2Rqusx0YVliVhomkwmtXkdZVQWOtvacPVdIdGgks5bNk9c9X8NjNBoY0Xcwkf5hmDDi5eyBh6Nbq2EI8fYnMz9HzqwPJB1rNJbkaPoptDodWp2OkopyOQyXysXeidLK8kbn2ZaconwqaioBOHuuCFcHp3Ztl5BhfimJT0/i/iF3NPpt78lD1NTVAlCn0wLQxTeY91d9AcChlOO8aO+EnZUtYH7ZsLa0pKyygorqSmyt2r72xzOSmXDzaIITfIlPTyIlNwOA6PBINGqNXHNsY2mNp7NbowJOSWUZLvaO7TrP1mw4sINhvQawYO1y/hN9I3N/+EL+Lbswj7KqCsDcTaZncASbD+2hW2BnVEolYwcMA0Cn1+Hm6Exmfg4AMxe/12IXtebi9bxtR/fJ171Op6WLXzCHU0/ILyv7Tx0hwi+00ctVS/vbcmRPo5aP9igqO0dRRQmdfYPkZdHhkbg6ODF7wnQA1EoLMvPPtLqfk5nJhPsEo5CUPDHyXh547zlCvP1JPJPO8JjYNs/p4ng4b/KI8aiUSj78aUmj4/156kirXdRa2l/ymXQ5b7iQxkPYemQvACUVZaTkZBDeKUC+/02Y5C6OJpMRra7lmvwTmSkM7nk9dla2vDVpBjMWvUW4TzDbj5m3zyrMk/OKjLNn5Pu2rfR/KisNgLMlhUSHdWvx+Oc52znw5G33YWVhiUIp4eHY/tb2i6lV6hbTP7SeD5zISMFkMqI3mfPuzn5BZBXmNnuc9pDj4VwhrvbmuGsrv+6o9tyDHdGevO1i7g7O2Fnbsvu4+Zh6g75RAf5Sn0EXp//Wrm1mfk6L+XVb90xHwgAQHdqNLUf2yvna+d9DfQJxsLFjxp0PydvbWf81laWCIPz/oVJ0sIBz2ljdpBXnY+vmB0ueNla3a596g4H6SiIAJMm8rOHv55kwISHJ6zVnyHU3EOjRiZe++gC9Qc/U2yfI6zYsUCgVLdfKNgmj/sKMcA3DcKnq9Do0anWHtrk4HhQtRcBFlArzPBJKpUKujTuvqrb5a9QwniRJgvpCqMlkwmS68K9C0fYcFct+/4ltbvuICurMi+Mf54v1K9l38jASEks3/siRtJMtbmuhUlOn17V5jLZsO7aPzwe9yR/HD1KjrSPj7IWXd2WDc1AqlHIcmUwmXlk6D90lHL+leG3pt4vLuRcXfFvb36VYv387t/QZJP8tmSR2HjvA11tabyVo6ERmKg/fMg47a2t2HPuTG7peR1lVpfzCcqnntOHATuysbZg8cjzzVn/V7vC0tL/Ki8a4yeHBdNHfF9TU1bXZ/fO87MI83B1diencjXX7t3FdSCRhvgEs/PUbvJ090Oubv2/bSv/nWwfbe6//957Heef7z0nMTsPVwYkFT13eRC2tpf/W8oGL/39xntNRhvp8zySZkKQr99m2ttJrR7Qnb2u6UevxdKnPoObSf2vXtqX8+vxxG+2nwf7Oa+652lwYWgq/BGQX5jZpURQEQegII6aOzaK2Rdd0TM3U6hNMrW7aVWqNtn2DOAtLi7GysMLLxR2Arv5hci15aw4mJXDb9TfJD71Orp4A2Fnbkl10Fr1Bj6WFptFsS0VlJbg7mWs2u/gGy8tTczPx9/DB1cEJSVLQOzyqXWEHqKqpwcHGvt3rA5wtLsDG0horjWWHtrsU/SKuA+CGrtEk1teGtuZUdhoDusUAEBPencKyc1RUV13y8Tu5epJdmMe6/ds5mJSAt7O5Ne1gUgK39RuCWmUu6HVy88LZzqHRtr4e3o0KI5eqpq6WA4nHePbOR9gYt7PRb34e3nRy9USSJPpFXEdiVho6vY7jGUmMuXGovF5UcJfLDkdzTmWl0Ss0EmuNFSqlir4RPTmVndqubTv7BvP4bfe2veJFjqSeJMTbH41aA8DBlHgG9ugjx7+dlS2Bnr7y+lU11djb2DZ6Wc3Iz8HHxR17azu2HNnL3QNHciIz+bLPKT0vi683/0yghy8Du/fp8Lm1x6nsVPpHxiBJEs52DoR1CiD5TMYl7ctkMpGWl8mofv9h1c7f6BkSQa22rsnkIRdrT/pvL0mSsLa0IrPAnG/2i2ja1ev8NWxpecNreznp/7rQSDRqC2wsrYkK6kJidnqbYeioy8uvm4bhctJrc9q6ts09MwpKiymvqiC2e2/AXPvo6dx6z4NL0da1bSm/bu2eaem52pq45AT+c92NWGvMs4ieb4FLzjmNl4sHkQHhAKiUKroGhDba9oEho+nVjlZNQRD+/6ququlYC84aXT5D1K5tjsU5baxu9wQDVbU1zF/zNbPun4papSa3OJ95q5e0ud1Xm1bzyC3jWDj1dQB2HtvP9zvWsfnQH7ww7jFm3j0ZvdFAWoOZedb9uY0Zdz1Mt4Bw8ksuNO+XVVXw+brveWvSDMqqKsgtLkCna993fPYnHmNY71jef+y/ZOXn8PEvy9rcRm80EJeUwHWhXdlz/BCAPABVqVBia2XDOw8/R1F5qdxd7FL5e3Ri/pTXqdZW88GqtmehWrhmOdPumMitfQdTq61r1zZTRj1AJzcPPJxceXbsJOp0Wt7+7jPKqiq4a+CthPoEYDAYKCw7J7cSrP5jExOHjuGTJ18FSaKiupL/NbjuapWaUO8APvzxy0s/+Qa2HtlLbPfe/HH8YKPlWfm5TBw2lk6unqTmZLDp0B8AfLh6CY+PvJdPp72BUqEgu+Asx9JOydu998gLGOtrLiuqq5gyf9YlhetUViqbDu3mf4+bpxM+lHyc3QmH2rVtJ1dPhsfEypMOtJfJZGLr4T08OOxOwDyO5LvtvzLnwWeRJAmDwcjXW37i9FnzvZNfWszx08l89MQr1OrqeHnJ/9DqdWTk55BVmEtmfg7WlpbyuJPLOScwd8+Zu2oRbz/0HEk5pwG4PuI6lj3/vrzON5t/7nD3vPPW7t3KlFH38+nU2ZiAxRtWtaurTUtOZKQQE9adyppqistLOVN8ts1t2kr/HWEymfhyww+8PmEaZ4uLKCxvei4b43YxZdT9DO3Vn53H9stjZlq6tm2l/5acKcxjzoPP4Ghjz9p9WxpVVjUXhvOD/+2t7XCwseOdh58jLjGe1X9savEYl5NfNxeGy02vF2vr2jb3zDCZTLy1YiGTR45n3MARACzZ+MNldYVuSWvXtqX8urV7pqXnamt2JxzAw9GF9x97ETB3QZy9/BOqamt489sFPDT8Tqw1VigVSrYf3ceJjBR524E9+qDVa+UJGARBEC5mbWOFdGtU7w61xdug4h3r8BYLOaeN1cysTvrHfehTo7aQ+wc/dfsDJGans7n+ZfdKCPb2Y+LQsbzy1ZX75s3aNxZxx6zJ7e5ucy0Z3PN6grz82jWLVnvcPWgkzrYOLPx1ubwswj+EiUPH8PwiMYBVEC7X3QNHoFarG00OcaX83fm1IAiC8M/h0Sui45MMVKHnqeoTDFG5MsriwndxThurWaPN/8d+++aeQSOJCu6C3qAnpyif7Ueu7HdU0nKz2Hl0PzaWVm12Z/n/SELiu22/XvZ+FJLEgqmzqaqtYc638/+CkAmCcLX93fm1IAiC8M9hNJo63oIjCIIgCIIgCIJwLfKM6dqxSQYEQRAEQRAEQRCuVXV1daKAIwiCIAiCIAjCv4NCoRAFHEEQBEEQBEEQ/h3UajWqYivN1Q6HIAiCIAiCIAjCZfM0mVAdP370aodDEARBEARBEAThskV0DRJd1ARBEARBEARB+HcwGo0d/w6OIAiCIAiCIAjC305tgdHDByytzH/X1qDIz4H6jz8DGAyigCMIgiAIgiAIwrVObYExKByDZyT6yBFgAtWJX8HmBIr0JLmQYwJRwBEEQRAEQRAE4dpm9PDB4BmJ9tbnMPl4mpcFdMHit7lQVYnizGkAVCqVGIMjCIIgCIIgCMI1zsYOfc87zIUbhQQKCZOPF/qut17osgaolEr+DwaYg3mGyR9GAAAAAElFTkSuQmCC;" vertex="1" parent="1">
          <mxGeometry x="1120" y="990" width="824" height="126" as="geometry" />
        </mxCell>
        <mxCell id="SXNB1z7qJofkc3VJ6PGI-13" value="It will tell you that you disallow to do this because of Same Origin Policy, we fix this by&lt;b&gt; CORS&lt;/b&gt;" style="text;html=1;strokeColor=none;fillColor=none;align=center;verticalAlign=middle;whiteSpace=wrap;rounded=0;labelBackgroundColor=none;fontFamily=Comfortaa;fontSource=https%3A%2F%2Ffonts.googleapis.com%2Fcss%3Ffamily%3DComfortaa;fontSize=30;fontColor=#000000;fontStyle=2" vertex="1" parent="1">
          <mxGeometry x="1275" y="1210" width="400" height="30" as="geometry" />
        </mxCell>
      </root>
    </mxGraphModel>
  </diagram>
  <diagram id="wfh-iUx3c21jj9bZ6RVi" name="Cross Origin Resource Sharing">
    <mxGraphModel dx="1398" dy="751" grid="1" gridSize="10" guides="1" tooltips="1" connect="1" arrows="1" fold="1" page="1" pageScale="1" pageWidth="850" pageHeight="1100" math="0" shadow="0">
      <root>
        <mxCell id="0" />
        <mxCell id="1" parent="0" />
        <mxCell id="x-L2scX07mpJFinq_tJT-1" value="Cross Origin Resource Sharing" style="text;html=1;strokeColor=none;fillColor=none;align=center;verticalAlign=middle;whiteSpace=wrap;rounded=0;labelBackgroundColor=none;fontFamily=Comfortaa;fontSource=https%3A%2F%2Ffonts.googleapis.com%2Fcss%3Ffamily%3DComfortaa;fontSize=50;fontColor=#000000;fontStyle=1" parent="1" vertex="1">
          <mxGeometry x="180" y="210" width="510" height="30" as="geometry" />
        </mxCell>
        <mxCell id="iQYmxcmcEYPoJfDfc-gm-1" value="Allow developer to get across the Same Origin Policy" style="text;html=1;strokeColor=none;fillColor=none;align=center;verticalAlign=middle;whiteSpace=wrap;rounded=0;labelBackgroundColor=none;fontFamily=Comfortaa;fontSource=https%3A%2F%2Ffonts.googleapis.com%2Fcss%3Ffamily%3DComfortaa;fontSize=25;fontColor=#000000;fontStyle=2" parent="1" vertex="1">
          <mxGeometry x="194" y="310" width="462" height="30" as="geometry" />
        </mxCell>
        <mxCell id="iQYmxcmcEYPoJfDfc-gm-2" style="edgeStyle=none;rounded=0;orthogonalLoop=1;jettySize=auto;html=1;exitX=0.5;exitY=1;exitDx=0;exitDy=0;fontFamily=Comfortaa;fontSource=https%3A%2F%2Ffonts.googleapis.com%2Fcss%3Ffamily%3DComfortaa;fontSize=25;fontColor=#000000;" parent="1" source="iQYmxcmcEYPoJfDfc-gm-1" target="iQYmxcmcEYPoJfDfc-gm-1" edge="1">
          <mxGeometry relative="1" as="geometry" />
        </mxCell>
        <mxCell id="HnH3_tPAt6VMXRVvWohe-2" value="" style="shape=image;verticalLabelPosition=bottom;labelBackgroundColor=default;verticalAlign=top;aspect=fixed;imageAspect=0;image=data:image/png,iVBORw0KGgoAAAANSUhEUgAAAcMAAACnCAYAAABtlDcmAAAABHNCSVQICAgIfAhkiAAAABl0RVh0U29mdHdhcmUAZ25vbWUtc2NyZWVuc2hvdO8Dvz4AAAAtdEVYdENyZWF0aW9uIFRpbWUARnJpIDAxIEFwciAyMDIyIDExOjU1OjM0IEFNICswN2QUNvAAACAASURBVHic7J13WFRH24fv3QWBBaQXERRFigqKXdFg70aNohGxpEiqxrwxJsaoaZa8GuObxHxqml0TjTVqYsUQwWChqSgSUECkSpFelv3+WD26UlUUDXNfF9fFOTtn5pk5c+Y5U878ZE5OrmoEAoFAIGjA6FhZWde3DQKBQCAQ1CsyW1s70TMUCAQCQYNGXt8GCAQCgUBQ3whnKBAIBIIGj3CGAoFAIGjwCGcoEAgEggaPcIYCgUAgaPAIZygQCASCBo9whgKBQCBo8AhnKBAIBIIGj3CGAoFAIGjwCGcoEAgEggaPcIYPiKNjc0aNGqV1TldXl9deexW5XBRrQ+CDDz6gRYsW9W3GI2XMmDEMGTK4vs14rOjp6bFixQoUCkV9m1It92tnXefr31b/Rav9gDRtak9SUtI95+xITk6hvLy8nqwSPC709PSwtrYmISGhvk15pLi6uhIdfbm+zXisODs7c+VKHCqVqr5NqZb7tbMu8/VvrP81OsPXXnuV3r29H4cttcbDw4N+/fpV+puVlRUTJ/pVeVxX2Ns7kJiYqHWuaVN7rl279tBxL1u2DBMTk4eO516+/PLL+45XJpOxcOFCbGxs8Pb2xs9vUoUw/v7+eHn1qCszK6Vp06Z8+umnAPTu3ZupU6c+0vRqwtnZmbi42jcs9vYOfPLJJwCPvRxv3/f7LTd9ff1/XYNXG1xcXKQXgP79BzB+/HjpN39/f7p06fJI07e1tZXqenXcbSfAkCGD+fjjj/jwww/x9/dHX1//gcO3auXM3LkfMG/efGbMmIFSaagV193139bWltWrV2NlZVXBxmnTpvHCCy/UNuuV8jjaFwCdmgLo6enj6dmBRo30OHz4cI0RGhkZ0aNHDxwdW9CokS45OTlERkYQGXkOPT09XnvtNa3wly/HkJGRUWlmg4NPcvr0qfvIzuOhUaNGmJmZkJ6ernXewcGegIDj9WPUI0KtVrN27VoyMjJwdXWtNMz+/fvJycl5bDaFhYURHR392NKrDFdXVy5frn2PKSUlmfXr11Ub5lGX4/2WW6tWre7L4f9bcHV1ZevWrfVtRo3cbWerVs506dKFJUs+p7i4mH79+jFkyBB279593+F1dXWZOnUyX3/9Denp6fTvP4Bnnx3BL7/8ohXX3fVfJpPRt29ftm3bJp0zMWlMx44dOXXq4drwx9W+1OgMb9OmTRuAah2ivr4+48ePx9jYmMzMTNLT02jSxJa+ffuhp6dPZGQkAPn5+YSGhgKQlZVFYWERf/1VRtOmTWnZsiVxcXEkJSVx/XpylWkZGCh59tlnMTc3p6SklCNHDpOens6gQYMxNTVh4kQ/QkJC6N69u9axUmmAnZ0darUaW1sbdHUbER4eztmzZwHo0METDw8PZDIZCQmJHD9+HDc3V1q0aMmBAwcAsLOzIyVFezi0UaNGmJqaSg5y4MCBGBkZsWvXrlv2GrBkyRLefvttvL29adXKCbUaHB0d0dfX49ixAA4ePFghnx4eHjz33HPo6+tTXFzMnj17CQ8PA6Bjx47SvGVGRgbXrl1DqTRk8+ZNKJVKfH19cXZ2Ji8vn+DgoApxDxkyBENDQ3bs2AHAokWLOH78OIcPH0ZXV5fFixczZ84cXnvtNRYuXKh17ahRo2jTpg0rVqxg+PDhhIeHc/r0aZYtW8bff4dgZ9cES0tLIiI0L0LDhw/H0NCA3Nw81q5dS15eHkqlIb6+E3BwsEdHR5fY2Fh+/vlnCgsLadq0KX5+fjRu3Ji8vDxCQkKktD09PXFwaFZpPk+cCGTkyFF88sknWg+QtbUNEydOxMbGGrVaTVBQEAcOHECtVrNs2TIOHz7M4MGDmTt3LgqFAl9fX2xtbcnPL+DixSgGDx6sFaeLi4vUsMyc+RZHjx7j/PnzmJubs2TJEhYvXkx8fDwuLi4MGTKYbdu288ILL7JgwYJal+OePXvw9n4GExMzUlNT2LRpI2lp6dWWW3X3/X7L7d4Gr2nTpkyc6IuRkTFqdTlHjx7jr7/+ulWXBvPMM97I5XIyMjLYunUr169fx9bWlrfeeosLF6KwsrLC1LQxBw4cwMBASYcOHTExaczFixfZvn27dC9qW39utzdt2rRBJoNLl6KlcvD396eoqAhTU1MMDQ3Jzs5i/foNFBYWYm5uzpQpUzE1NUGlKmPLli3ExsYB2r3hpk2bMmjQIHR0FLi4uPLttysBaNHCkb59+2JhYUF8fDzr1q2joKCgxmfe07M9JSUlGBs3RldXh02btuDl1YOmTZtiZGTE4cOHCA4+KZX3wIED6dZN036dO3eOn3/+meLi4gp2AtjbNyU6+rL0+5kzZ3jrrZmSM7yf8G5ubkRFXZLassDAPzE3N9eqt3fXf4AbN27g4dGOPXv2SHH27t2HpKQ7I2XTp08nICCACxcuANC+vSdeXl6sWvV/1d6vu5+LR0mtnSHU7BDd3d0xNjbm4sUoDh8+gp6ePkqlEgsLM0pKSqVwRUXFXLqkeUMtLi5CpVKRkpJMebmali1bkph4TWrwq8LOzo6ff95Cbm4ebdu2ZcCAgWzduoVDhw4ycOAgtmzZDMDNmzlaxx4eHjg5ObF//z4OHTqEkZERY8eOITc3l/j4eHr08OK7776jvLycwYOHYGtry5UrV0lLu9MLtLe3JzHxWgV7kpOTaz1f2KFDR1atWs3atWsxNTVh1qxZ3LhxgzNnzkhhbG1tmTTJjy+//JLU1DSsra2YNWsWGRlpqNXg5+fHV199RUJCAra2TXjnnf8QEaF54fDz86OkpIS5c+eiVqsZP348SqVSy4bQ0DBeffVVduzYQZMmTSguLsbDw4PDhw/j7NyK6OjoSnsFvXr1ol279ixf/gVFRUUVfs/OzmbHjl9p1KgRc+d+gINDM1au/BqVqpznnnuOkSNHsmXLFvz8/IiICOPHH38ENI5h/PjxbNq0kenTp7Nv3z6CgoLQ19dnxowZlZbjvfkcN25chXwqFAreemsG27f/SkREOAYGBrz++uvk5eXx559/AmBhYcG8efMoLi7G39+fzMwsya5hw4ZhaHhnmMjAwECrYQkNDadt27acP3+edu08SEpKwt3dnfj4eFq3bk1YWHilttdUju3be7Js2ReUlZXRv39/3njjTT755JMqy239+vW1uu+1Lbe7GzyFQs6bb77Jpk2biIqKwsjIiNmzZ3P9ehK2tk1o29adhQsXUlhYSPv27ZkxYwbz5s0DwNzcnL/+CiQhIQFraxvmzfuQo0eP8r//rUChkPPOO+/QqVNHzpw5e1/1x9fXl5s3c5k7d65UDpMmTeb7778DNKNUK1eulMphyJAh7Nq1iwEDBvDPPzHs27cPV1dXevfuLTnD273h8vJykpKSOHToEBYW5lo9nqZNHVixYgUqlYopU6YwYsQIrd+rokkTOz799FMKCwvp0aMH7703m1WrVvHzzz9jYmLCggULJEdhZWVFo0aNWLRoIQqFgpdffhkfHx82b95cwU6AxMRE+vbti7GxMbm5uXh59cDU9M6UyP2ENzU1paSkhFdeeQVbW1tycrLZtm27FNe99R+grKyM0NBQunXrRmBgIAqFgi5duhIQcIxmzZrVWDbV3a/HRZ0uoDE1NQUgLu4Kenr6vPrqK0yePIlhw4YzevRoZDIZABYW5vj7T8PffxotWz7YaqT4+Kvk5uYBcOnSRSwtLe7r2vh4zY3My8vjzJmztGrViuLiYq5fv86gQYNwdHTk0KGDJCcnU1RUxI0bN6TrHRwqzg3a29tz7Zr2gprqOH/+PFFRmoqfnZ3DwYMH6dCho1YYT09PQkPDSE1NAyAtLZ2//w6hQ4eOtGvXjtOnT0sVMiUlmRMnTgCaIQtPT09+/fVXysvLUavV7Nixo4KjTktLRS6XYWLSGA8PD44cOYKRkRH6+vq0bt2W8PCKjbiTU0sGDOjPV1/9j4KCgkrzFhameZEpKSnh4sVLREdfRKXSpB0ZGYm9vf0tG9vTr19/5syZw5w5c3B3d8fMzAxHR0cKCwsJCtL0aoqKiti7d2+FdCrL586dOyvks3nzZhQXlxARoclPYWEhf/xxkM6dO0thjhw5QmFhoRTngQP7pd8OHjxIWVmZdHxvwxIREU7r1q0B8PBox5YtW2jb1h3QvEBGRkY8UDnu2rWT0tJS1Go1R44cwcBAH1vbJlWWW23ve23K7d4GT3NPioiKigI0z81HH31EbGwcnTt34ujRYxQWFt4qjwiys3NwcnICIDMzU4onLS2VjIwMaZRIpSrnwoUo7O0dpLRrW386derE778foLy8nPLycvbt20eHDp7SasmIiHDUavWt6yJo1qw5oHn2unbtxqBBg8jOzuKnn9ZKabu6utU4lHzqVAilpaWUl5cTEhKCnV3TasPf5tKl6LvKSJP/284vJyeHhIREKa78/Hxp5KKsrIydO3fSoUOHKu2MjY3lyJGjzJz59q2XEJnWC9b9hNfV1aVDB0927drFp59+SmDgCfz9/aVr763/t/nzzz/p3bsPAJ07d+HChfMUFRXWqmw0ZVL5/Xpc3FfPMCoqqtph0uzsbACaNWvGlStX2LlzFzo6cgYOHIiubiMpozk5OQQEBABUmHerLXc3TipVueRoa4NarR1WJpNJtu3evRs7OztatGiBl5cX+/btk/IFmuFQE5PK5wuPHQuQjsvL1ejq6mpdVz0y1Ora9SpvN2D3Vsa7e3H3/q5Wl0t5vJuIiAjatGmLu7s733//PXZ2dri5tcbFxVnLIdyNQqFALq+6vFWqu++NitLSO3aVlZVJn56o1WrWrFlDVlYWAEqlEn19fUxNTSgvV98TZ+VlU9t83otMhla4kpISrTh1dO48GnK5XKt+ubi4ajUsN2/eJD8/H1vbJhgZGfHPP/+gUMixtrZBpVKRk3MTA4OKvbOayrFinZZJ+aus3G7bXpvyqClcZQ3efTxit8pX8//dzypo6kdp6Z1zpaWl6Onpaf1+5/+q60/FNDXP8e183J1GWZkKHR2Nk4yKimLp0v/Srl07Jk6cRHz8VXbu3AmAq6szW7ZUP194d10pLS1FodDYU9Mzr91mlVVaLlXnDa17ca+denp6xMfHs3DhZ4BmWLRr164PFD4rK5vo6DvDpGFhobzwwlR0dHQoKyurUP9vk5WVRVpaKm5urvTr15e1a9dqdXZUqnKt56pRI12t66u6X4+LWvcMa3KEAOfPXyA/Pw8PDw98fHxo3doVb29vDAyUWuO9Ojo6WFhYYGFhgY2NzYNbXwkqVRl6eo2qPAbNN4KOjpq3DmNjIzp27MQ///yDkZERPj5jycjIICgoiBs3MrGzs0NfX08aM9d8PpFcYb6wcWNtB3n9+jXc3Nykh+PutzrQDCm7u2t6D2ZmZgwaNFh6I75NeHgEnTp1wt5e87bo4OBA9+49CA0NJSIigk6dOmNjYy3F0atXL0DT0IWGhvHssyOkuIYNGy69MdvYWGNsbAxAaGgonTt3RiaTkZubS0REJD17epGXlye9xd5NbGwcv//+OzNnvq01dHi/aGw8y4gRI5DJZCgUCvz9/Wnfvj3x8QkolQZ4emrKTKFQMHz40CriqJjP2w+cUqnE1rYJ8fEJ6OvrSQ+7oaEhI0eOrHRi/3acPj4+t5yVnLFjx2o5JldX5wqNQVhYGGPHjpF6TpGRkfj4jK20Vwi1K8fRo59DT08PmUzGoEGDKCgoIDU1tcpyq+m+17bcQOPwL126JB1fvXoVpVIpTZUYGhqyYMECHB0dOXv2LEOGDJaGWbt1646RkRFxcf9Umq+64Hb9GT16NAqFAoVCzrhx4wkNPVvjVMWoUaPo0KEDwcHBbN26VVodamBggKWlldbwX2lpSaUvMpVR0zN/PxgZGTFs2DDkcjm6urqMHTtWGm6vzM7y8nJef/01aXTO29ubS5cuPlD4y5ejcXRsKdXLVq2cyc3NlZx3ZfX/NgEBAfj6TqSgoJCUlJR7yieJdu3aAbdHJx68fB4FNfYMS0qKiYqK4s8/A2uMrKiokF9+2YaXlxfNmzfDysqKrKwsjhw5woULF6S3P0NDQ5555hlAs5r0ypUrD5mNO2Rn55Cdnc2UKVMJDj5BXNwVrWPQDBG4urrRr19/5HI5YWFhxMTEABATE8O4cePQ0VGQmppGTEwMrVq1omXLFuzff+DWJxXaQ6RNmza9Ned55yG8ePES4eHhzJ8/nxs3bhAfH691TVhYKF27dsHPzw+5XMHRo0ekRTy3SUlJZvPmzUybNg0DAyX5+fls2rSR5GTNwqJffvmZV155jaKiQmlRUqNGmjLeunULEydOZP78BRQU5BMRESENxw0ePIRr165x7NgxEhISaNKkCYGBf94qm39o2fJVrVVo9xIcfBJTUzPefnsmX3654r7v0W22bv0ZX98JfPbZZ5SXlxMaGsrx48dRq9V8++23TJw4kSFDBlNSUkJERAS9e/euJI4tTJo0ScpnZGQk+fn5ALRv35527dqxZs0avvlmJX5+Exk71geVqozAwD+lYeXK4pw4cSKLFy8mPz+fgIDj0ovB7Ybl3s9qwsPDGTdunLTIKjIygpEjR0qLkyqjpnKMiAjj/fffx9jYmOTkZFat+j/UanWV5Xa37ZXd99qWG4CbmwubNm2WjlWqcr79diW+vhN5/vnnUalUHDlyhKtXr3L16lWMjRszf/585HIFycnX+frrb6rszdcVW7f+zIQJE1i8eAkymWb4c/PmLTVeFxgYyJQpk+nbty8ymYwtWzTXODtX7A1fuHCB/v378/HHH/HVV19XG29Nz/z9kJaWhlqt5pNPPkWpNCAiIoKdO3dUaWdpaSlbtmzhrbfeQldXh9TUNGlO+X7D5+fns2fPbv7zn/8gl8spKyvlhx9+AKqu/7e5fPkyKpWK48cDKvz2xx9/8MILL7BgwQKys7PIyLiBiYnpA5dRXSOztbWreUzpX4SHhwdWVlYcO3bsga739Z3AsWPHpHk8gGeeeUZrhWxNeHt7S6v6BE8epqamFBYWSqviZDIZK1euZNasWbi4OOPt3ZuVK1c+UhuWLVvGwoULH+snK7cxMDBg0aJFvPvuuw1qAwkfHx9ycnJq9QlZfXK/dtZlvtq183gs9b8qxowZQ48eFT/DW716NbGxsQ8V933NGTZ09PT0bg2HZmidt7dv+sDOVfDk0a1bN1q2bMkPP/xAaWkp/fr15+rVqxQVFVU5X/JvorKeREPA1VW7N/ykcr921mW+6rv+79y5U5rfrWtEz7AeED3DJxu5XM5zz42hffv2yOUy0tJS2bRpM5mZmY/NhvrsGQoEDZEG5wwFAoFAILgXsVG3QCAQCBo8whkKBAKBoMEjnKFAIBA8JTwtWotPI8IZCgQCwVPC06K1+DTyRH1aoVDIGT58BF26dEWhkJOdncO+fXuJirpY47X+/v5cuHBea9f3x03jxo0ZO3YsTk4aRYrU1BR27dpVQQT4fnn99TcIDg4mIiIcmUzGZ599xjfffENqamodWX4He3sHXnjhBWmbppqo7apHW1tb5s2bR3LydUCz9dLSpUsf2t57kclkvPTSiygUOpw7d46TJ09iY2PDq6++yqJFi6RGxNHRkdGjn8PCwuKW4sFFdu7cTUFBPrq6unz99dda+9HGxV3hp59+xNTUjIkTfZHJZOzZs5dr1xLp1asXLVq0YOPGjYBm39ExY8aiq6t5vKKiLrJnzx6t7c4UCgVz5rxPUVExy5cvrzFfdbW61N/fv1IFgG7dujNgQH/09PRQqVQEBwdz5MgRyeaHrdvGxsZMmTIVGxtrSkpK2bHjVy5e1DzXffr0YejQISgUOsTGxrFu3VoKCwuZNWsWTk5OfPnll/zzzz84Ojri6+uLgYEB2dnZbNiwgYyMDJ577jl69uyptRfnjz/+yJUrV7C2tmLSpMkolYaUl5dx4MABwsM1uwKZmprw0ksv06RJE0pKSti1a6e0WXhlaRUUFPLJJx9jZGTE66+/DmiUJZ555hlUKhXZ2dls3LiJzMw79aZnz564urrx008/PuAd0+ZuTUKZTMa4ceNwd/cA1AQGBnLkyJFq6y9odpSZNMkPpVJJTk4O69ate+g26l78/f0pKytj7dq1WudtbW35+OOP+fDDD7Xsux/s7R3w95/GRx99VBemSjxRznDaNH/y8vJZtGghRUVFODk58eqrr7J27VrpwamKx62pdy8GBgbMnv0u+/cfYN26dajVatq39+Q///kPy5Yt1fpI/2G4W1/waSMzM5NFixY/0jRatHAkLy+fbdu2MWfOHE6ePImPjw+7d+/WcoTTpk2TGkyFQsGIESN45513WLJkEaDZb/S26sLddO/ejeDgk2RkpNG3bz+2bdvGoEGDWb58mRTG19ePnTt3EhV1AR0dHT74YA5RUVFackg+Pj4kJ6diZlb/O3D069ePDh06sHLlN7f2UTVg4sSJTJgwga1bt9ZJ3R43zofo6Et8++1KbGxsmD17NrNnz761FeEgFi1aTG5uLs8//zwDBw5k7969LF++nDlz5gCahv+VV17hu+++4+rVq/Tq1ZNx48azatX/AZo9hSvbUcjPbzInTgRx6lQISqUhs2bNIjr6MoWFhTz77EiioqL48ssvbynCzObcufOSYkNlac2dO5evv9bsROPg4EC3bt1YvHgxRUVFDBs2jOHDh7Jx451PpiIjI4mLi6uL2wRoaxL27OmFhYUFH3/8ETo6OsybN4/o6GhSUlKqrL8AU6ZMZv369cTGxtKxY0d8fSfwxRc1v5DdL507d+bXX38lNzdXOte3b7/72ke6MmqjDfogPDHO0MnJSVJ4vv02Ghsby7p167G0tAIuVquHVZWmnqmpGefORUrbi9nbN2XChAkYGRkhl+sQEvI3+/drNqS+W0MvNzePkJCT9OvXv4IGXWX069eP8+cv8Pfff0vnIiLCKSwskPYqrElTrzKbvby8cHV1wcHBnj59evPVV19J+oIGBgZ3acVZYmRkzIED+6WdcDp37sSQIUPR1dWlrEzF3r17iYgIx9vbmw4dPCkuLsbQ0AiFQofNmzeRlJTESy+9iLW1NfPmzWffvn1ERITz7LPP0r17d4qLi4mJicHU1JTTp0/Xib5YVdpy/v7+XL9+HRcXVywtLSgtLeHXX3dw/vx5ZDJZlTZdv34dPT29uzYVdkFf/46WJsBzz41hx46d0jaAKpWKPXv2kJR0DUNDo0r3ZL1NSUkJenp66OsbUFxcxODBgzl1KoScnJtSmJycbPT1Ndvi6erqolbLtF7U2rf3xNramt9++42xY8dK56urH3dTnY7l/aKnp8eIESP4+OOPuXlTk4fCwkLWr1/PokULOXLkCF27dq2xbtdEamqapEKSmpqKTCbDyMgIDw8Pzp4NldIOCAjA3/+VCiol+vr6BAcHc/XqVUDT0xkwYECN6drbN+XcOc29LyjIJy4uFhcXVyIiwmnXrp3kMNLS0omJuYybW2suX46uVVqJiYmSzqdCoaBx48ZkZGj3djw83HFxcWXdunXV1mnQ3Nfhw4dRUFBIYWEhGRnp6OrqSff1Xk3CkpISfv/9d8rLyykpKSEpKQlra+sKe4Leja1tE4qKCqXdWkJDQ5kwYQJKpZLOnTtXqbPq7u7OmDFjWLRoIXp6BsyZM4fly5dp1ft7SUq6Rq9evfj9998BTYehdevWZGdrnoXmzZvj6+vL559/Ll0zb9581q1bR1lZaZVtm6WlZaXaoA/LE+MMXVxciIqKqvDg35Y5ul9ycjSaaDo6OsyePZuYmBguXbrIyy9PY82aNaSkpNCoUSNef/0NunfvzunTp2qtoVcZrVq1kpQ47uZ2b6A2mnqV2RwcHEz79p7SMOm9mJubExR0gqtXr2JmZsaHH37IpUvRmJmZ0r//QJYvX05hYSFmZma8//77XL+uGQ5p0sSOTz755Jb+nCeTJ0/m888/56ef1moNk3p7e9O+fTsWLVpEfn4+nTt34qWXXq4zoc3qtOV69OjBihUruHHjBs7OLrz++mssXLgId/e2VdqUlJRERkYGfn5+7N69h3HjxmrtviGTyXByain1KO7m9hCZrq7urQ26fXB3b4tKpeK33zQvBsHBwTz33BhcXJwJDAzk5ZensWiRtvDxr7/+yuzZsxkxYgQWFhYEBARIQ9rm5hY899xoli9friWYWpv6AXde2KrSsbxf7O2bcuNGhuSMblNWVkZ0dAwtWzrVWLdrw+0XTtD0qAoLC8nNzcXMzExLFSY7Oxtzc7MK1xcWFrJv3z7puHXr1ly5clU6btHCkW7dumFqakZc3B2x44SERHr06MGxY8cwNTWhdevWXLt2DYVCswH27S337k67prTuZeTIkQwcOJDY2Di2b99eZTiouk4bGOjz/PPj+eKL5aSnp2Nqasp7773HhQtR0rX3KomcOnXnGdTV1aVly5bSXrhV1V8zM1OysrRH0HJysjEz05R5dTqr3bp1ZciQoZibm/PHHweqdYQAQUHBDBjQn0OHDqFSqfDy6snp06cq3U6tMqpq2x4Vde4M27Xz4LnnxmidW7hw4X1N+Orq6jJr1izp2MzMlE8++fS+7LitAFFWVsaFCxdo3rw5RUUalesXXnhBCqenp4e1tXWVGnp+fn61TFEGVL1/QVWaekOHDpEau8psvt0LrorMzEzpDTYrK4vU1BSaNLHFxcUFc3MzZs6cKYUtLS2TVEIuXbok9YDOnz/HK6/4V4gbNDvv799/QNrE+cyZs/Tp06f6oqgCjYDufADOnYtkz549nD9/ngkTfG9txh2upS135MgRaV4hJuYy58+fw8PDHU9Pz2ptur1Zdvfu3UlOTtHarR8qk0bSpry8nNzcXGJiLrNz5w5sbGyYNWsWly9r9Oi2btVs7Dx16lQOHvxDq0EFzXzJDz/8QFRUFEqlkpkzZxIdHc3lyPxungAAIABJREFUy9FMmzaNbdt+ITc3V8sZ1qZ+AFXqWBobN66h9Kuj8vK4U0zV1+37QU9PjylTprBt2y9VpCmrVHLqbmxtm9C3b19pc/ObN3MxMzNn1apVFBcXawnDrl+/Hl/f5/H2foasrCwuXrxYowRUdWlVxt69e/n9998ZN24cw4YN47fffqsybFV1WqlUcvZsqKR8k52dzYkTJzAzu1NHqtNanDBhAiEhIWRkZKBQKKqsv5VzJ99V6ayeOXOGn3/+hQULFnD9ehIbN2rWZsyYMUOrHp84EcTRo0cAKCgoIDo6+pYuayjPPNOLFSu+rLUzrKptu3tD+bqkzp1hZOQ5IiPP3fd1MTH/SAsTSktLpa6zvX1TZs58m4KCghr1sO7mbq2wsrIyFAoFarWa3NxcrW65qakZpaUl2NhY11pDrzKuXInDza11hbw7OTlVOex2r6ZeZTbXxL2aaKWlKimvFy5cYMOGDdJvNjY2ZGZm0qNHDy3tMJVKVWUDAeoK5aBSPVjDeOPGjQoLc6rTlrvXaclksltvxTXbpKury/Dhw/jyyxX07z8AZ2cnEhISOXDgAFeuxOHq6lahp92+fXvi4uLIzc3l00/vvHylpKSQnJyMnV0Tqddqb98UBwcHtmzZcmto3ZigoCBiYjRSYLelnAoKCjh//jzOzs7IZDKsra2YMMEX0EiZNW7cmBkzZrB//z7u5d76ARV1CDV5f/CVhdeuJWFhYYGJiYnWUK6uri4uLq7s3bsXGxvrauv29evXa5WWgYEBb775BqdOnZLiysrKwtLSUgrTuLEJ2dlZVcZhZ2fHG2+8wbp166WFKrcb39ucOXOWYcM0kl+GhkrWr98gKXfc3rRapSqXdBRvv8w0btyYmJjL1aZ1N/b2DhgaKomOjqa0tJQTJ4KYMGFCtc6wqjqtVqtRKLSb43uHoCvTWtQsovHB2NiYTZs0w6kqlarK+puVlS0p2t9GU+bZVM4dndXbQsO6urrSi8M333xTZV4BAgKOM3Gi5mX32rVrWr3Je9tz0G7Tq2rbHhVPzKcV//wTQ3p6GhMnTpSESq2trZg69QX27NkDPLweVnx8AnK5nO7duwNgYtKYOXPex9zcrNYaelVx9OhR2rVrR9euXaUK366dB6+//joqleq+NPXupaysFKXS4L7yGh4egaenJ3Z2doBmGPqdd96pcfPle9M6ezaMwYMHSUKlrVu3xtm51X3ZUh1VacsB9O/fHysrK0CzcKBtW3cuXLhQK5sGDBjAmTNnyc3NpVu3LqxevQZ3d3eUSkN27drNuHE+kpL27QU0o0ePpqCgAAMDA5YuXYq1tSZtc3NzbG1ttRaKjB07jp07d+Ds7EJxcTE//PAjI0eOoqioiJKSEtzcXAHNPI+7uzsJCYlERUXx7rvvsmDBAhYsWMBPP/3ElStX+Oabb2pdP6rTsXwQiouL2bdvH6+88gqmppqhMqVSyYsvvkh4eBjp6ek11u3aYGlpyaxZ73Lq1Gkt9YRz587RqVMnGjdujEwmo2/fPtJqz3tp06YNr732OmvX/sQ//8RI50eNGoWvr69km6dne8lBt2vXjqFDhwEajcB27dpLcm2RkZH07dsX0LQ1Li4uXLx4qdq07kYulzFpkp+k+9e6tZu0sK158+aVNtxV1emIiAi6dOmMo6MjoBkO79mzp3RdZZqEjRo14pVXXsHAQMmaNaulF6fq6m9KSjIGBgY4OTkBmnnKtLRU6WWhOp3V559/nr17f6OkpESS4KuJpKQkysvV+Pj4VBhqz8hIx9zcXLLTwcFe68XocfPEzBkCfPfd94wYMYIPP5yHrq4OeXl5HDx4UJqfelg9LJVKxddff8OkSRMZPnwYpaVl7NixQ9In/Pbbb/Hz82Po0CEUFxcTGRmJt7d3reLOz8/niy+WMWaMDyNGPAuoychI53//+0qaL7ofTb27CQkJYcKECXTv3oMVK76slT2aFVcbmDZtGnK5nIKCAr75ZmWNjVd6ejqpqWl8+uln7Nq1i6CgE5ibmzF37gfk5eWRmppa48reqrh7mFSlKmPJkiVVassBnDx5khdemIqlpRWFhQX8+OOPZGZm1miTsbExXl49WbRoIWVlZcTHJ+Lj40NaWhqFhQXExsaydu1P+PiMxdTUFJlMo6u5fPlyVCoVhYWFrF27Fn9/f3R0dFGr1WzZspW8vDxA02Co1Sqioi6iVBrSq1dPfHzGERISglqtZvXqNUyc6MvEiUbIZHDy5N+Eh2sLN9+LSqWqVf1ITk6uVseyNowaNYpBgwYC8Pnn/+XYsWPk5xcwY8ab6OnpU1ZWRnBwsOS0alO3a2LWrFkYGBjg7d0bb2+NLuXu3bs4f/48hw4d4sMP56JQ6BAXF1dh8QxonNWMGTO4efMmvr53pi6++up/HDhwgAkTJvDxxx8jk8lJSIhn82bNPPHRo0eZOnUqH3/8MQqFnN9+2yutbvztt7289NLL9O/fn5KSErZv30ZxcXG1ad39+UZCQgJ//HGQd999F4VCQWZmFuvWrQPg5ZdfljQA76aqOg2wadMmXnrpJWQyOampKQQFBWFkpBHhrkxJxM/PD09PT5KSrvPBBx8CGp3U/fv3V1t/N2zYyOTJk7U+rbhNVTqrbdu2xczMjJCQv4mJucz7788hMjKymh7lHY4dC2D48GEVJJaKiorYuHETb7zxBrm5eaSmpnDjRv2tkn+sG3XPnj0ba2vrSs8/6Xh6tsfPb1KF84cOHXri9c8eF3V5f6v6Hk5QPfVVTx+lztzTjJdXD63VpFXVaR0dHUxMTLS+vRs6dChGRkZs3779sWgtNnQ1ncfaM1y2bFnNgZ5QwsMjqhy+EWh4mu/vv4X6qqePUmfuaUbT0y6tMZxMJmPOnDl8//33XL58+dboRg9pjvBp0Vp8mnmihkkFAoHg38LAgQPp378/69evrzFsaWkpq1b9Hz4+4zA2NkKtlnHs2DFp+P9Rb1YhEHqGAoFAIBA8OatJBQKBQCCoL4QzFAgEAkGDRzhDgUAgEDR4hDMUCAQCQYPnqVpN+jB6h71798bR0bFWK7seFULvsGqeNL3Dmu7VnDlzMDEx0drEYN68ebXSOzQxMWHiRD/MzDTbYqWn32Dz5k3SLiDw9Okd3nk2OwNyCgry+f33A7X+zKO+9A4bNWqEn58fzZo1o6ysjMjISGk7tcehd2hr24Tp099k/vz5Ne7JKni0PFXO8GH0DsPCwqrc5PZxIPQOa+ZJ0Tus7b1aseJL0tLSteKvjd7h4MGDSUlJlpQzJk6cSP/+/bX2tHya9A5B40SzsrL57LOFlJSUSPt66ujocubMmRrTqC+9w4EDB1JWVsqnn36KXC7npZdepk2bNkRFRT0WvcP09FTWrl0rHOETwFPjDGujdzhw4ECMjIzYtWsXoGnUlixZwttvv42np6e0u0J1eodKpSG+vhNwcLBHR0eX2Ng7cjBC7/Dp0DuEqjX/jh8PqFHvsDb3qipqp3eYc2sbOBkymQw9PT3i4+Ol3582vUMTE1OsrGxYs+Y7yZbr16+zcuW3mJvXzpnXn96hPX///TdqtRqVSkVYWCju7u5ERUU9Fr1DU1MzXn75ZebOnYu3t3eVeoJQs96h4OF4apzh49A7vHDhAn5+fkREhPHjjz8Cmn0cx48fz6ZNG4Xe4VOid2hgoF+l5l9Neoe1uVe36dHDi7Zt26Cvb8Dff//NgQMHaqV3eOzYMd5//30WLVqEQqEgIyOd9etP3rpfT5/eobm5GZcuXazwbKakJJOSklyrdOpL7zAxMfGWePF55HI5Xbp0pqysvN70DqvSE0xOTq5R71DwcDx2Z/gk6x1GRUXh6dkeCwtz+vXrD2gaofz8fKF3+BTpHSqVymo1/2rSO6yNfl9aWjqlpaUsXboMXV1dZs6cydWr8URFXahR79DHx0eam5LL5UyY4MvIkSP57be9T6XeYW00CGvL49Y7PHjwIGPHjmH+/PkUFhZx7lwkDg4OtU67rvUOq9ITtLJKrFHvUPBwPHZn+Cj1DsvL1VrDWLclfiqjKu1AtVrNmjVryMrSaKoplUr09fUxNTUReoeV8uTpHdZG868mvcOa9Pt++ulH6XxZWRnnzp2jefNmUkNWld5hZOQ5WrVy4rvvvpeG5k6fPsWoUSNxdXV7KvUOs7OzGD9+XAVnYWNjjYmJaYUedVXUh96hsXFjAgKOs22bpsfWrp0HjRs3rje9w4po9ARro3coeDiemk8raqd3eA03NzepknTocH96h2q1mtDQs4wYMQKZTIZCocDf35/27dsLvcMq0noS9Q5ro/lXnd5hbfT7Zs+eTefOnQFNo9S2bVutVcFV6R0CJCZek+6zTCajc+fOT7Xe4eXLl8nMzMbHx0d69mxsbJg+/S3pmpqoL71DCwtzXnzxRRQKBXK5nGee8ebSJc1ivPrQO6xKT7AmvUPBw/PUzBlCzXqHFy9eIjw8nPnz53Pjxg2tRQm1ZevWn/H1ncBnn31GeXk5oaGhHD9+HLVaLfQOeTr0DoFqNf9q0jtUq9U13qu1a9fi5zeJ4cOHo6Oj4NSp09IinOr0DgG2bdvOpEl+fPaZZi4xLi5WK1+V8STrHWpGU1YzfPhwacFJUVERu3btlBZr1UR96R3GxsZy7tw5PvroI+RyOWFhYZKzfRx6h7enF25TlZ4gVK93KHh4HslG3Q+qa/c06x0aGxtXuqo0Li6WVatW14NFTx5C77D+qS+9Q6EHWjkWFhbMmjVLWk1alZ5gTXqHgofnkfQMH1TX7mnWw8vNzX0qnHZ98jTf338L9aV3KPRAK0dfXx+VqqzGcDXpHQoenqdqmFQgEAj+LTg7uzBt2ksEBByvMWxNeoeCh0foGQoEAoGgwfPUrCYVCAQCgeBRIZyhQCAQCBo8whkKBAKBoMEjnKFAIBAIGjzCGQoEAoGgwSOcoUAgEAgaPMIZCgQCgaDBI5yhQCAQCBo8whkKBAKBoMGj4+joVN82CAQCgUBQr4jt2AQCgUDQ4BHDpAKBQCBo8AhnKBAIBIIGj3CGAoFAIGjwCGcoEAgEggaPcIYCgUAgaPAIZygQCASCBo9whgKBQCBo8AhnKBAIBIIGj059GyBo2DRr1gxXVxeaNWsGQEJCAtHRl0lISKhnywQCQUNC7EAjqBeUSiW+vhPo2bMnGRkZZGRkAGBpaYmlpSVBQUFs3fozBQUF9WypQCBoCNR5z7Bt27Z06tQJuVxOZmYmhw4dpqiokBEjnuXixShiY2NrjMPKyoqBAwexZcvmujbvX4mxrSFDPumJZStTykvLufr3dQKWnqakoBS5Qs4zMzviOrA5RTdL+PN/Z4k/eR0Am9YW9JvTjcZNDLkanMTRz09RVlRWIX5DCwN6TffEpo0larWanGt5nFgZRubVHACGfNqTuL+ucflwPHrGjRj/3SBO/XSO6MPxldqrVCp5773ZWFpasnLlSkJDw7R+79ixAy+99BIODg4sXbpMOESBQPDIqdM5QysrKzp37sLWrVtZt24dBQUF9OzpVZdJCCpB10CHlPMZ7J8TSNDqcFwHOdLlRXcAPMY4097HhfBt0eSlFTB8US/0G+uh0JHx7LLeyFAT8mMkzv2b0+0l9wpxNzLSZez/DSA+JIUNE35j44R9hG+LZtSKPpg0NdIKq9CRMXyJN5f+uFKlIwTw9fXF0tKS9957n9DQMHr16snSpf9l6dL/0qtXT0JDw3jvvfextLTE19e3bgtLIBAIKkFhZGT8cV1FZmVlhYNDMyIjI1Cr1cTFxXHlyhXatGlDu3btaNq0KY6Ojly6dAkLC0tGjBhBly5dcHV1RaFQMHjwYCIiInjuuTGYmZni7OxCQUEhLVo40rJlSxITEwHQ09PjlVf8OXPmDMbGxowYMYLOnTvj7u5ORkYGeXl5dZWlp4LC7GISTiWTcz2PjJgsOvq1IS8ln9jAa3Sf5oFCV87+D/4iP6OQNiOcSLuUiY6+Dp7PuxG8OoJzu/+hWVc7rFqZErkzRivuTn5tyEsv5OymKOlcTlIeapUa10GOxAZeo1XfZmQl3KTD824U3SzmxMqwe02UaNasGVOmTGbNmjUkJCTecorvERQUTEpKCj4+YwkKCiYnJ0frWPQOBQLBo6ROe4bXrl2jsLAAX19fOnbsSOPGjQGIiooiMfEagYGB7N69G4VCwahRI4mKusD69evYvXsXLi6uUjyHDh0kKyubLVs2Exv7T7VpduzYkaSkJDZu3EhgYCDt2rWryyw9dbQf54qOnoKLB+IAMLQyJC+tkNEr+tG0gw0ARtZKDC2VAJg0NWbylhEU3CjEyEZZIT679lYknk6pcD4+JJkm7Syl4w7Pu2FopSRg6elq7XNzcyUjI0MaGlUqlRQUFLB161b27NkDgKWlBQChoWFkZGTQsWOH+y0GgUAguC/q1BmqVCp27NhBQEAAhoaG+Pr64uLiUiGctbU1JSUlXLhwAYCSkhL+/vvkA6V55cpVXF3d6NSpE3l5eRw8ePCh8vA009Lbnp5vduDk6ggSz6YCoC5TAXB44Ulij2t61qrScspV5QBcP5fO7v8ESOcrRVZFguo7P8h1FbWy0cGhmbRYBjSrR6dPnyHNIxYUFJCQkCj9npGRgYNDs1rFLRAIBA9KnTrDRo0aYWhoyPXr1/nrr784duwoHTp0rBBOrYbycvU956poiNGEVSjuNLYKxZ11PwkJ8Wzbto3CwkL69etPz5496yAnTx8OnW0Y+lkvTq09x+kNF6TzeemFGFkbkJ9RiL5Jo1vnCshLLwTA0Fyf3JR8lBYG5KUVVoj3ekQ6zbo2qXDesYcd1yPTpePQTRcoyimm35yuD2R/r149sbS0FAtmBAJBvVCnztDCwgJfX1/09fUBMDQ0JDf3JqDpNTZqpGmM09JS0dNrhJNTKwAUCjldutxpRFWqMvT0GknHN25k0KxZM3R0NE7Q2dlJ+q1Hjx44O7ciKiqK48cDcHW9M9zaULB0NuPZpb1Jj84iJykf18EtsO9oDUBs4DWMbQzp+qI7nSe3pbSwjMTTKWTEZJGbko/neFc8n3fFtq0FcYGJFeIO3x5N825NaDO8JTK5pifYvIcdHSe25tTac1I4NZrep1kzY7q97FGlrYmJCVhaWlY4b2FhSVBQcIXvCy0tLUlMFN8cCgSCR0udLqDJy8ujpKSUgQMH0L59O/T1DQgICKC0tJTychW9evWiZUsnaQ7Ry6sHHh7tcHFx4erVq9jY2BAREUFxcQmOjo507dqN/Pw8rl69iqGhkj59+tCiRQvKysqwsbHhzJkz5ORk06lTZzp16oyLiwuBgX+SnZ1dV1l6Kmjeww7nfs0wslbSqo8Drfo4YGCqT/Shq9yIzUGvcSM8RrVCriPnyOIQMq/kgBqSz2XQ8hl7Wno7EBeYSNCqCMrLtHvoqpJy/glIxGN0K3q+6YnneFdM7Iw59OlJshNzAaQFNBkx2cQFJtH7P50oKSwjIyargq2lpWUMGzaMxMREkpPvzEXevHmTxMREcnJypHMdO3agT58+bNiwUfQWBQLBI0V8dC947Lz88st06ODJe++9Lzm56dPfBGDlym8BzcKapUv/S1hYOD/++GO92SoQCBoGwhkKHjt3f3T/008/VfnRfUZGhphDFAgEjwXhDAX1gmY7Nl969vSqYju2YLZu3SocoUAgeCwIZyioV5o1a4abm6v0+URiYoL0faFAIBA8LoQzFAgEAkGDR+gZCgQCgaDBI5yhQCAQCBo8whkKBAKBoMEjnKFAIBAIGjzCGQoEAoGgwSOcoUAgEAgaPMIZCgQCgaDBI5yhQCAQCBo8whkK7psDB/YL9XmBQPCvQjhDwX1haGhIy5YtiIw8V3NggUAgeEqoU2fYt29fLZFeAD09PV577TV0dXUfOn4rKyumTJn80PH8m2jVqhUnTgRqnfPy6sHOnb9iY2PNwYO/c+jQH1y/fo2DB3/n4MHfadHCsdLzhoaGrF69itOnQzhy5BABAUeZOfMtrbi7devG2bNnKSsrA+D558fz119/cuJEIF9//ZUk4CwQCARPEzp1GdmlS5cYMKA/p0+fks45O7tw5coVSktLHzr+zMxMDh068tDxNBRSU9MYPHgoenp6XL58icGDh0q/VXUeYNGixezevQc9PT1++20Pp0+fJjj4JAA9e3pJ/7ds2ZK3336bYcOGk5WVxTfffMXUqVP5/vvvH18mBQKBoA6oU2eYnJyMXK7A0tKKjIx0ANzcXDh9+gygkefp06cPBgb6yGQKLl26yKlTGsfp7+9PaGgonTp1Yu3atbi7t8XDwwOZTEZCQiLHjx/HxKQxgwYNZMOGDQB07twZd3cP5HIZOTk5BAQcJzPzBh4eHjg5OVFaWoqBgT5yuYKjR49y48aNuszuv57i4mLOng3Fzc1NcoBeXj2YO/dDAIyNjVm2bBlZWRpF+9DQMFxcXOrNXoFAIHhQ6tQZgqZ36OrqQkZGOkZGRpiZmZGYmIhCoWDIkKEcOLCPzMwsdHR0ePbZZ2nd2o2LFy8BmsZ1/fr1yOVyevTw4rvvvqO8vJzBg4dga2tLcXGRlE7btm1xdGzOli2bKSkpoWXLlowePYr169cBYG5uzubNmykuLsbJyYkBAwbwyy+/1HV2/9U0btwYL68ebN++HdDcnxYt7swXRkREEBERIYXv3bs3+/fvrxdbBQKB4GF4JM5wzJgxBAUF4ezsTHT0ZcrLy2nSpAnGxkYMHDhICqur2whTU1PpOCwsjOLiYgCuX7/OoEGDuHTpEocOHUSlUmFubiaFdXZ2JiwsgpKSEgDi4uLo3LkLTZrYAZCYmCjFdeXKFYYO1R4K/Dfh4ODAkSOHpWNDQ0OSk68/cHzvvfce/v7+qFRlrF69RlKi79atK2fOnEWlUlW4ZsyYMZibm7F79+4HTlcgEAjqizp3hjk5OeTl5WNnZ4ebmytHjx4FQK2GgoJCrd6ZsbERpaVl0vHd/+/evRs7OztatGiBl5cX+/btqzFtmQzUao08490Ndnl5OXL5v3fhbGJiIgMGDJSOvbx68O67sx44vqVLl7J7954K5728vAgODq5wftSokbzzztuMHj1G6x4KBALB08Ij8RCXLl2ka9eu6OjokpammTtMS0tFLpfRurUboOm9jBs3HiMj4wrXGxkZ4eMzloyMDIKCgrhxIxM7OzutMDExMXTu3Al9fT0A3Nzc0Nc3ICUl5VFkSYDGyQYFaTvD6dPf5NVXX2XMGB+hTi8QCJ5a6rxnCBATc5nevXsTEhIinSsvL2fPnj3069ePrl27olKVExR0Qlpoczd5eXnExMQwbtw4dHQUpKamERMTg7GxkRTmwoULGBoaMnGiH3K5nBs3Mtm7d0+lQ3iCh8fY2JjmzZtz/vx56dyECc/z4YdziY2NZcuWzQAkJSUxdeoL9WSlQCAQPBgyW1s7dX0bIXjyGThwAFOmTGHy5Cn1bYpAIBDUOf/eiTRBnVLVfKFAIBD8GxA9Q4FAIBA0eETPUCAQCAQNHuEMBQKBQNDgEc5QIBAIBA0e4QwFAoFA0OARzlAgEAgEDR7hDAUCgUDQ4BHOUCAQCAQNHuEMBQKBQNDgEc5QUG8YGBiwf/8++vXrV9+m1Du6urrs2rWDUaNG1rcpAkGDROxAI6g3Pv98CampqaxY8b/6NuWJwMzMjKNHD/Pss6NISkqqb3MEggZFnfYMu3Xrhq/vBKZN82fatJfx9Z1Ahw4d6jKJKnFwcGDSpMm4u3s8lvRu8+qrr6BUGj7WNO/mgw/mEBsbw9tvzwTA2tqatWt/4o8/DvDHHwdYs2Y1JiYmFa6bPv1N/vwzgEOH/mD16lUYGWkUQSwtLdmwYT0nTgRy5MhhvL2fqXDtlCmTWbr0vwDIZDJWr14lHa9evYrTp0M4cuQwwcFBLF68qFItSTs7OwYNGsjq1Wsq5KNp06acOBGo9XftWgKNGzeWrtfT0+PatQROngyW/r79diUAcrmcTz/9hKCgE5w4Ecirr75SIf1WrVpx4kSgdDx16hQOHfoDpVLJlCmTiYo6z5EjhwkMPM7WrZuxsrKq1f1o27Ytf/31Z63C3ktWVhbfffc9b70144GuFwgED06dSjiFhIQQEhJCz549KS4u5syZM3UZfbW0b9+e06dDiI6+/NjSfBJYsuRzLWczffqbxMTE8OKLLwGa3pe//zS++GK5FKZbt26MHj2KYcNGkJ+fz8svv8SMGdNZsuRzPv54AUFBQUyZMhUnJyd2795J+/YdKC8vrzT9999/D2NjI958c7p0btGixezevQddXR1+/XU7o0ePZufOnVrXDR06hD/+OEhhYWGFfCQlJdGrl7cUtnVrNxYvXsTNmze14khPT6dHD68KNk2Y8DwODvZ4e/emUaNGHD58kKCgYC35qbvp27cvr7/+GqNGjaagoACAffv289577wMwb96HvP/+e7z77uxKr7+bmJgY3n77PzWGq4odO3Zy9OhhPvhgbpVlLhAI6p5Homd4Lx4eHtjb22NgYEBqaipBQUE4O7eiR48eAOTk5JCRcQM9PT2OHTuGv78/Fy9exMLCHCMjY65evUpQUBAA9vaaRk6hkJOfn8/vv/9Bq1ZOODg4YGlpiVJpRFhYKD16dMfJyRm5XE5+fh4BAQFkZmYydOgwbt7MwcmpFYGBf2JsbFzBtqqu1dfXo0+fvtjZ2VFUVExUVOWNa32SmpqKra0tcrkcmUyGUqmsMOTWpk1rgoKCyc/PB2Dv3t/YunULS5Z8TlzcFbZu/RmA2NhY5HI5ZmZm3Lhxo0Jazz8/ngED+jNq1HOV6kiWlpZx+vQZWrRwrPBbt27d2L17T63yNG3aNNauXVersACFhYV89dU3qFQqCgsLuXjxEi1aOFbqDFu3dmP58mX4+vqRmppWaXzBwSd58803Kpz395/GlCmTkcvl/PXmBPSPAAAWAklEQVTXCebO/ZBmzZrx1Vf/o1cvb/73vxWSmHXbtm2ZONGPv/46wezZ7zJs2FB0dRuRnJzM3Lkfcvmy5iUuPT2djIwbODk5ERMTU+s8CwSCh+OxLaBp1syBoKATnDx5EgsLC/r27ccff/zBhg0b+euvE7Ru3UYrfH5+Pnv27OXnn3/G3t6B5s2bA+Dt3ZvAwONs3LiR+Ph4XF1dOHfuHMnJyQQEBBAWFkq7dh7o6xuwZctmNmxYz6lTpxk58s7CBDu7puzatZOrV69WsK26a/v27Y9KVca6devYunULJiam6OkZPJ4CrCU//vgT3bt3IyTkJGfOnKJZMwe2bduuFeb8+Qv069cXS0tLQOPUbGysAfjyyxVSD8zd3Z3c3NxKHWHHjh14553/MGnSFMmp3otSqaRXr54EB5+s8JuNjTXJyddrzI+5uTleXl4cOPB7hd8UCgULFszn+PFjHD58kCFDhgCwa9duwsPDAdDX16dz505ERERWuN7Y2Ji1a39i5sy3iY6OrjR9mUzG4MGDpJex2zRu3JgPPpjDwIGD8fbug6mpKR07ak8JvP32fxg8eCirVq3m/PnzBAefZMqUyZibm9O//0B69uzF119/zYYN65DJZNJ1KSnJ0v0QCASPh8fSMwS4ejVeevNu2bIl0dHRpKVpVO4zMzM5f/4cSqVSCh8bGwuASqUiIeEq1tbWxMfHExMTQ8+ez3DuXCQXLkRRVFRYIa2WLZ0wNjZm3Lhx0jm5XI6enh4AUVEXyM3NrcK2qq5thJNTS3744Qdp+OrEiRN4eDzeOcqaWLBgPocPH+GLL5Yjl8tZvHgRs2e/y+ef/1cKc/r0adas+Z6ff96KWl3O3r2/VXBoSqWSL7/8gvnzF1Sajo6OjlYDfjcffjiX6dOn07SpHX/9dYKQkJAKYRQKHUpLy2rMz+TJk9i+fTtlZdphy8vLyci4wd9//81nny3EycmJnTt/JTg4iJs379zbhQs/Y8eOnSQkJFSIWy6XV5mPESOG07FjR0xNTSgqKuLZZ0dp/Z6bm8upU6f4+uuv+PXXX5k5822Ki4tp1aqVVjhLS0s++mgBEyZMpKysjKFDh2BnZ8fevXd6xbq6uhgbG0svIaWlZSgUj+3RFAgEPEZnWFpaKv2vVldcwHrv/EhZmequ/8tRKDSd2NOnT/HPPzG0aNGCsWPH8PffIcTG/n97dx4XZbU/cPwzMAOo7KCAqCkCLolpguLtRSwi4oJoeiXF8JoL5VbeexGxW+LCprc0Ndc0AcH8iaIJBAgo3TQNSxZRFMHdwJQUXFhnfn9MjSLDklnUi/P+b5453+d853ke5jznnGc4FxvsLysri4KCAgA0NTUwMDCkqqrq5/3V1Cv7ZG6Nx1ajUCjU5v5nMniwA/7+byOXy5HL5Rw4cIBFi+rPdbVv357c3Fzc3YcDoKury/jx41Xv6+vrERm5k/j4Axw+nKa2nm+/zeLMmTPExOxi3Ljx9W4ufpkz1NDQIDj4A+bOncP69Rvqxd++fRszs040Mo0HgEwmxdd3CmPGNPy5QU1NDW5uw1SvL168yIULhdja2nLq1HdIJBKWLVuKqampau7vaffu3WPOnHlERUUyefJkzp0rUL335JzhqFGj2LhxA5Mn+6reVygUTJ7si729PR4ewwkKWsyMGTMb1BEeHsqOHZ+pep4KhYJ16zYQFxf382eU0b1793rzoWZmnbh9+3bjB0YQhOeuVX5nWFxcjI2NDYaGhgDo6enSr1+/FsV6e3sjk8n4/vvvycvLpWdPqwZlCgsLefnlgaqeoL29A46OQ1u0/6Zii4qKGDJkiKqsg4M9GhqaLdrvHyU//yzjx48DlD2fsWPHkpd3BqlUqhrGk8vl7NjxKebm5oDy6dCvv/4fAN26dWP//v3Exx9g06bNTdYVFRVNZmYm27ZtRSpteF/1S+/t6d4SQE5ODoMHD25y/2PGjOHUqe+4devxXN5LL72k6kllZ59WzUdaWlpiY2NNcfEl2rVrx7ZtW9DT02fWrFlNPoiSm5tLYGAgUVGRquPxtFu3Sht8BnNzc/bt20tBQQEhIaGcP3+hwefx9h6LpaUlGzduUm07dCiB2bNnqp6MXbBgPoGBj29W9PT06N69u2oOURCEP0arjMWUlZWRmXmU0aNHU1VVTVVVJYWFhchksmZjv/vuFG5urshkMh49qiI9vWHPJT8/nw4dOvD665ORy+soKysjLU19D+fXxB45cgRXV1d8fX2pqqqkqKiYqqqGw7StaenSYFatiuD4ceUc16lTpwgKWkK3bt3YsmUzjo5/o7KyksWLg4iNjUFbW4vi4kvMnTsXgP3749DT08fPzw8/Pz8AwsLCSE/PUFvfihUr2bZtC6tXr2Lhwn8Cj4dJQcGdO2UEBCxqEJeamsrWrVtZtWq12odvQPngTHBwcL1tn3yynrffnkteXh4LFixg8+ZNaGtro1AoWLx4CWVlZaxb9zGenp4UFJznyy+Vc41JSUl89NEatfWkpKTStWtXVS8XHg+TgoKamhr+/e/6n6GkpIRDhxI4cCAeHR1tsrNzOHQoAQsLC1UZf39/zMzMSElJ/vm4/IfY2N2qbTU11RQWFvKvfz1uDMeMGc1XX/2vwWiFIAi/L/Gje6HVREbuJDU1lZiY2NZO5U9BR0eHI0cymDlzFvn5+a2djiC0KeLfsQmtZtGiRbz99luqnx+0df/97yr27NkjGkJBaAWiZygIgiC0eaJnKAiCILR5ojEUBEEQ2jzRGAqCIAhtnmgMBUEQhDZPNIaCIAhCmycaQ0EQBKHNE42hIAiC0OaJxlAQBEFo80RjKAiCILR5ojEUBEEQ2rzn2hgaGxsxb948pkzxxdd3KhMnTsTY2KjZOF1dXSZN8sHd3f15ptNidnZ2+PvP/jlvX0aMGNGiFTRmzZpF+/Yd6NixI35+b/wBmbbciy++SFra4UbfnzbNjzVrPmp2P+fPF6iWG3oeNDQ0OHHiOD179my27ObNm/DxmfTc6lYnNzebTp3EqvJNaem10tJygvBn9NyXcCovLyc2NgYAW1sbhg8fwZ49nzcZY2Njze3bP5KRoX6ZoD9CYeFFVf0uLq4MGvQyJ040XKFdnbKyMlJTW7ZE1J9FUtKXHDt2/A+vVy6XM3/+O1y5cqXZsmvWrK23lqHQOlp6rbTWNSUIz8Pvup7htWvXGTZMuZq6trY2rq6udOxoiqamlJs3b5KZmYmhoQH29vaABlpaWiQnJ2Nra8OgQQ7IZJrU1ck5ceIERUVF2NnZ0aVLF9q1a0dpaSnnzp3Fy8uLy5ev0KlTR/bujWtx7LFjxxrN+8aN69jY2AJgZGSEq6srhoaGKBQK8vPz+fbbb+uVNzDQx8NjOFFRUQA4Ojpia9sLhUJOefk90tMzsLbuSZcu3UhIOASApqYmb745nZiY3Tx8+OCZj7GWlhZhYaEMHuyARCJh06YtxMTEsH79OqysepCWdpgPP/yIjh1NGTp0KCYmJmRnZ3P9+nX69evHokWBGBgYEBoawsCBA1Eo5Bw9mklwcDDLly9HV7cDBw/Gk5KSSnh4RKN5WFlZER4ehpVVDxQKBbGxu1m79mMUCgW5udls3ryFuXPn4OAwhO3bt+Hu7sGtW7cYM2Y07777DvfulVNRUcHVq1fQ0WnHokWBLFz4LsnJyRw4cJDc3Gzi4vZha2uLhYUFaWlphIWFN5rP/PnzMDQ0ZMWKlQCcPPkNO3dGsmnTZrS1tcnKOsmgQQ4A+PpOYcQIDywsLIiL26eK6du3DyEhKzE2NkYqlREXF8eaNWuxtrZm9+4Yjhw5ygsvvICJiQlr164lISGxyXPVp09vwsJCMTExQS6X8+mn24mO3oW1tTWRkZ+Rnp5B//52jBv3Gu7uw1iyZAl6ero8ePCAiIjVfPnll42eb0tLS9as+QhzczOqq6tZvDiIU6e+azQXXV1dli9fhrPzq0gkEr7++hj/+c/7lJeX4+f3RpPXSlhYKNbWPbl79x6ZmZnMnTsHFxc3PD1HqMpt3ryJBw8eYG5uhqGhESUlP7Bw4T8pL69o8hgJQmv5XecMbW1tKCkpAWDYsGEUF18iOnoXO3fupKKigldfdaK09BanT2dz9mw+ycnJmJiYMmDAy+zfv4+oqGi++OIgzs7OGBgYANCtW1eOHfuab775BgBDQyNKS0vZvz/+V8eqPSAaGvTo0YPS0pKfV4r3Jicnhx07dhATE0PXrl3p39+u0Xg7OzssLDoTGxtDdHQ0V69eZdgwN86dK6BrV0vat28PQPfuPbhx44ff1BACuLm50b17d5ycnPHy8mbKlMloaWkxf/4CLl4swt19uGqBW2fnVwkJCSUiYlW9fUREhHPt2jX+9rdXcHFxxdTUlNmzZxMUtIT79x/g7T2+yYZQKpUSE7OLHTs+w95+MG5u7rzyyiv1ho67dOnC0KGv8PDhQ9W23r17s3z5MmbMmMWECRNZvDiIkSNHNlpPaWkpU6e+wciRo3BycsLV1bXRsomJSbi4uABga2vLgwcPGTZsGACOjkM4duy4agFdHR0dPD1H4eTkjJubKyNGeCCTSdm48RMCAgJxdnbF3X04Q4YM4e9/nwhA586diY3djY/P6/j5TSMsLBRDQ8NG85HJpERFRbJmzcc4OTkzfvwEZs+ehb39IEB5M5Gbm4ePz2Ssra1ZtSqCmTNn4uAwhOnT3yQkZAV9+/Zp9Hz7+8/m5MmTvPqqC0uXBvOPf0xrNBeAsLAQ7t69y+DBjjg4DKG0tJTVqx9fF01dKyUlJXh4eDJpkg8ymQwjI/VTIcbGRrzxxjRGjx7DjRs3mT9/fpM5CUJreu49Qz09PXx8fDAw0Ke0tJTDh1MB5R+7np4eAwcOAEBTU4NHj6oaxFtZ9UBfX5dx48apttXV1WFkpPyiuXz5CqWlj4fO7t+/T0FBwTPFPqlnT2s6duyIQgE3b94gO/s0nTqZUVtbQ1FREQDV1dWcOpWFg4MDubl5jeynJ7m5udTW1gJw+nQ2p09nA3Dx4kV69+7N999/T9++fcjJyWnucDYrOzubTp06snTpByQmJjJmjBcKhfpVuTIyMhrUKZFIGDnSk/79leelpqYWf/+31MYPH+7Oe+8teWrbCPr3t+Phw4ckJytXdK+oqGDDhk9YsGAekZHK3vLWrVspLy+vF+vhMZxDhxJUQ6YlJSXExMTSuXNntfUnJSkb9erqao4ePUr//nacOXOGvXv31CsXEBBIVlYWmpoamJl1wt19GFu3bsXffza6uro4OzurcgWIjd0NKIf4U1JS6dOnD3fu3MHS0pKPP16rKtehQ3t69OjB6dPZ3Lx5k+xs5Xm9efMmRUVF2NhYc/nyFbX5KEcJKsjMzASUQ+tOTs4AWFtb88MPPxAXFwfAyJGeJCYmUVx8CYBLly4TF7ePUaNGsWtXjNrznZ6eQWhoCI8ePSI5OZl58xYAEBMTjaWlpSqXmJjdfPrpp3h5efHSSwOpq6sD4MMPP+LChQKkUuVXQlPXSr9+/VXbNmz4hIUL31V7vpKTU5DL5QCkpqYyb948teUE4c/guTeGFRUV7NmzBxcXVxQKOffv3wdAoVCQlJRIRYXytY6ONjKZVoN4hULBlStXOXz48cMfRkZGlJeX07dvX9Xd/C+efP1rY59UVHSxhXOWEhppax6XkKgvkJd3huHD3Tl37hxGRkZcvXq1BfU1raSkBHd3D1xcnJk6dSpLlgTh4zNZbdmHDx+p3a5QKJBIJM3WdfhwGocPt2xuVCKRIJc/Pg7q6lYoFGhp1b8GtLW1G91nVdXjm6fq6mpkMhk//vgjLi5uassnJ6fg7OyMm5sb/v5v0atXL5ycnHB0dGTNmseN3KNHj3OrrKxEKpWiUCi4ffsOo0ePUb1nYWFBZWUlJiYm9XJR5lPTZD729oOaPMZP9pjVUR5PeaPnOzMzEy+vsXh4DCciIoKcnBxWrgzB17fhg10SiaTBDdMv237Z3tS18uQ509TURCJRP8BU/3zVoKXV/ENpgtBafrdh0m++OY6trS2mph0BZa9oyBBHJBIJmpoaeHqOxMrKqkFccXExVlZWGBubAMrhtQkTXgOaX4P4t8Sqc+tWKTKZFr169QKUw2mOjkM5f/58EzkUYWf3kuoOe8CAAaov1JKSEurqFLi4uHD27Nlnyulpnp4jWLlyOamphwkIWMQLL7yAhYUFVVVV6OvrNRuvUChISUnlrbf8AeWQ58aNnzB79iwAqqoqm32aNCcnF13dDrz22nhAeQMSEPBv4uPjm4xLSUnF23usarSgd+/eTJmiviF/FomJSXh7j0VDQ8KdO3dISUnl9dd9KCsro6Ki6bmrnJxcNDU1VMOiZmadSEj4gs6dLZ4pl5ycHAwM9HF2VvYGjYyMOHIknQEDBjQom5ycgpeXF3379gGgX79+TJw4kYSExEbPd2DgIkaPHsXnn+9hyZL3GDfOu9FcFAoFiYmJBAUtRiqVIpNJWbYsmISEBFVPsfG4JIKDP0AqlaKpqckHH7yPhkbzN1KC8Gf3uz1AU1VVxYkTJ3B1dWXv3v/j6NGjuLi4MG3aNORyOUVFRWqHCcvKykhLS2PUqJFIJBIqK6s4ePAL6urkzdb5W2LVkcvlfPHFQVxdXXFycqKuro68vDzOnDnTaExubh66unr4+voil8u5e/cu6enpqvfPnMnF2dmFo0cznymnpx05chRXV1fS09PQ1tYmOnoXV69eRSqVUlx8iWPHviYkJLTJfQQGLiYiIpzjx49RV1dLRsYRduz4DIBdu2KIj99HfPwBQkPD1MbX1tYydaof4eFhvP/++9TW1hAZGUVMTGyT9V64cIGAgEDWr1+HhoYmRUVF7N79OcbGxs92MJ6Sl5eHra2taqg2KyuL7du3NTn/+eRn8vV9g1Wrwnn33Xeorq5mxYqV5Oefxdra+lfnUlNTq5pbXLlyObW1tWzZspXs7OwG+yssLCQwMJBNmzair6/PTz/dJSAggAsXLnDlyhW15zs6ehcffria6dOno6EhYfHioCbzCQp6j5CQlWRlfYtEIiEjI4PAwKZjlHFLCA8PIyvrJD/9dJcdOz5rMPwtCH9FEnPzzs/WbRKeSZ8+fejRowdJSUmtnUqr09LSwszMjGvXrqm2vfPOAoyMjAgOXtaKmQmNMTc3p6KiggcPlA9+aWhocOlSES++aKeaEhGEvyLxH2j+YHZ2do0+fNPWSCQSEhMPMXToUABMTU2ZNOnvrfp7U6FpEya8xoYN69DR0QFgxowZZGdni4ZQ+Mv7XX9nKNRnYmKCjk47rl+/1nzhNqCqqorp099k6dKlmJgYAxK2b9/OV1/9r7VTExqxefMW3ntvCenpaWhqalBcXMycOeIpUeGvTwyTCoIgCG2eGCYVBEEQ2jzRGAqCIAhtnmgMBUEQhDZPNIaCIAhCmycaQ0EQBKHNE42hIAiC0OaJxlAQBEFo86Tdu/ds7RwEQRAEoVVJf/xR/fp+giAIgtBWiGFSQRAEoc37f382XOAtqN69AAAAAElFTkSuQmCC;" parent="1" vertex="1">
          <mxGeometry x="195" y="425" width="451" height="167" as="geometry" />
        </mxCell>
        <mxCell id="HnH3_tPAt6VMXRVvWohe-3" value="The image from wiki is free to use, so it use &#39;strict-origin-when-cross-origin&#39; mean it use CORS, so different domain can make request to this" style="text;html=1;strokeColor=none;fillColor=none;align=center;verticalAlign=middle;whiteSpace=wrap;rounded=0;labelBackgroundColor=none;fontFamily=Comfortaa;fontSource=https%3A%2F%2Ffonts.googleapis.com%2Fcss%3Ffamily%3DComfortaa;fontSize=25;fontColor=#000000;fontStyle=2" parent="1" vertex="1">
          <mxGeometry x="125" y="645" width="620" height="30" as="geometry" />
        </mxCell>
        <mxCell id="u9ssdyGObwGIZlNKVtnJ-1" value="Access-Control-Allow-Origin: https://www.google.com" style="rounded=0;whiteSpace=wrap;html=1;labelBackgroundColor=none;fontFamily=Comfortaa;fontSource=https%3A%2F%2Ffonts.googleapis.com%2Fcss%3Ffamily%3DComfortaa;fontSize=25;fontColor=#000000;" parent="1" vertex="1">
          <mxGeometry x="50" y="910" width="500" height="60" as="geometry" />
        </mxCell>
        <mxCell id="u9ssdyGObwGIZlNKVtnJ-2" value="Control which site you allow to access this data" style="text;html=1;strokeColor=none;fillColor=none;align=center;verticalAlign=middle;whiteSpace=wrap;rounded=0;labelBackgroundColor=none;fontFamily=Comfortaa;fontSource=https%3A%2F%2Ffonts.googleapis.com%2Fcss%3Ffamily%3DComfortaa;fontSize=25;fontColor=#000000;fontStyle=2" parent="1" vertex="1">
          <mxGeometry x="75" y="990" width="450" height="30" as="geometry" />
        </mxCell>
        <mxCell id="u9ssdyGObwGIZlNKVtnJ-3" value="" style="shape=image;verticalLabelPosition=bottom;labelBackgroundColor=default;verticalAlign=top;aspect=fixed;imageAspect=0;image=data:image/png,iVBORw0KGgoAAAANSUhEUgAAAdEAAABqCAYAAADjuWuZAAAABHNCSVQICAgIfAhkiAAAABl0RVh0U29mdHdhcmUAZ25vbWUtc2NyZWVuc2hvdO8Dvz4AAAAtdEVYdENyZWF0aW9uIFRpbWUARnJpIDAxIEFwciAyMDIyIDEyOjA0OjE3IFBNICswNymrRaAAACAASURBVHic7N15fExX/8DxzyyZTPZ9IYJGiDULEmJJScRSu9qXlqLPT4u2VLUItVS1+vTpoou2dKOUWosqpXZJKiQhEpEQZCWRRJZJMtvvj5GpVCYRoup5zvv18nqZu51zz5nMuefce89X0qyZj55quLi4kpaWWt0qQRAEQfif9tRTvTEzM0P6qDMiCIIgCI8bmUyOTq9H/qgzIgiCIAiPG51Oh06nrbkRbdq02d+VH0EQBEF4bGi1mtp7ojduXP+78iMIgiAIj43WrZuhVCjEPVFBEARBqCuZTEZZebloRAVBEAShrnQ6PRIQjaggCIIg1JVEAlKpVDSiwoOxtbUhImIBXl6P70NoDg72LFoUQePGjR91VgRBeFzcbkTFKy7CAxk7dixHjx7l0qXHd2KO/PwCNmz4kUmTnmH58ndQq9WPOkuCINwjMzM59vYOWFlZY26uACR1PIKe8vIKSkqKKSjIR63W3ONeoNNqRU9UuH/Nmnnh5ubC0aPHHnVWHlhycjLZ2Tfo3LnTo86KIAj3yM7OHi+vZjg6OmFubk7dG1AACebm5jg6OuHl1Qw7O/t72kur1YJEgszR0fnN6jawsrKitLTkPjJkmpWVFe+88zZPPtmdsLBQunbtilwu4/LltHpN55/mtdfmcONGLnl5ecZlYWGhdO7ciXPnzj2UNJctW0JSUjJFRUUP5fgATz3Vl8TEC6SmGnqhgwYN5F//ep6mTZsQE3O6yrYymYxhw4YyZswoevcOx83NlQsXLqDV6qps17BhAxYujEAqlRqPa29vz8SJzzJy5Ai6du0KQFralbvy4+vry8iRI4iOjgagadMmvPbaq6SkpKLRaKp893r06Im9vR3Jycno9YaZL1UqFaGhPTlx4kT9FpQgCPXOzs4ed3d37q/hNEWCtbU1Go2G8vKyGrf08moC8GiGcxcsWIROp8PBwYHp018kJ+fGQ2tMhIenefPmHD581Ph59+495OXdpG3b1ndt26tXGO7ubrz77nvodFomTnyW0NBQ9u791biNTCZjzJgxZGRkVtl36NAh5Obm8cMPP+Dk5MSkSRO5dOkyV69eNZk3Q8M7kc2bt3LlylWsrKyAP797NjbWvPjiiwQGBhIVFQVASspFnJ2dsLW14dath3fxIQj/jbp0Ceapp/qRn1+AXC4jPT2Dn37aQnl5eb2nZWYmx93dzfjZ2dmZDh0C8PRsBMC1a+nExJwhNzf3vo7v7u5GaWlxjUO7er0enU73aO+J5ufnc+lSKg0bNuDcuXMolRYMGTKItm3bIpFAfPxZduzYSVlZGU5OTowaNYJGjRpRWFjAtm07SE6+iJWVFUuXLubTTz9nyJCBuLi4kpWVzfbtO0hLSwPAycmJoUMH4+3tTXl5BdHR0ezd+ytarRZfX19CQ3ty7do1Wrc2/PgfOnTIOETp49OCQYMG4eTkyNWrV9mw4Ufy8/MBaNu2Df369cXZ2Znc3Fx27/6F8+fP17kcJBIJoaE96dq1C5aWlqSlXWHbtm3k5Bgmu3Bzc2P48Kdp3NiT/PwCfv55F2PGjOLTT1eTmZlRZf3Nmzf5+efdVY5fU7n6+vrSo0cIV69ew8fHh3feebfGc65kaWmJtbU1mZl/NnharRaNpvov3Y0b14mLi6O4uBgw5KFJk6ZVtunbtw9XrlxBpVIZlykUCnx8WrBw4ZtUVFRw61YRx4+foH17f5ONqEJhxuTJkzh58iRnzpypdpuiomIuXryIq6uLcVlFhZqcnOs0aOAuGlFBuA+xsfH89NNPADz99DDCw3uxa9fuWvaqO3t7Byp7oM7OzgwZMhCZTGZc37RpEzw9G7F9+8/32ZBKsLd34MaNG6a3kEgebAL6Z5+dwNSpk6v998wz4+/pGC4uLjRv3pwrV9IAGDduLDKZnLfeWs4777yLUmnO6NGjABg2bCipqZeYPz+CvXv3M2HCeCSSP7vxffuG8913PxARsYgzZ87w/PNTsLOzQ6EwY9q0/+Pq1WssWrSYjz76mCeeaMKQIYOM+zZu7MnFiyksXbqMTz/9nN69w/HyegKpVMqkSRPZunUb8+YtICsrm8GDB93epzGjR49m27YdzJ8fwZ49exgzZjQeHh51LssnnwzB39+fzz77nEWLFpOcnMy//vU8CoUZCoWC//u/57l8+TKLFi3myy+/olu3brfH/7lr/VdfrSUkpBtKpbnx+DWVa+X56/V61q9fX+M538nGxprS0lJ0Ot1d66pz+nQs2dk5SCQSnJyc6dixPQkJCcb1TZs2wc/Pj507f66yn4ODA8XFxVRUVBiXXb9+Aycnp2rTkUhgzJix5ORc59df95nMj729PS1atCA5+UKV5UVFRVhb29zTOQmCYFpKSipubu4AWFpaMH78OBYuXMDs2bPo2rULy5YtwcHBnmXLlqBUWgDQsWNHli9filRqaJr69OlNWFjPu45tZWVt/H+HDgFVGtBKMpmMDh0C7jv/d6ZRHa1Wi6pUdf890eTkZNq2bVvtuosXL9a476JFC1EozCgvL2f//t+4cOEitrY2tGzZggULFlJeXo5KBRs3buKtt5ZiaWlJeXk5Tk6OmJubExcXR3Z2VpVj7tjxM9ev5wBw+PARWrRoTkCAPwUFBZSWlrBv334AysvL2bBhM3PnvsrOnbsAuHHjBvHx8QDk5eUSFxePt7c3ly+nUV5egbu7O5cvX2b37t1YWxsKtlOnIE6ePElKSgoACQmJREf/QWBgRzIyMu465+eem4hOpzV+lsnkxMbGARAc3JmtW7dz44bhiungwd/x8/OlRQsfFAo5xcUl7NnzCwBlZWVs2rSJiIj5ALRt2/qu9T/+uNm4vrZyBSgsLGLnzp/R6/VIJBKT53wniURiuLFeR/PmzcXJyZno6D+IjY0FDBcCY8aM5scfN1VpLAEsLCxQq6suq6iowMLCotrjN27cGI1Gy+LFS6pdv2zZYsDQOz9x4iQXLlT9rup0WuMfsCAI90cqleLr29bYQRo+/GkqKtQsW7YcvV7P4MGDsLCwQKvVkpR0gebNvTl79ixt2rQiP7+Apk2f4NKlVHx8WrBx4493Hd/wFK5B5RBudWpaV5s706iWBBTmivtvRE+ejEKhMKdFi+ZVlicnX+Tkyaga9128eAmBgYH07NmDkycjAUPPQCqVMm/eG1W21Wg0WFlZsXnzTwwaNIDXX3+NzMxM9uzZa3wgBCAnJ6fKftnZ13FwcEAikXD9etUueV5eLlKpBBsbQ+NQXFz1AarS0lIsLS3R6/V89tlnDBw4kPDwXiQlJRmHJuzt7QgI8CcoKMi4n1QqNTmcu3btNyQnJxs/h4WF4urqChhukI8fPxad7s/zMTOTYWVliaWl5V3nlp+fb7zPYGdnX+P62soVoLCwwFiWNZ3zX8uousa1Nm+9tQJ7e3uGDh1M797h7Nu3n0GDBpKU9OcDSlXTUWFmVvXLrFAoKC1V3bUtGO6FlJaWMnz4MNat+6HKdwT+vCdqbW3NM8+MJygokOjoP4zrraysKSkprfN5CYIAvr5tady4Ec7OzkRGRnHw4O9IJBLatm3Lm28uMY5c7dq1m65duwBw9uw5fHx8SEhIwMXFlQMHDtKqlQ+ZmRmYm5vf9fv9TyGRSJBIHvDBosOHjwAYG9Lk5IvGZbX5448/CA/vRUBAADExMRQUFKDRaFi27C3je3pmZma4urpw48YNrK2t2bx5CwBt2rThxRensXjxUuPx3NzcuHYt3fi5QQM3Lly4SGFhIf7+flXSdnFxRqvVUVRUXGMepVIpxcUlfPnlVygUCsLDezFx4jOsWvUp+fkFXLt2tMqDMY6Ojmg0dX/HMD8/ny1bthp7tYb8NyAvL4/WrVvj5+dbZXtra2sUCsXtfQtqXF9buTZo0IA725mazvlORUXFqNUVuLq63NOXvFu3rpw9m0BhYQEFBQUcPXqcQYMG8ttvB+jSJRiA7t27VdnH07MR3323zng+lb1UV1cX8vKqv8+h0+n4/vt1vPTSdPr27cMvv+ytdrvi4mJOnTqFn5+fsRGVSqW4u7vWeB9EEATT4uPPsXXrVmbNeoXLl9PQ6XRIJBL0en2VC1qdTmf8nJiYSN++vfHy8uLSpUskJibRo8eTXLlylfPnE6tNp7y8wnhL69q1dJo2bVLtdne2CXVVXl5R6zYVFeoHf0/08OEjJCdfrFMDCoZC/P333+nTpzdSqZRbt4pISkpixIinsbS0wNzcnKeffpr+/Z8CYMqUSfTt2weAmzfzDNMt3THsNmjQIFxd3VAoFISEhNC0aRPOnDnD+fPnsba2ISwsFIVCgYuLM2PGjCYyMqrWl+qVSnMiIubTqlVL1Go1BQUFxnuNkZGRdO3aBW9vb6RSKV5eT/DKKy/j6OhY1yLkxIkTDBo0EBcXZ6RSKV27dmHatH8BcP78eezsbOnatSsSiQSFQsGwYUOMX8Da1tdWrnU55zvp9XouXbpMixYtTJ6Xg4MDnToZeuoNGjRgyJDBWFpaolCY0aFDALm5ueh0OmbNerXKv+PHj/Prr/v46qu1VFRUcOHCBQYOHICtrQ1NmjSma9cunDkTZzLdsrIyvvrqa7p0CaZDhw7VbqNQKGjXzo+8vJvGZY0be1JRoRaNqCA8AJ1Ox7Zt2xg8eBAKhRl6vZ74+HP07h1u3CY8vBdyuaEPV1FRQV5eHj16hJCQcA6VSoVKVUbnzkGcPZtQbRolJX92gGJizlR7a0mr1RITU/2DhffizjSqo9Vqkctk9fN0bl0azztFRkbRq1cogYEdiYqKZsOGHxkyZDDz589Dr4fExCTWrfsBgO++W8eIESNYunQxxcUlbNjwI6WlpcYhyb179zJhwljc3NzIysriiy++4tatWwB8/vnnDBs2jPDwcMrKyvjjjz+q9CBNKS1V8dVXaxg8eCDPPDOBnJxsfvhhIwDp6Rls2PAjQ4cOwdnZiZs38/jppy3Vvr9Ym2PHjqNQKHjhhf/DwsKS9PRrrF79hbHntXr1lwwf/jS9e4dTXFzM/v2/GRuviooKPvvsS0aMMKwvKSmpsh6osVzrcs5/depUDOHh4Rw/fuKuYVMADw8PunbtSlRUNDt3/syQIYN54425mJmZkZKSwqZNm++pfLZt28Ho0aNYsGA+paUqDh78vcbXWwDy8vL4+utvmTp1Mvn5+cYh78p7oiAhKelClZ5qly5dOHUq5p7yJAiCaampl7hyJY3w8HB2797D1q1bGTHiaV59dTYqlYqEhARKS/+8bRIff5YhQwazdu03ACQkJNx+a6L6v/OCgvzbHRYJubm5bN/+c72+4gJ6Cgrya9sEnV6HpFkzn7t//QAXF9fHIp5o5Ssur7762j0/KSrUD4lEwmuvzWH//v2cPn3/V3z/BG5ubsycOZ133nlXvN4iCI+BPydbqH/Z2dkUFhbUuE1wcEfMzORi2j/h/un1etatW3f7ndLqXzl5HJiZmTFx4gS2bNkqGlBBeEwUFhaQnZ2NYRbb+qK/pwYUDE/vyuVyMQG98GAyMjJ5883FtW/4D6ZWq3nnnfcedTYEQaijwsICSkuLH8kE9ADlFeWP/3CuIAiCIPzdevUKQV1RIYZzBUEQBKGuVCoVMplMNKKCIAiCUFcKhYIKdT28JyoIgiAI/2t0Oh0ymXiwSBAEQRDqTCaTg76WUGguLq5/V34EQRAE4bFSoVbX3Iimpd09IbggCIIg/K/z9fVBVl/T/gmCIAjC/5LSMhVSiUQ0ooIgCIJQV1KJ1PDvUWdEEARBEB435ubm8KDxRAVBEAThf5FUJsNCJkfm6Oj8ZnUbWFlZ1R4KRgBg1Jokkn/7Dp26/L72b9FrAs1Dx5F++rf72r9r165MnTqVsLAwWrVqRWJiojGMWn2SyaQMHDiQ8ePHERoaRufOnSguLiI72xBmbOrUqchkMjIzM437zJ49m7y8PPLy8kwe9/333+f48ePGPLu7u/Paa6/x+++/G7dp27YtS5cuJSEhgYKC2ieHrvTGG2/Qvn0AUVHRdT1dAFauXEl0dDTl5abr1sbGhn/9618MGDCQ0NCelJaqyMi4/2DANWnatCkTJ06if/8BhIWF0rBhA1JSLqFWq6sttxYtWjBx4kROnjxp8pg9e/YkODiYc+fOGZdVV5d1KcuQkBBeeuklAgODCA0Nxc/Pl8TERMrLy5k6dSpKpTnXrqUzbdoLqNVqcnKy77NE7p9MJmPkyJGMHj2G8PBeODo6kphYfRDoB2Vra8vYsWMZPnw4PXuG0qZNazIyMigqMgQ8qO57tnr1anbt2mXymA+r3mbMmEFgYEdCQroTFBRU43fnzrw7ODjc9f37qzfffJP09HRu3vwzjq+vry8TJoznxIma07kXjRp5Mnv2bA4dOvTAx6pNixbe6HW1vOIi/PM1auRJv379WLp0KRUVFYwfP54hQwazbt36ek9r6tSp5OcXsHTpMioqKmjYsCEvvPACcrkZp06dqvf07hQYGEhaWhqBgR25fPnyPe3j4uKClZUVTk5OWFtbU1xcc5Dd+zV+/ATi4+M5fPgwrq5uLFgwnwsXLtT7RWjTpk2ZMmUKa9as4fLly8hkMgYMGMCsWbN4++236jWtv7qfsoyJOc369esAGDZsGIMHD+b7779n9+7dFBYWPtT83osePXpiY2PDwoURKBQK5sx5jcDAjkRH/1Gv6VhYWDBnzqvs3r2Hb775Br1ej5+fP6+88gorV75LTs7Dm6P8furtzJlYY73Vt6ioKAIDg0hJSTEuCwwMJDIyql6On52dxbffflMvx6qVBPQ6/ePbiDbp1B//ka8BUHT9KvlXEzG3siPyq7k4NG5J0KTlKG2d0Ot0JO5dw8UD64z7tRs2C6lUiqa8lFPrlnA9KQokEvyHv4pnUD+kMgWlN7OI/no+hRnJdJ/5GYXpybi1DsbaxRNtRRmn1i8lM/YgQc8tx0xpRd83t3EtZh+xP75TY56rTRtQ2jrR49WvsfNogbasmOOfzyL/SgLBz7/HzbRzXNj3TbXHtLOzRa1Wo1ar0ev1fP/998Z1lpZWjBkzGk/PRsjlZqSmprJx40ZUKhUeHh6MHTsGa2sb9HodBw4c5OjRoybz7u3dHBcXN1av/sIYgDszM5NVqz7B0dG+TnVXV2ZmZrRq1Yr33vs3s2a9wubNP1UbBPyvOnbsSFRUFLa2dgQEBBjPb+rUqeTm5hIQ0J5Nm34kISGBgQMH0rFjIDqdlry8PL7//jsKCgw/9N26dcPPzxd7eweioqLYsmVLlXTs7GyNAYavX89h5syZd+ShA3379sPMzAyNRsvOnTuJi4tFIpHUmGZ1hg4dxpYtW40XEVqtlh07dpCRkY6VlXXdCrWOTJXlvUpOTqZPnz4A9O/fn9jYWMzMzPDxaYGnZyN69HiSDz/8kJUrVxIZGUXDhg2wt3fg7Nl4tm/fDkCjRh6MHj0aa2trpFI5UVGR7N69G7lczpgxY/D29kYikbBv336OHTuKo6MjzzzzLPb2dmi1Gn744QdSUy8Z82Rra4NKVYZer6e8vJxly5becb7V1xtA+/btGTBgAFKphPLyCjZv/omUlIsmzz00NJRz5xKIjIw0LouLi0WlKsXMzKxO5VhXD1pvlT766CNmz56NWq0GYOTIkeTl3eTAgbqNnkVGRjJv3jw2bfoRrVaLubk5bdq04YcffgBM17G7uzsvvvgCZ8+eo0mTxqxc+R5hYWGEhIQglUpITExiw4YNODs7M3HiJBYuXHhf51lXksf16Vx7z5Z0mryC35aP5WbaWew8mhO+YBPpMfuQyuX0nPMtJ794jayzhzG3caTvm9souJaIWlVCx2cW88vCQZTmZeLUzJ+es9ew/eVueD05AnMbR3bNDUev09KgXXd6zvmG7a90BcArZAS/vTWK4hvXcG3ZmZ6z17DrjT5Er53HE12HsffNoahLb9WYZ1NpA7j4BLJ7Xj9K8zLx7jmGrv/3Prve6EPCz5/VeNzk5GSKi4uZP38BkZEnOX36tHHodNy4ccTFnWHNmjUADB48mJEjR7Ju3fe8+OKLrFu3jvPnz2Ntbc2cOXPIzMyo8iNzp+bNvUlKSryr8crOziI7O+veK+8+tGvXjqSkC1y/nkN2dg7NmzcnOTm51v0CAwP5/PPV2NraMHjw4Co/IM2bN+eDD/5Dfn4+3bt3x8vLi6VLl6BWqwkLC2P8+AmsWrUKMDTiy5e/fbtHMYeUlBTi4uKMx/rll71MmjSRli1bEhsby/nz59FqtXh4eBAWFs6///1vVCoVDg4OzJ07l8zMDFq1alVjmn8lkUho1syLzz779K51p07FAGBpaVmncq2LmsqyNhKJBD8/P5KSkqosP3HiBH5+/pw4ccLYQIEhvNWWLT8hl8uZM2cOFy9eJCkpkcmTp7B69Wqys7NRKBRMm/YCnTt3RqUqw9XVlUWLFmFlZcWMGTOIjDxJr169SEm5yK5du/Dx8eHJJ5+s8v0+ceI4L7/8CjNmzODUqVPExsYaLzBN1ZtCoWDUqJGsWPEO+fn5NG3alGnTphEREWHyFoq3t3e1Q5z38h1+UA9Sbw9Dfn4+2dnZtGzZkoSEBPz8fLlw4cLtydylJus4LS0NV1c3rlzZw7Zt27CwsGDIkCHMmjULrVbL5MmT8fJ6gpKS0r/tXNQVaswVisezEW3UIZzLJ3ZwM+0sAIUZF7l4cD0Wdi44eflRUVpE1tnDAJQX3WTH7CcBaDtkBlei91CaZ7hfkJcay08vdACgcWBfLB0b0nfxDmM6MrkZZhY2ACTu+YLiG9cAuJ4USUbsATwCQkne/13VvLXvRcCYeVWW7X69D406hJtMGyAz7pBx3aUjP9HpuRUA3MqqecILtVrN+++/T7NmzfD392f+/Pn88MMPxMTE4O/vh5OTI6GhYYbzkckoKSmhadOmqFRlnD9/HoDi4mIWLVoEgK9vO4YOHVYljWXLliGRSO6p9zd06FD69Olr/Ozq6gIY7gm98sorVbZdt24dqam1T+gRFBTIsWPHAYiOjiQwMJDk5GSTea1swNRqNdev53DjxnUcHByws7OlsNBwQXLixHHjfZmAgAAOHTpsvMo+cOAABw4cMB7z+HFD2iqVivj4eDw8PKo0onFxsURERODr60u/fv146qn+vP/+v/H19cXR0YGXXnrJuK1arcHNza3GNGfMmIGjo6Nxn2PHjnPw4AEkktrjJDo5ObFgQYTxs1JpTn6+YVh50KBBBAQEGNddu5bO2rVraj1mTWVZXV4reycdOrTniSeewMrK8nbMVtOjNHc6c+YMABqNhoSEBJo0aUJZmQpHR0cmTpxo3M7c3BxXV1eOHDmCra0tw4cP58yZ07zzzjvo9XrOnTvH6NFjqKioIC4ulrVrv66STk7OdRYuXEibNq3p0KEjQ4cO5T//+U+N9ebp6cnp02eMZZqWlsbcuXOB6uvNUBYS7iVw9Msvv4xWq7tr+cOot5qOGRDgj6dnIwA2b958T3+jdclzZGQkQUFBJCQkEBgYxPHjxwDD7QpTdZyWlkZBQT5RUYbevEajISUlhUmTJhEZGck333xjfC7g76LT6SivqHg8G1H0evQ6bZVFOu2dgVRN/9hITKzT6/Wc27GKS0d/AkAqM8PGvemfvcC//oBJJOh1d3/h00//ZvIBIVNpA2gryoz/12nVSKT3FlhWqVRibq4gJSWFlJQULl26RJ8+fYiJiUGv17N69WrjH7ylpSVKpRIHB/u7TqdSfPxZ4uPP3rU8NTWVkSNH3NWYurm5Ymdnb7yq3rZtG3/88ec9pdmzZwNw69YtFi+uPnh3WVkZlpYWxvs1lpYWqFQqwHA/qWXLVjg4ODJgwABkMil2dvZs3LjRZF7BcAVuY2PD66+/DoCZmYKOHQONDVV5edVeQ00N1J09jIqKCmQyWZX1jo5O3LpVyPHjxzlx4gQRERH4+Pig1+tJSEjgu+/+vNByc3Pj5s2bhIWFmUzz448/rnb55cuX8PFpWaXXBuDn58elS4YeVl5eXpVhyRYtWjBw4EAAdu7cyc6dO+86bmX53+nOOqipLE3lFareEw0IaM+UKZP58MOPTG5fSaPRVPm/TCZDr9dTVFTEihUrjOvs7R1QqysoKSlh2bJltG7dmm7dQhgyZCgffPAB58+f591338HX15exY8dz5UoaW7duNe5vY2ODRqMhNjaO2Ng4xowZQ3BwMKWlpSbrzdPT02S+a6q3li1b3fVdbdasGSqVyvgQ0AcffFDlXvHq1auBh1Nvpo4J1d8T1el0yOVy40WfmZmi+kK4rabjnz59mqFDh2Jvb0eTJk34/PPPAGqsYxsbmyp/s3q9no8++ggvLy98fX0ZMmQIq1d/XmOe6puZmRlKhfnj+Z7otVP7aNJ5ILYNngDA0qkhzUPHApB3KQ5zK1satDP0Ps2tHRj47gGcmvmTcXo/jYP6YenUEAAnLz+GfngSucKCK5G7aPXUFMwsbQFDr9V/5Bxjmq36TcXGtQkA7m264OEXSmasYYhGqy5DcXs/U2pKuya2DZ5Aaetkcr2HR0PmzVuAlZUVAPb29uTm5qHX6zl9OoYBAwYgkUiQyWRMnToVPz8/0tLSsLS0pHXr1oDhSeyFCxfStGlTk+kkJydz82YBw4cPN97HcXNzY/r0mdjbO9R4DrVJSEigR4+exnw++WQPzp41/OD4+/sTE3OKt99+mxUrVvDWW8u5cuUKPj4tazxmx44deffdd1mxYgUrVqzgk09W0bFjYLXbxsbG8uSTIcbzCg0NZdq0/7vn/E+YMJ7w8HCg8qLGnLy8PGJj4/D396dhQ0Odt2jRglmzZqHT6e4rzW3btjNixHAaNzZ8DysfLBoyZIjxnuz9SEpKwsenpXHUoFEjTzw8Ghl7IHUpS1Nu3SrAze3uXoJGo76rIajOlStXkUqldO7cGTDch3799bk4QEyu0AAAIABJREFUOjrg7+/HqFEjiY+PZ92673FxccHBwYHBgwcTEBDAiRMn2LBhA4GBVfPcrVs3pkyZgkwmQyKRYGtrW2u9xcfH0759AA4Ohu98kyZNeOutt1AoTDcqBw4cwNfXl6CgIOOFk69vO6ZNm4ZWqzW5X23+jnqrlJGRga+vH2C4sG3Vqua/v5qoVCouXLjAs89OJDY21tj7rqmO/8re3p5Zs2aRmZnJtm3byMrKolkz7/vO0/2oqChHVVb2ePZECzOSOfVtBCEvf4laVUR5cQFXo3YjN7dEp9Hw+8pnCXpuOUETl6DTaji/5wvyUg1X7zHrlhD2uuEqS60q4diqF9FUqEj5fQMWDm70X74XnaaCwsyLnFz9ZyOaemQTXab9Bxu3JlSU3OLoqumU5GUAkHJgPX0WbeHy8e2c2fh2tXnOv5pkMu2atBk0nfwrCSTtXVvt+tTUS+zatYvXX5+LTqcnLy+Xb7/9FoANGzYyZsxoli5dik6n4/Tp0xw6dAi9Xs8nn6xizJixjBo1Cq1Wy2+//UZaWprJfBh6tZ/Tv39/FixYABiuhLdt28rp06drPIfabN26lTFjRvP222+j0+k4d+4cv/zyC2AYyj106EiV7ePjzxIYGMj58wnVHs/L6wnKysqrvApz9epVHB0dcHK6+4LkyJEjODg4sHDhIrRaDdevX2fdutqfTlyyZCmff/4Z33zzNRMnTiQ4OBidTsfevb+SlWW4T/ztt98xZcoUpFIppaWlfPzxKrRa7X2lmZqaytdfr2X48KextzeMJiQnX+Tf//73A/0Y5+fn88MP65k27QXMzc0pLS3lq6++QqVS1VqWNb26VDmcK5Ho0Wi01Z5fVFQUo0ePpnPnYP7zn/dNHkur1fLRRx8zfvxY+vd/CrVaw5YtW7h2LZ3s7BzatGlLREQEcrkZR44cITc3lyNHjvDMMxPo2dNwgVb58Eplve3btw87OzsWL16MXq/j/PlEjh07hlarNVlvGRkZbN78k/HhsbKyctas+arGV8pKSkp4772VDBs2nAEDBgJ6cnNv8MEHH5KTk1Nb9Zj0sOqtOt9/v46JE5+lR48e3LpVWOUVmvsRGRnJ9OnTeffdd43Laqrjvw7TFhQUEBMTw6uvzkGhkHP58hViYmKMFzd/BzO5GWVlZUiaNfOpdrDexcVVTEB/W/eZn3Ht1F7STuyofWPhf4KjoyOTJz/HypXvPeqsCHUg6k2oL0891RutVvt4DucKwqPWqlUrDh9+tE86CnUn6k2oLxqN5vF9xUUQHrXKJ3aFx4uoN6G+mJubU/HYPp37Nzv60bRHnQVBEAThH6SiogKlUimGcwVBEAShrmQyGRKpVPREBUEQBKGuKt9hFj1RQRAEQagjnV6PXv8YT0AvCIIgCI+KhdIC0It4opWqi8X45JNP0qNHjyrzpP6VqXiIj3uMyX/961/o9XrjpAFwd8xDCwsLPvzwQ3Q6LSkptb9TXDljUmxs1Wnr3N3dee+99zh58qRxyrJ71bNnT7p27cbZs/E1blddvMamTZsyffp0evUKJzi4M1evXntoIbqCgjoxadIkwsN78+STISiV5sbJ0ENCQujWrXuVcxg4cCA+Pj41TlL+MOKwrly5ki5duhAS0p2QkBDy8/O5fv16tXEqq9OokSczZ77EkSOGCTKkUimTJj3H4MGDOHTocK3p17exY8fi6enJxYt/RlmxtLRi5cqV/P777w80SQX8vfErhX+WZs2aUl5eLoZza3LmzBl+/fXX+9q3MsbkwoURfPzxJ4wbN/aBp8erTmWMyR07thMRsYBFixZRVFTMrFmzkMkebvW2b9+e9PT0u6ZTq0nHjh2xsbGpsqxnz9B7mly9PkmlUmbMmMGaNWtYuDCCAwd+Z8qUyQ8lrdDQUEJCurFq1cdERCxg5cqVNG/egjFjxjyU9O50ZxzWe/XBBx+wdOkyPv30M5599lmUSuV9p+/h0ZAmTRqzePGS+z7Gg4iKiiQoqOr3s0OHDpw9G19joPV79bfGrxT+USQSCXIzs8d7OLddu3YMHToUpVJJeXk5O3bsJDb2DO7u7sycOZOEhPO4uDhjbW3Dnj276zw9nb+/P56ejVm/fh0+Pj6MGDESuVxGQUEha9Z8Rbt27e6Kh1jJVIzJyjiSAQEByGRyCgry2bBhA1lZWY9djMnAwEC2bNnCuHHjcHNzu6cpzDIy0unWrZtxWj/DPJytqpyjqXoFQ8M9aNAgJBIJubm5VXpGNcVP/SuZTIaFxZ+TdUdFRRojRNR0HEtLS0aPHsMTTzwB6EhIOM/mzZuqjb4BoFAoGDBgAIsXLzb2cktKSlizZi1t27Z+qBcP9xuHtdLNm3kUFxfdNVWih4cH48aNw9bWlqKiYqKiThIaGsbChQt57rlJuLq6smBBBLt27WLYsGE4ONgzf/4C3nlnBQ4OjowdOxY3N1f0ej3Hjx9nz5496PX6u+K8BgcHU1ZWhr29Pfb2duTm3mTHju0MGjQQGxtbFAoz1q1bz5UrV0yeQ2rqJWQyMzw9G3HtmmEkKCgokL179wKm41eCoVe+f/9++vTpw7x58+jWrVut8Sv79u1D9+4hSKVScnNz2bBhA5mZmYSEhBAQ4E95eTlWVtbIZHLWr19HRkZGnepU+OeQSCQoH9dQaGAYuho/fhzvv/8+OTnXcXV1Yfbs2eTmXkej0eLo6Mjx48dIS0vDwcGB+fPnk5R0gdLSkvtKb8SIkWza9KMxuHBgYCAHDx6sNh4imI4xGRISgrW1tXE+21atWvHiiy8SERFRa1zLv3qUMSZtbW1xdXXl4sWLt6PVB7Jr165a9zt+/AS9eoWxb98+tFotXbp05Y8/ogkODgZqrle93hAj9cMPP+Tq1au4uzdg1qxXiIszDIOaip9aOZfwndRqNfv372fevHmcPHmSM2fOGOcOruk448aN48aNG6xduwaZTMpzz02hV69wkyMWnp6NyMvLu2uYuLS0hOjoP6rdp77cbxzWSh4eHlhYWHHjxg3jMplMyvTp09m1axfHjx9HqVQyY8YM4/q1aw3zCFdGkrl1q4CRI0exYsUKZDIZM2fOYPPmn4iLi8XCwoJp06ZRXFzM4cOGod4747wGBwdjZWXJqlWr0Ov1PPvsRF5++WXeemsZhYW3aN26DZMmTeLNN9+s8TyioiLp2DGQa9fSsbe3x83NjcTExBrjV1YG0DaElluAVCqtNX5l165dadOmLcuWLUOlUuHn58eMGTOMc003aNCQxYsX317nz4QJE6pELBEeL1KpFLVG/fg2ov7+/pw+fYacnOsAXL9+g8jIKAIC2vPHH39w8+ZN449ifn4+OTnZNGjgjpWVZbUxKGtz+nQMTz/9NIcPH+b48ePGsF2mmIox6e/vj4ODA6+99ppxW7lcjlKpNBlj0lQszkuXLj1wjMma4kHWpGPHjsZwa9HR0cYf1tqOWVpayoULF27X32m6d+/Gf/7zvrERraleNRoNf/zxB1evXgUMQ2nHjh3DxsYWiURiMn6qKdu2bePkyZP4+fnx/PPPExcXx6ZNm0wex5CGP3PmGAITaLU6vvzyC8B0HNZ7jSVZOVl7JTs7W2OczPqOw1rbMadPn45Wq6WsrIwvvlhdZXJ1QyxalXHmn7KyMnbu3Mm4ceNqzU+TJo0pL68wXnCqVCr27v2Vfv36GhvRO+O8AsTFxRt7z/Hx8djZ2RhjwiYmnsfFxQWZTEb//v1Nxq+MiorilVdeYfv27XTs2JFTp/5Ap9PRrJmXyfiVlX777TdUKhUSiaTW+JUdO3bgwIGDxtGNuLg4+vbtR7NmzQBD1JXKdefOneX556fWWmbCP5dOp0P63/ieqO52jM87YxICqNVaZDJZjTEoa7Jnzx5OnYrBz8+XV16Zxc8//2wcYqyOqRiToOeXX/Yahw5lMhkuLq7GP67qGsWaYnE+aIxJUzEQy8rKq/RiJRJJleHPjh0DUSrNad68+e3zdTQOmdUUYxLg998PMXasIVhyenq68UexJjqdDr1eb6zfSnc+GGIqfmp1ZDIZjo6OZGdnk52dzcmTJ1mxYgXbtm2r8TiGH/S768jU9yo9PR1nZxdsbGwoKioyLq+Mk1r5Hboz9iZgrJ+HEYe1pmMCrFq1yuQDVoY6qHpRYGoo+15IJFQZYv5rnNc7/461WjVqddX61mq1SKXSGuNX3rhxg4KCAry8vOjUKYjvv19n3N9U/MpKlRcQ9xu/0nB+hv+r1XeeiyHfwuNLr9dTVlb2+D5YFBsbR4cOHWjUyAMAT09POncOfuCwXKbMnDkDpVLJ/v37OXLkMAEB/oDpeIimYkzGxMTQq1cYFhaGffr168fgwYNun9M/J8ZkQsI5unTpYmw8unXrxuXLl6moqMDR0QlrayuWLFlijFW4c+fOe45VmJGRgU6nZ/jw4VWeJIWa6zUuLo4OHTri5mboKTg4ONCtWzeAGuOnVkcqlTJ//nyaNfMCwNbWhuLiYtRqtcnj6PV64uLi6d3bUK8ymYzJkycTFhZm8lzLy8vZs2cPU6dOxc7ODjA0cM89N5m2bVvX6R7lXz2MOKy1uXLlKpaWFvj7G3p9hl5gP+P6muKDXrlyFaXSnKCgIMDwBsCgQYOIjo5+oDzdi8jISAYMGICZmcI4klHf8StjYmLo27eP8eKzU6fOWFtbc+lSykM+O+FRUCjMsbS0fHx7otnZWaxfv54pU6ZgYWFJSUkJ69Z9T1ZW1l2x5+6Vo6Mj8+fPA+DEiZNVejl79/7KuHFjMTdXUFJSyrffGqLe3xkP8euv1zBv3nzeeOMNkzEms7KysLOzZ/78+Wg0GrKzs/juO8OV8T8pxuSpU6dwdXUlIiICiURCVlYWa9caYpoGBQVy7ty5KtvHx5/lpZdmsm3btns6/sGDv9O//1N3DUvWVK8AP/64keef/z/KylSUlJRw+vRpFApzwHT81DsFBXUiIMCf1atX8/HHHzNmzDjkchlqdQWrV69Gr9fXeJz169czbtw4li5dhk6nJSEhodbXG/bv309xcTEzZsxAoVCg0+mIioq67ye/K9V3HNZ7odVq+eSTTxg3bhz9+vWlvLyc+Ph4QkJCAEOvLyfnOkuWLGXbtm0UFuZX2ffjj1cxbtxYnn56OFqthiNHDnPs2LH7zs+9OnXqFKNHj65y376m+JV/dS/xK48dO46NjS0RERFIpTKysjL56KOPH6inLvxzqdUV6HQ6EU+0PgUHB+Pq6sqOHSLu6D/Vs89OJDo6ksTEpEedFUEQHmP9+/dFpxPxROtVixY+HD0qYhX+kzk6OpKUdOFRZ0MQhP8CCoVC9EQFQRAEoa4GD+6PWq0WPVFBEARBqKvKNwZEIyoIgiAIdaTVag1T/z3qjAiCIAjC48bc3ByNVisaUUEQBEGoq4qKCnFPVBAEQRDuh1QqRS6XP7yeqLW1NXZ2dsawV0VFRRQWFtY656wgCIIg/NNpNBp0Ol39N6JyuRxvb2/c3NwoKyujrMwwl6edXSO8vb3JyckhJSXlrrltBUEQBOFxYW6uRFvfUVzkcjn+/n4olUoSEhLIzc2tst7Z2ZmWLX2wtrYiNjZONKSCIAjCY0mlKkUul9fvPVFv72YolUoiI6PIzc3Fzc2NTp060alTJ9zc3MjNzSUyMgqlUom3d7P6TPqRGrUmCTNL20edjYfG3d2dJUuW1Hm/sLBejBw58iHkSBAE4dFSKMyRSqX114haW1vj5uZOUtIFNBoNSqWSli1bkpeXR15eHi1btkSpVKLRaEhKuoCbm7vJMFWCIAiC8E+mUqnQauvxnqi9vT1lZWXGIVy5XI5WqyElJQW5XI6HhwdKpdK4TVlZGc7OzqSn3x0x4V406dQf/5GGwNZF16+SfzURcys7Ir+ai0PjlgRNWo7S1gm9Tkfi3jVcPLDOuF+7YbOQSqVoyks5tW4J15OiQCLBf/ireAb1QypTUHozi+iv51OYkUz3mZ9RmJ6MW+tgrF080VaUcWr9UjJjDxL03HLMlFb0fXMb12L2EfvjO9Xm17ahN6Gvfk167EGcnmjHr4uH1XgO3Wd+hqasBAsHN8ytHSjNz+Lk57OoKC1CYWVH0KTl2Hk0o7y4kKz4w7QZ9AI/zwlFVXCdJp0H0m7wdGQKw5h93Ob3uHZqL1ZOHgT/3/tYOrih01QQtfYNbiTHMOi9QxxdNZ38tHPV5r1SeHg4nTp1xt7ejrNnz7Jx40a6du2Kj09LPvvsUwBkMilvv72CNWvW0rt3b+RyGS1a+PDJJ6soL69gzJjReHo2Qi43IzU1lY0bN6JSqQgLCyMkJASpVEJiYhIbNmx4oDBhgiAID5OFhRJtfb4nam1tZXyICKC4uJhjx44b75NqtZoqT+aWlamwtra6r7TsPVvSafIKfls+lptpZ7HzaE74gk2kx+xDKpfTc863nPziNbLOHsbcxpG+b26j4FoialUJHZ9ZzC8LB1Gal4lTM396zl7D9pe74fXkCMxtHNk1Nxy9TkuDdt3pOecbtr/SFQCvkBH89tYoim9cw7VlZ3rOXsOuN/oQvXYeT3Qdxt43h6IurTm4tE0DL25u+5AzG5bXeA6VzG0c+P3dZ9HrdXR8ZjFtBs/gzIbldJq8gtK8TI6tehGAdkNfwtzaEJLJoXFLWj31PPuWDqeitAhLp4b0W7yDgmuJ+PR5jutJUcRveR/3Nl3wCX+WG8kxnFw9i8L05Brz7uLigkKh4K23lhnjaA4fPpytW7cyaNAgbG1tuXXrFu3a+ZGamsqFC0ns27cPJydHNm3aBMDUqc8TF3eGNWvWADB48GBGjhzJpk2bGDJkCLNmzUKr1TJ58mS8vJ4gNfXSfX0/BEEQHjadTmd4zeVhJ+Tubhi2rc8HiRp1COfyiR3cTDMEIC7MuMjFg+uxsHPBycuPitIiss4eBqC86CY7Zj8JQNshM7gSvYfSvEwA8lJj+emFDgA0DuyLpWND+i7+M4yZTG6GmYXhFZ3EPV9QfOMaANeTIsmIPYBHQCjJ+7+rmrf2vQgYM6/Kst2v9wGg9GYWl47+VOs5VLp26lf0ekMswvSYfbQZNB0kEhoH9mXT877G7RJ2foLvsJcB8GgfjrVzQ8Le2GBcr1FXYNOgGRlnDhI06S20FSqundrLsU9mAnDjYu2BzEtKStizZw96vR6NRsPWrVuZO3cu69ev58yZM3Tq1In9+/fTpUswhw79ftf+EokEf38/nJwcCQ01BLGWyWSUlJRQVlZGSkoKkyZNIjIykm+++Qa1Wl1rngRBEB4VPaAqLa2/RrS4uAQ7O/u7liuVSrKzc+56P1SptCAv7+b9JabXo9dVDTit097ZQEtM7ioxsU6v13NuxypjIyeVmWHj3vTP3qXkL/tJJOh1dwfbTT/9G+mnf6s2DU15aR3OAbTq8j/XadTIzMyMeZWZKVDf7vhLpDKovL2t15MRd4iTq2cb97Vt0IyS3HS06nL2LhpEow7hdJr8DnmX4jj9w1vV5rU2EonhSgwMwcSfffYZIiMjcXd3NxmrU6/Xs3r1avLzDYGaLS0tUSqV6PV6PvroI7y8vPD19WXIkCGsXv05OTnX7ytvgiAID5tMJsPGxqb+HiwqKChAqVTi7OxcZXl2djbZ2dlVljk7O6NUKu96BeZeXTu1jyadB2Lb4AkALJ0a0jx0LAB5l+Iwt7KlQTtD79Pc2oGB7x7AqZk/Gaf30zioH5ZODQFw8vJj6IcnkSssuBK5i1ZPTTE+Zdt2yAz8R84xptmq31RsXJsA4N6mCx5+oWTGGnpcWnUZijo+nVvTOdRIr+dq9B46jF+IVCZHIpXRflwEEqnk9nF/pXHHvtg38gHArXUwvSM2odfp8B/5Go2DniL10I9Efz2fpl0GG8tBKjOrMVlra2ueeuoppFIpZmZmPP3005w5EwvA5cuX0Wh0jBo1ihMnjhvvZarVFVhYWN7Otp7Tp2MYMGAAEokEmUzG1KlT8fPzw97enlmzZpGZmcm2bdvIysqiWTPvOpWnIAjC30kqk6HWaOqzJ1pMTk42LVv6EBlZYBy6bdLE0PAkJCQAhgeOWrb0IScnm7KysvtKqzAjmVPfRhDy8peoVUWUFxdwNWo3cnNLdBoNv698lqDnlhM0cQk6rYbze74gL9Xwgx+zbglhrxseMlKrSji26kU0FSpSft+AhYMb/ZfvRaepoDDzIidX/9mIph7ZRJdp/8HGrQkVJbc4umo6JXkZAKQcWE+fRVu4fHw7Zza+/cDnUJuotfPo9NzbDPs4irKiAi78+jUVt3vMhRkXObF6Nt1nfopEKqO8pJAD7zyDTqsm+cA6gp9fiU/vSUikEqLWvAFAt+kfc/SjF41Dy9W5fv06er2exYuXYGlpQVxcHFu3bjGuP3r0CKNGjeLHH380LktISCAsLIw331zEhx9+xIYNGxkzZjRLly5Fp9Nx+vRpDh06hF6vJyYmhldfnYNCIefy5SvExMTcUzkKgiA8CipVKeYK8/oNyn3nZAtJSRdMTrZQVlb2WE220H3mZ1w7tZe0Eztq3/hvYOHgjlpVhKasBACJRMrY71LZ9Hw71KpHM61icHAwbdu248svv3gk6QuCIPydwnr1wNrKqn4fLNJoNMTGxuHt3Yw2bdpUmfZPqbRAqVSSk5NNSkrqY9OA/hN5dRuGS4sOHP34RbQVZfj0nUxuauwja0ABuncPYefO7Y8sfUEQhL+TmZkZGm09DudWqpxMIT09A3t7e+NrLHl5N43vhwoP5vzu1bS3nceAFb8hkUopyr7EsY+nP7L8eHh4YG1tzYULNb8mIwiC8N/CzMwMtVpdv8O5giAIgvC/oO9T4WjUD6EnKgiCIAj/7WQSKRbW9fiKiyAIgiD8r9ADFRXlohEVBEEQhLqSYHgGSDSigiAIglBHarUahbn5w7snam1tjZ2dHTY2hrlni4qKKCwsvGv6P0EQBEF43NjZ21NaUlL/jahcLsfb2xs3N7cq74na2TXC29ubnJwcUlJSxHuigiAIwmOrpKgYM4VZ/Taid85YlJCQYHLGImtrq8dqxiJBEARBuJO5UklJaUn93hP19m6GUqkkMjKK3Nxc3Nzc6NSpE506dcLNzY3c3FwiI6NQKpV4ezerz6T/Jzk0aUP/Ffvva1/bht4Mfv/IA6U//PNYLOxdadFrAp2nVB+M/FFoEf4Mwf96v9btHJq0YfC/Dz9wehKJBDs7O6ZNm4aFhYXxFoYgCP+9tFoNFkpl/TWi1tbWuLm5k5R0AY1Gg1KppGXLluTl5ZGXl0fLli1RKpXGGY3c3AxxRgWhvl2L/oWEnz+tdbvCjIuc+PyVB07Pzs6O4cOHY2Njy8iRI3niiaYPfExBEP7Z9HooKanHeKL29vaUlZUZh3DlcjlarYaUlBTkcjkeHh4olUrjNmVlZTg7O5Oenn5f6TXp1B//ka8BUHT9KvlXEzG3siPyq7k4NG5J0KTlKG2d0Ot0JO5dw8UD64z7tRs2C6lUiqa8lFPrlnA9KQokEvyHv4pnUD+kMgWlN7OI/no+hRnJuLfpQocJi5HJzSjNz+HYxy9SdiuXVv2m0KLXBCQSKVnnjhH99XxjEG1Tea42baDtoBdpHjYeiUxGcc5Vor+eT0H6BVr0moBnYF805aWYWzsglSmI/Oo1Cq4l0fWFj7Bt8AT9V+wnfsv7WNg549YqGHNbJ/JSYzmz8W08AsIIGD0PhaU16rISYjet5Nofv9xbIUsk+A2fTbOQEajLSrieGIWFoztpJ7abnIzfzMKajs8spmG7EJBIyE44TvQ3Edh7eBP47FL2LOgPQPC/DPk9+O4zAPSO+InTG94iN+WMyezUVEZ3nndJbjqOTdsS+dVcFFZ2BE1ajp1HM8qLC8mKP0ybQS/w85xQzCxt6TLtA3bMCqmxnIOff4+baee4sO8bEznTI5FIkMulSKVSdLpqJwETBOG/ih65mbz+GlFrayvjQ0RgCI127Nhx431SrVZT5cncsjKVcV7durL3bEmnySv4bflYbqadxc6jOeELNpEesw+pXE7POd9y8ovXyDp7GHMbR/q+uY2Ca4moVSV0fGYxvywcRGleJk7N/Ok5ew3bX+6G15MjMLdxZNfccPQ6LQ3adafnnG/Y/kpXOkxYzKlvF5KTeJI2A1+gaZfBpB7ZjP+o19n0fFt0GjXdpq/CuXkAN5KrD+Fl79nSZNpNuwymoX9Pdr3eG7WqCM8OvQl9/Xu2v9TVsK9HC3a+Foa69BaeHfsS/Px7/BIxgOOfzqTLtA/Y/Xo4AC16TaCBbwgH3h7HzbRz2Db0pvOUd9i/bAS3si5j496U3hE/UZyThlajrrWcW4SNx7NDb3a/0Zfy4nyadB5ItxdXkXbC9ETzQZPeoqwwl60zOwPgP2ouwVPf5chH07Cwd8Xc2oHykgKcvf2RmSmRmZkjkcqwcmlE7u1wddXx7jG6xjK687zvjMvaafIKSvMyObbqRQDaDX0Jc2uH6uvIRDkn/PzZn8HZq1FYeIstW7YwevQoNm7ciLm5wnShCoLwX0Gt0fw90/65uxuGbevzQaJGHcK5fGKHMf5lYcZFLh5cj4WdC05eflSUFpF11nCvq7zoJjtmGwJ0tx0ygyvReyjNywQgLzWWn17oAEDjwL5YOjak7+I/e1gyuRlmFjZcjdpF+3ELSP7tO1IObaS86CZIJNxIjqbrtA+5dOwnTnz2Mlp1OY3a9yJgzLwq+d39eh8adQg3mXaT4IEk/rIGtaoIgGsx+2gzeAYuPh0ByEo4bvwRzzjzGyEvfWaybDJjD5J3Kc54Tlei93Ar6zIARdlpXDq6hcZBT3H5jp6k34hXaRz0lPFz/pXzHFs1ncZB/Yjf+iHlxfkAXIn8mZZ9JpquGImEJp0H8tO0APQ6LQDxW95n9JokpFIZ107vp4FvCEU5V7h5+Sw6dTlurbsgkUrJjDsEej3wyzOmAAAFjklEQVShc7/HytnDeMiLBzeQ9MuXtZbRned9Z34aB/Zl0/O+xkUJOz/Bd9jL1WbfVDnfyqp5Dmm9Xk9+fj5ffPEFWq0OlUpV4/aCIPx3kMll9RmUuwQ7O/u7liuVSrKzc+56P/T/27v3mCrLOIDj33M4d/EgAnGZecFTYGh5C21FW3NeUrHpXG5pN3VtTdvamossm3OFWlZzWLOctpzLTd2cC/CGWtOCo6SSwBCB5KbnLMGDQHAu73n74yCJcA5CZJN+nz/f933O87y/P97nvM/l95pMZhoaGvtXmap2PqRv8yt3dtCaoEU1Qc6pqkrxoW1UnT4AgDZMz9C40Xj/vMWlg1u5mv8DD0+dxcwP9lF04DNqzx0mb+NSYh6ZyogpM5m0JIOfvlhJ3fk86s7n9anuHq/VaFA7hgX9XneX+9Row4KW87l7eYBrNKj+rkPORfu3ULR/S7dL1R7jrHS77q5CXatDA6ioqkrtucOMeXoRrQ311BYew+9zkzDxOVBVas8dAeDk5pdD/36XW/k7RsHuW1VVwvQGvB2nA7HreSlAX+LcE0UJPpQvhBhc9Dodit8/cAuLXC4XJpOJ6OjoLscdDgcOh6PLsejoaEwmU7ctMPeqtvAYo6anY40fA4AlKqFzCK+hqgjjECvxEwJvn8bwSNI/OUHU2InUnz/OyNTnsUQlABCV+AQLt+ajM5ipLshm3NyV6C1WIPDWOvHFNQDMyNiD3hxOafZ2yvN2M/LJOZgj45i1bj+u2jIu7M3EVVdOTFJq0Db3Vvf4BaswDIkAIDFtMcahw7lRURgyDorXjcESfCVobeFRRk9LJ3LkOAAiR48nMW0x1fac0AHuUG3P5bH0N9EZzADET0jjoaRpwQuoKjVnc5i0JANtmA6tTsfUV9ZTbc9G9Ss4S/OJSnycuPFpXPvtR65fOk3suKeItk3GUfJz6Lb0J0aqSs3ZXKYs+xBtmA6NNozJS9eh0d77nxkAa/wYTNaoPpURQgxuflVF8Q3gcG5LSwtOp4Pk5CQKClydQ7ejRo0CoKSkBAgsOEpOTsLpdPT726JN9eUUfreOZ9/egbetGXeLixp7DjqjBb/Px6lPXyV1eSapr23Ar/gozf2Gho75tl/3bGBGRmCRkbetlTPbVuHztFFxai/myFjmZR7B7/PQdO0K+V8HOtHiQ18yfcVGdEYL7lYXv2x/h7abDqoLspm9/iA6vZEbVUVUF2QHbfPNmrKQdZsiYpi/+TgarY6munJObFqGv5fh7xbnVW5d/50XPj/Dhb2ZPcTpCvad75L21lcYhlhpb3ZRsGMNTfXlWBNsvca54tT3hEclMPfjXNwtjdy6Vsn14tDbYuy73if19Y9YmHUWDRrqi05i3/keEHi7a7xajHHocHztrQC0/lGD4nHjV0LP0fY3RvZda5m2fCOLsuy0N7u4fPRbPCHmN3uSsmA1N6tLKDuyq0/lhBCDl16vx2gwDuz3RO9MtlBWdjlosoX29nZJtiDuC3NkHN625s5OW6PR8tLuSva9MQFvm6SgFEL0z9x5s9EP5JwoBDLaX7xYhM02lpSUlC5p/0wmMyaTCafTQUVFpXSg4r5IfGYRMY9O4XTWKhRPO0lzVnCj8qJ0oEKIf0RvMODzeAZ+de7tZAp1dfUMGzascxtLQ0Nj5/5QIe6X0pyvmWxdy/xNeWi0WpodVZzJWv1fN0sI8YDzejzgVwd2OFcIIYT4P5g1ZwZGnV6+JyqEEEL0ldFoxKco0okKIYQQfaaCxWL59zMWCSGEEION1+fFL2+iQgghRP/4BjLZwt3Cw8OJiIjo/LZic3MzTU1N3dL/CSGEEA8ag96AqlUGvhPV6XTYbDZiY2O77BONiBiBzWbD6XRSUVEh+0SFEEI8sFRUFEXhL0voOnJ4mtHBAAAAAElFTkSuQmCC;" parent="1" vertex="1">
          <mxGeometry x="85" y="1060" width="465" height="106" as="geometry" />
        </mxCell>
        <mxCell id="u9ssdyGObwGIZlNKVtnJ-4" value="This mean to allow all site" style="text;html=1;strokeColor=none;fillColor=none;align=center;verticalAlign=middle;whiteSpace=wrap;rounded=0;labelBackgroundColor=none;fontFamily=Comfortaa;fontSource=https%3A%2F%2Ffonts.googleapis.com%2Fcss%3Ffamily%3DComfortaa;fontSize=25;fontColor=#000000;fontStyle=2" parent="1" vertex="1">
          <mxGeometry x="149.5" y="1180" width="336" height="30" as="geometry" />
        </mxCell>
        <mxCell id="u9ssdyGObwGIZlNKVtnJ-5" value="This usually use in development, but it production it recommend to explicit tell which site can access our data" style="rounded=0;whiteSpace=wrap;html=1;labelBackgroundColor=none;fontFamily=Comfortaa;fontSource=https%3A%2F%2Ffonts.googleapis.com%2Fcss%3Ffamily%3DComfortaa;fontSize=25;fillColor=#ffe6cc;strokeColor=#d79b00;" parent="1" vertex="1">
          <mxGeometry x="600" y="980" width="510" height="130" as="geometry" />
        </mxCell>
        <mxCell id="65nDBrGIIqQyaq-XG8gt-3" value="" style="group" vertex="1" connectable="0" parent="1">
          <mxGeometry x="800" y="410" width="380" height="70" as="geometry" />
        </mxCell>
        <mxCell id="65nDBrGIIqQyaq-XG8gt-1" value="Whitelisting" style="text;html=1;strokeColor=none;fillColor=none;align=center;verticalAlign=middle;whiteSpace=wrap;rounded=0;fontFamily=Comfortaa;fontSource=https%3A%2F%2Ffonts.googleapis.com%2Fcss%3Ffamily%3DComfortaa;fontSize=30;fontStyle=1" vertex="1" parent="65nDBrGIIqQyaq-XG8gt-3">
          <mxGeometry x="160" width="60" height="30" as="geometry" />
        </mxCell>
        <mxCell id="65nDBrGIIqQyaq-XG8gt-2" value="Allow which site can access" style="text;html=1;strokeColor=none;fillColor=none;align=center;verticalAlign=middle;whiteSpace=wrap;rounded=0;fontFamily=Comfortaa;fontSource=https%3A%2F%2Ffonts.googleapis.com%2Fcss%3Ffamily%3DComfortaa;fontSize=25;fontStyle=2" vertex="1" parent="65nDBrGIIqQyaq-XG8gt-3">
          <mxGeometry y="40" width="380" height="30" as="geometry" />
        </mxCell>
        <mxCell id="65nDBrGIIqQyaq-XG8gt-4" value="" style="group" vertex="1" connectable="0" parent="1">
          <mxGeometry x="1220" y="410" width="380" height="70" as="geometry" />
        </mxCell>
        <mxCell id="65nDBrGIIqQyaq-XG8gt-6" value="Allow everything except some site" style="text;html=1;strokeColor=none;fillColor=none;align=center;verticalAlign=middle;whiteSpace=wrap;rounded=0;fontFamily=Comfortaa;fontSource=https%3A%2F%2Ffonts.googleapis.com%2Fcss%3Ffamily%3DComfortaa;fontSize=25;fontStyle=2" vertex="1" parent="65nDBrGIIqQyaq-XG8gt-4">
          <mxGeometry y="40" width="380" height="30" as="geometry" />
        </mxCell>
        <mxCell id="65nDBrGIIqQyaq-XG8gt-5" value="Blacklisting" style="text;html=1;strokeColor=none;fillColor=none;align=center;verticalAlign=middle;whiteSpace=wrap;rounded=0;fontFamily=Comfortaa;fontSource=https%3A%2F%2Ffonts.googleapis.com%2Fcss%3Ffamily%3DComfortaa;fontSize=30;fontStyle=1" vertex="1" parent="65nDBrGIIqQyaq-XG8gt-4">
          <mxGeometry x="160" width="60" height="30" as="geometry" />
        </mxCell>
      </root>
    </mxGraphModel>
  </diagram>
</mxfile>
